<svg width="876" height="262" viewBox="0 0 876 262" fill="none" xmlns="http://www.w3.org/2000/svg">
<g clip-path="url(#clip0_25_23)">
<path d="M304.098 179.82H257.546L246.096 207.119H218.812L282.158 62.0986H283.682L347.028 207.119H314.974L304.098 179.82ZM294.937 156.696L281.393 122.762L267.276 156.696H294.937Z" fill="#03CC83"/>
<path d="M396.931 61.9873V207.199H368.154V61.9873H396.931Z" fill="#03CC83"/>
<path d="M581.473 62.0986V207.119H553.823V140.666L508.065 205.225H507.684L463.635 144.831V207.119H436.938V62.0986H437.13L508.254 162.248L581.092 62.0986H581.473Z" fill="#204ECF"/>
<path d="M718.721 61.9873V89.6106H647.872V120.588H710.585V148.208H647.872V179.579H721.498V207.199H619.105V61.9873H718.721Z" fill="#204ECF"/>
<path d="M751.27 61.9873H794.926C813.576 61.9873 828.923 65.572 840.967 72.7413C853.012 79.9106 861.781 89.1813 867.276 100.553C872.765 111.934 875.51 124.134 875.512 137.153C875.512 151.096 872.204 163.394 865.588 174.047C859.152 184.536 849.911 193.04 838.896 198.611C827.715 204.332 815.445 207.193 802.086 207.193H751.27V61.9873ZM797.111 179.579C812.062 179.579 823.902 175.765 832.631 168.137C841.361 160.508 845.727 149.525 845.729 135.186C845.729 123.613 843.315 114.406 838.486 107.566C833.657 100.725 828.035 95.9897 821.618 93.3586C815.202 90.7297 809.15 89.4142 803.462 89.412H780.043V179.579H797.111Z" fill="#204ECF"/>
<path d="M183.408 77.7263C180.678 73.3856 177.414 70.8031 172.815 68.1676L110.239 32.2536C105.367 29.4667 99.8444 28 94.2235 28C88.6027 28 83.0802 29.4667 78.2082 32.2536L15.6589 68.1676C10.7235 70.9984 4.0962 76.2397 3.57334 82.8384C2.33781 98.5224 22.6525 108.346 36.2367 115.531C59.6419 127.91 74.7747 135.085 86.1909 146.717C88.7252 149.299 92.7349 153.835 94.2235 157.398C95.7122 153.835 99.7218 149.299 102.256 146.717C113.686 135.085 128.815 127.91 152.21 115.531C165.588 108.455 185.253 99.4627 184.88 82.8517C184.87 81.5571 184.301 79.1434 183.408 77.7263ZM94.2335 121.295C90.311 121.295 86.4766 120.139 83.2152 117.972C79.9538 115.805 77.4119 112.726 75.911 109.123C74.4101 105.52 74.0175 101.555 74.783 97.7307C75.5485 93.9059 77.4376 90.3927 80.2115 87.6354C82.9853 84.8781 86.5193 83.0005 90.3666 82.2401C94.2138 81.4797 98.2014 81.8707 101.825 83.3635C105.449 84.8563 108.546 87.384 110.725 90.6268C112.903 93.8696 114.066 97.682 114.065 101.582C114.065 104.171 113.552 106.735 112.556 109.127C111.559 111.518 110.098 113.692 108.257 115.522C106.415 117.353 104.229 118.805 101.823 119.796C99.4165 120.786 96.8377 121.296 94.2335 121.295Z" fill="url(#paint0_linear_25_23)"/>
<path d="M152.313 125.893C124.496 140.57 104.973 147.437 97.3904 171.18C96.4879 174.001 95.3023 177.041 94.2067 182.874C93.1143 177.08 91.9321 174.051 91.0362 171.243C83.4532 147.497 63.9311 140.643 36.1133 125.952C7.24979 110.712 1.09877 103.08 0.00976562 99.8456V167.584C0.0174304 173.164 1.49778 178.644 4.30291 183.477C7.10804 188.31 11.1397 192.326 15.9951 195.125L78.4844 230.989C80.5482 232.23 82.7441 233.24 85.0318 233.999C84.2791 231.327 83.3666 228.503 82.3043 225.496C62.7855 171.094 28.2305 157.718 28.2305 157.718C28.2305 157.718 44.3258 159.002 67.3213 182.616C78.4678 194.062 87.2131 207.779 94.1967 222.017C94.1967 222.017 109.546 194.416 121.105 182.543C144.101 158.94 160.196 157.658 160.196 157.658C160.196 157.658 125.641 171.031 106.122 225.437C105.043 228.443 104.148 231.267 103.392 233.939C105.68 233.179 107.877 232.17 109.942 230.93L172.425 195.062C177.28 192.264 181.312 188.249 184.117 183.416C186.922 178.584 188.403 173.104 188.41 167.525V99.7959C187.328 103.017 181.177 110.653 152.313 125.893Z" fill="url(#paint1_linear_25_23)"/>
</g>
<defs>
<linearGradient id="paint0_linear_25_23" x1="3.5134" y1="92.6985" x2="184.907" y2="92.6985" gradientUnits="userSpaceOnUse">
<stop stop-color="#204ECF"/>
<stop offset="1" stop-color="#26E0F5"/>
</linearGradient>
<linearGradient id="paint1_linear_25_23" x1="116.283" y1="70.1132" x2="56.7098" y2="250.715" gradientUnits="userSpaceOnUse">
<stop offset="0.59" stop-color="#03CC83"/>
<stop offset="1" stop-color="#ACDF23"/>
</linearGradient>
<clipPath id="clip0_25_23">
<rect width="875.502" height="262" fill="white" transform="translate(0.00976562)"/>
</clipPath>
</defs>
</svg>
