<svg width="913" height="262" viewBox="0 0 913 262" fill="none" xmlns="http://www.w3.org/2000/svg">
<g clip-path="url(#clip0_39_21)">
<path d="M729.493 157.571C733.879 153.188 740.804 152.093 746.022 155.471C752.624 159.763 760.427 161.954 769.43 161.954C779.403 161.954 784.897 159.124 784.897 153.462C784.897 134.881 727.046 146.705 726.999 105.023C726.999 83.3822 743.852 69.2292 771.23 69.1836C784.066 69.1836 795.516 72.2425 804.704 78.2689C811.676 82.8344 812.368 92.7871 806.458 98.6766C801.98 103.105 794.962 103.881 789.606 100.503C784.204 97.0787 778.064 95.5721 771.508 95.5721C762.227 95.5721 757.241 98.4027 757.241 103.607C757.241 120.317 814.861 109.908 814.907 152.047C814.907 174.418 797.594 188.297 769.707 188.343C755.948 188.343 742.651 184.599 731.986 177.888C724.829 173.368 723.583 163.598 729.539 157.617" fill="#02A14A"/>
<path d="M652.158 70.6445C620.993 71.4207 597.216 96.3482 597.216 130.041C597.216 163.689 621.086 187.247 652.528 187.201C654.051 187.201 657.145 187.201 660.561 187.201C668.503 187.201 674.92 180.81 674.92 172.957C674.92 165.104 668.456 158.758 660.561 158.758C659.453 158.758 658.576 158.758 658.207 158.758C641.077 158.758 629.166 147.938 629.119 129.813C629.119 111.916 640.985 99.1788 658.114 99.1788C675.474 99.1788 687.386 111.871 687.432 129.767C687.432 129.859 687.432 129.95 687.432 130.041V172.226C687.479 180.216 694.035 186.699 702.115 186.699C710.194 186.699 716.75 180.216 716.75 172.226V127.804C716.75 127.804 717.304 69.0923 652.112 70.6902" fill="#02A14A"/>
<path d="M532.808 189.483C519.696 189.483 508.292 185.055 500.166 177.522V227.833C500.258 235.184 495.179 241.895 487.884 243.356C477.865 245.365 469.047 237.832 469.047 228.29L468.862 88.7689C468.862 80.3685 475.742 73.5202 484.237 73.5202H484.375C492.732 73.5202 499.519 80.0945 499.75 88.3124V126.982C499.75 128.123 499.658 129.265 499.658 130.452C499.658 148.348 510.138 161.04 527.268 161.04C544.397 161.04 556.539 148.303 556.493 130.406C556.493 112.281 544.304 99.5891 527.406 99.5891C519.465 99.5891 513.047 93.1975 513.047 85.3448C513.047 77.3552 519.603 70.9179 527.683 71.0549C530.13 71.0549 532.023 71.1005 532.623 71.1005C564.527 71.1005 588.351 96.4389 588.397 130.132C588.397 163.78 564.665 189.483 532.762 189.529" fill="#02A14A"/>
<path d="M825.758 157.479C830.144 153.097 837.07 152.001 842.287 155.379C848.89 159.671 856.692 161.862 865.695 161.862C875.668 161.862 881.162 159.032 881.162 153.371C881.162 134.789 823.311 146.614 823.265 104.931C823.265 83.2904 840.117 69.1375 867.496 69.0918C880.331 69.0918 891.782 72.1507 900.969 78.1771C907.941 82.7426 908.634 92.6953 902.724 98.5848C898.245 103.013 891.228 103.789 885.872 100.411C880.47 96.9869 874.329 95.4803 867.773 95.4803C858.493 95.4803 853.507 98.3109 853.507 103.516C853.507 120.225 911.127 109.816 911.173 151.955C911.173 174.326 893.859 188.205 865.972 188.251C852.214 188.251 838.917 184.507 828.251 177.796C821.095 173.276 819.848 163.506 825.804 157.525" fill="#02A14A"/>
<path d="M387.095 129.447L363.964 97.0325C356.946 87.171 364.056 73.5659 376.245 73.5659C381.324 73.5659 386.033 76.0769 388.85 80.2772L406.718 107.168L424.493 79.9576C427.125 75.94 431.649 73.4746 436.497 73.4746C448.086 73.4746 454.873 86.3036 448.271 95.7085L424.955 128.9L449.887 164.465C456.812 174.326 449.656 187.84 437.513 187.84C432.434 187.84 427.679 185.283 424.862 181.083L405.102 151.133L384.694 181.54C382.063 185.511 377.584 187.886 372.782 187.886C361.148 187.886 354.361 174.92 361.101 165.515L387.095 129.356V129.447Z" fill="#0D1D61"/>
<path d="M0.511719 131.319C0.511719 97.2154 27.5213 71.3748 62.7491 71.3291C74.0147 71.3291 84.4491 74.0227 93.4523 79.0448C101.763 83.7016 103.333 94.9326 96.6381 101.69C92.1134 106.255 85.1417 107.259 79.4628 104.292C74.6611 101.781 69.1206 100.457 62.8415 100.457C45.343 100.457 32.6923 113.058 32.6923 131.046C32.6923 149.262 45.4353 161.817 62.9338 161.817C69.3515 161.817 75.0304 160.402 79.8321 157.754C85.5111 154.649 92.5751 155.562 97.146 160.082C103.933 166.793 102.409 178.024 94.0987 182.772C85.0032 187.977 74.5226 190.671 62.9338 190.671C27.4289 190.762 0.511719 165.195 0.511719 131.319Z" fill="#0D1D61"/>
<path d="M239.304 130.817C239.304 98.4025 264.513 72.5162 297.202 71.101C331.737 69.64 357.084 94.2023 357.131 128.078C357.131 128.078 357.131 128.169 357.131 128.215C357.131 135.657 350.805 141.638 343.28 141.638L270.885 141.912C274.717 156.11 285.982 164.374 302.05 164.374C309.898 164.374 317.055 162.502 323.011 158.804C328.09 155.654 334.738 156.658 338.986 160.813C344.895 166.656 344.018 176.518 336.954 180.946C327.074 187.201 315.208 190.397 302.28 190.397C266.129 190.397 239.258 165.378 239.212 130.772M270.931 118.719H326.981C323.842 104.429 314.746 96.8959 300.11 96.8959C285.244 97.1698 274.717 105.205 270.931 118.719Z" fill="#0D1D61"/>
<path d="M132.974 17C141.654 17 148.672 23.9395 148.672 32.477V84.4778C156.89 75.8947 168.895 71.1009 182.884 71.4205C207.308 71.9684 226.561 92.2391 226.607 116.39V172.637C226.7 181.22 219.682 188.16 211.002 188.16C202.322 188.16 195.304 181.22 195.304 172.683V122.828C195.212 110.638 185.654 100.229 173.327 99.6352C159.199 98.996 148.718 108.629 148.764 122.6V172.683C148.857 181.266 141.839 188.205 133.159 188.205C124.479 188.205 117.461 181.266 117.461 172.728L117.276 32.477C117.276 23.9395 124.294 17 132.974 17Z" fill="#0D1D61"/>
</g>
<defs>
<clipPath id="clip0_39_21">
<rect width="912" height="262" fill="white" transform="translate(0.511719)"/>
</clipPath>
</defs>
</svg>
