<svg xmlns="http://www.w3.org/2000/svg" viewBox="0 0 100 40">
  <g fill="#1F70C1">
    <!-- I -->
    <rect x="2" y="2" width="18" height="4"/>
    <rect x="6" y="8" width="10" height="4"/>
    <rect x="6" y="14" width="10" height="4"/>
    <rect x="6" y="20" width="10" height="4"/>
    <rect x="6" y="26" width="10" height="4"/>
    <rect x="2" y="32" width="18" height="4"/>
    
    <!-- B -->
    <rect x="26" y="2" width="26" height="4"/>
    <rect x="26" y="8" width="10" height="4"/>
    <rect x="44" y="8" width="6" height="4"/>
    <rect x="26" y="14" width="24" height="4"/>
    <rect x="26" y="20" width="10" height="4"/>
    <rect x="46" y="20" width="6" height="4"/>
    <rect x="26" y="26" width="10" height="4"/>
    <rect x="44" y="26" width="8" height="4"/>
    <rect x="26" y="32" width="26" height="4"/>
    
    <!-- M -->
    <rect x="58" y="2" width="8" height="4"/>
    <rect x="74" y="2" width="6" height="4"/>
    <rect x="88" y="2" width="8" height="4"/>
    <rect x="58" y="8" width="6" height="4"/>
    <rect x="68" y="8" width="10" height="4"/>
    <rect x="82" y="8" width="6" height="4"/>
    <rect x="92" y="8" width="6" height="4"/>
    <rect x="58" y="14" width="6" height="4"/>
    <rect x="72" y="14" width="4" height="4"/>
    <rect x="82" y="14" width="6" height="4"/>
    <rect x="92" y="14" width="6" height="4"/>
    <rect x="58" y="20" width="10" height="4"/>
    <rect x="80" y="20" width="18" height="4"/>
    <rect x="58" y="26" width="10" height="4"/>
    <rect x="80" y="26" width="18" height="4"/>
    <rect x="58" y="32" width="10" height="4"/>
    <rect x="80" y="32" width="18" height="4"/>
  </g>
</svg>
