<svg width="856" height="262" viewBox="0 0 856 262" fill="none" xmlns="http://www.w3.org/2000/svg">
<g clip-path="url(#clip0_50_25)">
<path d="M4.53711 133.152V54.7657H13.7195L65.5665 119.155H60.7514V54.7657H71.9494V133.152H62.767L10.92 68.7633H15.7352V133.152H4.53711Z" fill="#00283A"/>
<path d="M95.412 133.152V54.7657H106.61V123.41H149.051V133.152H95.412Z" fill="#00283A"/>
<path d="M161.9 133.152V54.7657H192.471C199.339 54.7657 205.2 55.8482 210.052 58.0132C214.905 60.1781 218.637 63.3136 221.25 67.4196C223.863 71.5255 225.169 76.4153 225.169 82.089C225.169 87.7627 223.863 92.6525 221.25 96.7585C218.637 100.79 214.905 103.925 210.052 106.165C205.2 108.33 199.339 109.412 192.471 109.412H168.059L173.098 104.149V133.152H161.9ZM173.098 105.269L168.059 99.67H192.135C199.302 99.67 204.714 98.1396 208.372 95.0788C212.105 92.018 213.971 87.688 213.971 82.089C213.971 76.49 212.105 72.1601 208.372 69.0993C204.714 66.0385 199.302 64.5081 192.135 64.5081H168.059L173.098 58.909V105.269Z" fill="#00283A"/>
<path d="M287.884 86.3443H325.621V100.454H287.884V86.3443ZM289.228 118.595H331.892V133.152H271.199V54.7657H330.436V69.3232H289.228V118.595Z" fill="#00283A"/>
<path d="M370.634 134.048C364.96 134.048 359.846 132.779 355.293 130.241C350.739 127.628 347.118 124.007 344.431 119.379C341.818 114.75 340.511 109.3 340.511 103.029C340.511 96.6838 341.818 91.1968 344.431 86.5682C347.118 81.9397 350.739 78.3563 355.293 75.8181C359.846 73.2799 364.96 72.0108 370.634 72.0108C375.71 72.0108 380.152 73.1306 383.96 75.3702C387.767 77.6098 390.716 81.0065 392.806 85.5604C394.896 90.1143 395.942 95.9373 395.942 103.029C395.942 110.047 394.934 115.87 392.918 120.498C390.902 125.052 387.991 128.449 384.184 130.689C380.451 132.928 375.934 134.048 370.634 134.048ZM373.657 119.714C376.494 119.714 379.07 119.043 381.384 117.699C383.698 116.355 385.527 114.451 386.871 111.988C388.29 109.45 388.999 106.463 388.999 103.029C388.999 99.5207 388.29 96.5345 386.871 94.0709C385.527 91.6074 383.698 89.7037 381.384 88.3599C379.07 87.0162 376.494 86.3443 373.657 86.3443C370.746 86.3443 368.133 87.0162 365.819 88.3599C363.505 89.7037 361.638 91.6074 360.22 94.0709C358.876 96.5345 358.204 99.5207 358.204 103.029C358.204 106.463 358.876 109.45 360.22 111.988C361.638 114.451 363.505 116.355 365.819 117.699C368.133 119.043 370.746 119.714 373.657 119.714ZM389.447 133.152V120.834L389.783 102.917L388.663 85.1125V50.0626H406.132V133.152H389.447Z" fill="#00283A"/>
<path d="M447.719 134.048C442.718 134.048 438.238 133.078 434.282 131.137C430.4 129.196 427.376 126.247 425.211 122.29C423.046 118.259 421.964 113.145 421.964 106.949V72.9066H439.433V104.373C439.433 109.375 440.478 113.07 442.568 115.459C444.733 117.773 447.757 118.931 451.639 118.931C454.326 118.931 456.715 118.371 458.806 117.251C460.896 116.056 462.538 114.265 463.733 111.876C464.927 109.412 465.524 106.351 465.524 102.693V72.9066H482.993V133.152H466.42V116.579L469.444 121.394C467.428 125.575 464.442 128.748 460.485 130.913C456.603 133.003 452.348 134.048 447.719 134.048Z" fill="#00283A"/>
<path d="M528.292 134.048C521.797 134.048 516.012 132.742 510.935 130.129C505.859 127.441 501.865 123.746 498.953 119.043C496.116 114.339 494.698 109.002 494.698 103.029C494.698 96.9824 496.116 91.6447 498.953 87.0162C501.865 82.313 505.859 78.6549 510.935 76.0421C516.012 73.3545 521.797 72.0108 528.292 72.0108C534.638 72.0108 540.162 73.3545 544.865 76.0421C549.568 78.6549 553.04 82.425 555.279 87.3521L541.73 94.6308C540.162 91.794 538.184 89.7037 535.795 88.3599C533.481 87.0162 530.942 86.3443 528.18 86.3443C525.194 86.3443 522.506 87.0162 520.117 88.3599C517.729 89.7037 515.825 91.6074 514.406 94.0709C513.063 96.5345 512.391 99.5207 512.391 103.029C512.391 106.538 513.063 109.524 514.406 111.988C515.825 114.451 517.729 116.355 520.117 117.699C522.506 119.043 525.194 119.714 528.18 119.714C530.942 119.714 533.481 119.08 535.795 117.811C538.184 116.467 540.162 114.339 541.73 111.428L555.279 118.819C553.04 123.671 549.568 127.441 544.865 130.129C540.162 132.742 534.638 134.048 528.292 134.048Z" fill="#00283A"/>
<path d="M602.291 133.152V121.394L601.171 118.819V97.7663C601.171 94.0336 600.014 91.1221 597.7 89.0318C595.46 86.9415 591.989 85.8964 587.286 85.8964C584.076 85.8964 580.903 86.4189 577.767 87.4641C574.707 88.4346 572.094 89.7783 569.929 91.4954L563.658 79.2895C566.943 76.9752 570.899 75.1835 575.528 73.9144C580.156 72.6453 584.86 72.0108 589.637 72.0108C598.82 72.0108 605.949 74.1757 611.026 78.5056C616.102 82.8355 618.64 89.5917 618.64 98.7741V133.152H602.291ZM583.926 134.048C579.223 134.048 575.192 133.264 571.832 131.696C568.473 130.054 565.897 127.852 564.106 125.09C562.314 122.327 561.418 119.229 561.418 115.795C561.418 112.212 562.277 109.076 563.994 106.389C565.785 103.701 568.585 101.611 572.392 100.118C576.2 98.5502 581.164 97.7663 587.286 97.7663H603.299V107.957H589.189C585.083 107.957 582.247 108.628 580.679 109.972C579.186 111.316 578.439 112.996 578.439 115.011C578.439 117.251 579.298 119.043 581.015 120.386C582.807 121.655 585.233 122.29 588.294 122.29C591.205 122.29 593.818 121.618 596.132 120.274C598.446 118.856 600.126 116.803 601.171 114.115L603.859 122.178C602.59 126.06 600.276 129.009 596.916 131.025C593.557 133.04 589.227 134.048 583.926 134.048Z" fill="#00283A"/>
<path d="M659.086 134.048C651.994 134.048 646.47 132.256 642.513 128.673C638.557 125.015 636.578 119.603 636.578 112.436V59.5809H654.047V112.212C654.047 114.75 654.719 116.728 656.063 118.147C657.407 119.491 659.236 120.162 661.55 120.162C664.312 120.162 666.664 119.416 668.605 117.923L673.308 130.241C671.516 131.51 669.351 132.48 666.813 133.152C664.349 133.749 661.774 134.048 659.086 134.048ZM627.284 87.688V74.2504H669.053V87.688H627.284Z" fill="#00283A"/>
<path d="M683.114 133.152V72.9066H700.583V133.152H683.114ZM691.848 64.5081C688.638 64.5081 686.025 63.5749 684.01 61.7085C681.994 59.8422 680.986 57.5279 680.986 54.7657C680.986 52.0036 681.994 49.6893 684.01 47.823C686.025 45.9566 688.638 45.0234 691.848 45.0234C695.059 45.0234 697.672 45.9193 699.687 47.711C701.703 49.428 702.711 51.6676 702.711 54.4298C702.711 57.3413 701.703 59.7676 699.687 61.7085C697.746 63.5749 695.133 64.5081 691.848 64.5081Z" fill="#00283A"/>
<path d="M745.463 134.048C739.042 134.048 733.331 132.704 728.33 130.017C723.403 127.329 719.483 123.671 716.572 119.043C713.735 114.339 712.316 109.002 712.316 103.029C712.316 96.9824 713.735 91.6447 716.572 87.0162C719.483 82.313 723.403 78.6549 728.33 76.0421C733.331 73.3545 739.042 72.0108 745.463 72.0108C751.808 72.0108 757.482 73.3545 762.484 76.0421C767.486 78.6549 771.405 82.2757 774.242 86.9042C777.079 91.5327 778.497 96.9078 778.497 103.029C778.497 109.002 777.079 114.339 774.242 119.043C771.405 123.671 767.486 127.329 762.484 130.017C757.482 132.704 751.808 134.048 745.463 134.048ZM745.463 119.714C748.374 119.714 750.987 119.043 753.301 117.699C755.616 116.355 757.445 114.451 758.788 111.988C760.132 109.45 760.804 106.463 760.804 103.029C760.804 99.5207 760.132 96.5345 758.788 94.0709C757.445 91.6074 755.616 89.7037 753.301 88.3599C750.987 87.0162 748.374 86.3443 745.463 86.3443C742.551 86.3443 739.938 87.0162 737.624 88.3599C735.31 89.7037 733.443 91.6074 732.025 94.0709C730.681 96.5345 730.009 99.5207 730.009 103.029C730.009 106.463 730.681 109.45 732.025 111.988C733.443 114.451 735.31 116.355 737.624 117.699C739.938 119.043 742.551 119.714 745.463 119.714Z" fill="#00283A"/>
<path d="M826.791 72.0108C831.569 72.0108 835.824 72.9813 839.557 74.9223C843.364 76.7886 846.35 79.7001 848.515 83.6567C850.68 87.5387 851.763 92.5405 851.763 98.6621V133.152H834.294V101.35C834.294 96.4972 833.211 92.9138 831.046 90.5995C828.956 88.2853 825.97 87.1281 822.088 87.1281C819.326 87.1281 816.825 87.7254 814.585 88.9198C812.42 90.0396 810.703 91.794 809.434 94.1829C808.24 96.5718 807.643 99.6326 807.643 103.365V133.152H790.174V72.9066H806.859V89.5917L803.723 84.5526C805.888 80.5213 808.986 77.4232 813.018 75.2582C817.049 73.0932 821.64 72.0108 826.791 72.0108Z" fill="#00283A"/>
<path d="M14.2086 189.141C21.8951 189.141 28.1262 195.373 28.1262 203.059C28.1262 210.745 21.8951 216.977 14.2086 216.977C6.52213 216.977 0.291016 210.745 0.291016 203.059C0.291016 195.373 6.52213 189.141 14.2086 189.141Z" fill="#00B2A9"/>
<path d="M101.927 189.141C109.614 189.141 115.845 195.373 115.845 203.059C115.845 210.745 109.614 216.977 101.927 216.977C94.2409 216.977 88.0098 210.745 88.0098 203.059C88.0098 195.373 94.2409 189.141 101.927 189.141Z" fill="#00B2A9"/>
<path d="M189.646 189.141C197.333 189.141 203.564 195.373 203.564 203.059C203.564 210.745 197.333 216.977 189.646 216.977C181.96 216.977 175.729 210.745 175.729 203.059C175.729 195.373 181.96 189.141 189.646 189.141Z" fill="#00B2A9"/>
<path d="M271.131 205.602L855.669 205.602" stroke="#00283A" stroke-width="5.8"/>
</g>
<defs>
<clipPath id="clip0_50_25">
<rect width="855.379" height="262" fill="white" transform="translate(0.291016)"/>
</clipPath>
</defs>
</svg>
