<svg width="766" height="262" viewBox="0 0 766 262" fill="none" xmlns="http://www.w3.org/2000/svg">
<g clip-path="url(#clip0_25_138)">
<path d="M308.961 206.499C308.961 211.454 305.563 213.931 298.765 213.931H297.701C290.903 213.931 287.505 211.454 287.505 206.499V197.597H292.558V206.499C292.558 207.98 293.207 208.932 294.506 209.355C295.2 209.596 296.62 209.718 298.765 209.718C300.472 209.718 301.688 209.537 302.413 209.174C303.396 208.705 303.887 207.814 303.887 206.499V197.597H308.961V206.499Z" fill="#DEC45C"/>
<path d="M330.735 211.823C330.735 213.304 330.062 214.045 328.719 214.045C327.752 214.045 326.83 213.682 325.954 212.957L316.393 204.959V213.93H311.317V199.702C311.317 199.099 311.51 198.599 311.896 198.208C312.281 197.815 312.828 197.618 313.538 197.618C314.459 197.618 315.312 197.943 316.099 198.593L325.66 206.59V197.596H330.735V211.823Z" fill="#DEC45C"/>
<path d="M338.392 213.931H333.338V197.597H338.392V213.931Z" fill="#DEC45C"/>
<path d="M366.509 197.596L355.497 212.345C354.591 213.568 353.669 214.181 352.733 214.181C351.796 214.181 350.875 213.561 349.969 212.322L339.229 197.596H345.528L352.823 207.7L360.164 197.596H366.509Z" fill="#DEC45C"/>
<path d="M384.608 209.718L381.346 213.931H366.868V197.597H384.608L381.346 201.833H371.942V203.555H383.815L380.552 207.768H371.942V209.718H384.608Z" fill="#DEC45C"/>
<path d="M409.621 213.931H402.259L397.319 209.831H390.341V213.931H385.266V205.593H399.358C400.219 205.593 400.929 205.466 401.489 205.209C402.198 204.876 402.553 204.385 402.553 203.735C402.553 202.468 401.489 201.833 399.358 201.833H385.266L388.574 197.597H398.883C401.435 197.597 403.505 198.08 405.09 199.046C406.873 200.149 407.765 201.719 407.765 203.759C407.765 204.907 407.406 205.945 406.688 206.874C405.97 207.803 404.977 208.515 403.709 209.014L409.621 213.931Z" fill="#DEC45C"/>
<path d="M432.012 197.597L428.749 201.833H417.193C416.574 201.833 416.264 202.052 416.264 202.491C416.264 202.927 416.574 203.147 417.193 203.147H425.509C427.488 203.147 429.141 203.63 430.471 204.596C431.844 205.624 432.532 206.953 432.532 208.585C432.532 210.201 431.837 211.507 430.448 212.504C429.149 213.456 427.503 213.931 425.509 213.931H410.556L413.818 209.718H425.509C426.037 209.718 426.513 209.627 426.936 209.446C427.48 209.218 427.752 208.91 427.752 208.515C427.752 208.109 427.48 207.798 426.936 207.588C426.529 207.436 426.053 207.362 425.509 207.362H417.193C415.35 207.362 413.81 206.937 412.572 206.092C411.242 205.186 410.577 203.985 410.577 202.491C410.577 200.981 411.242 199.771 412.572 198.864C413.81 198.02 415.35 197.597 417.193 197.597H432.012Z" fill="#DEC45C"/>
<path d="M440.911 213.931L443.97 209.695H450.789L446.553 203.826L439.189 213.931H432.914L443.381 199.408C443.713 198.926 444.174 198.503 444.764 198.14C445.412 197.747 446.039 197.551 446.644 197.551C447.262 197.551 447.89 197.747 448.523 198.14C449.083 198.488 449.536 198.91 449.883 199.408L460.102 213.931H440.911Z" fill="#DEC45C"/>
<path d="M477.847 209.718L474.56 213.931H460.128V197.597H465.182V209.718H477.847Z" fill="#DEC45C"/>
<path d="M502.336 207.972H493.297V209.694H502.336C502.864 209.694 503.363 209.64 503.832 209.536C504.527 209.384 504.874 209.149 504.874 208.833C504.874 208.515 504.527 208.282 503.832 208.13C503.363 208.025 502.864 207.972 502.336 207.972ZM508.477 205.842C509.442 206.718 509.927 207.699 509.927 208.787C509.927 209.588 509.662 210.343 509.133 211.053C508.424 212.02 507.366 212.752 505.962 213.251C504.722 213.689 503.349 213.908 501.838 213.908H488.221V203.734H502.336C502.759 203.734 503.152 203.675 503.514 203.554C504.013 203.372 504.262 203.108 504.262 202.761C504.262 202.414 504.013 202.156 503.514 201.991C503.152 201.87 502.759 201.809 502.336 201.809H488.221L491.642 197.573H501.838C503.363 197.573 504.746 197.799 505.984 198.252C507.373 198.765 508.424 199.513 509.133 200.495C509.662 201.22 509.927 201.991 509.927 202.806C509.927 203.924 509.442 204.936 508.477 205.842Z" fill="#DEC45C"/>
<path d="M528.959 209.718L525.697 213.931H511.219V197.597H528.959L525.697 201.833H516.294V203.555H528.166L524.904 207.768H516.294V209.718H528.959Z" fill="#DEC45C"/>
<path d="M536.841 213.931L539.901 209.695H546.72L542.484 203.826L535.12 213.931H528.844L539.311 199.408C539.643 198.926 540.104 198.503 540.694 198.14C541.344 197.747 541.97 197.551 542.573 197.551C543.193 197.551 543.82 197.747 544.454 198.14C545.013 198.488 545.466 198.91 545.813 199.408L556.033 213.931H536.841Z" fill="#DEC45C"/>
<path d="M576.79 211.823C576.79 213.304 576.118 214.045 574.774 214.045C573.807 214.045 572.885 213.682 572.009 212.957L562.448 204.959V213.93H557.372V199.702C557.372 199.099 557.566 198.599 557.951 198.208C558.337 197.815 558.882 197.618 559.594 197.618C560.514 197.618 561.367 197.943 562.154 198.593L571.715 206.59V197.596H576.79V211.823Z" fill="#DEC45C"/>
<path d="M608.71 209.718L605.447 213.931H597.245C594.405 213.931 592.052 213.142 590.188 211.563C588.322 209.985 587.389 208.003 587.389 205.617C587.389 203.231 588.31 201.297 590.153 199.817C591.997 198.336 594.36 197.597 597.245 197.597H608.71L605.447 201.833H597.245C595.856 201.833 594.707 202.206 593.801 202.954C592.896 203.702 592.442 204.658 592.442 205.82C592.442 206.969 592.896 207.905 593.801 208.63C594.707 209.355 595.856 209.718 597.245 209.718H608.71Z" fill="#DEC45C"/>
<path d="M624.774 201.833H619.859C618.454 201.833 617.298 202.206 616.392 202.954C615.486 203.702 615.031 204.658 615.031 205.82C615.031 206.983 615.486 207.924 616.392 208.642C617.298 209.359 618.454 209.718 619.859 209.718H624.774C626.179 209.718 627.335 209.359 628.241 208.642C629.147 207.924 629.6 206.983 629.6 205.82C629.6 204.658 629.144 203.702 628.231 202.954C627.316 202.206 626.164 201.833 624.774 201.833ZM634.631 205.617C634.631 208.003 633.697 209.985 631.833 211.563C629.967 213.142 627.615 213.931 624.774 213.931H619.859C617.003 213.931 614.643 213.142 612.777 211.563C610.913 209.985 609.98 208.003 609.98 205.617C609.98 203.231 610.905 201.297 612.756 199.817C614.605 198.336 616.973 197.597 619.859 197.597H624.774C627.66 197.597 630.024 198.336 631.867 199.817C633.709 201.297 634.631 203.231 634.631 205.617Z" fill="#DEC45C"/>
<path d="M657.925 206.499C657.925 211.454 654.526 213.931 647.729 213.931H646.665C639.866 213.931 636.468 211.454 636.468 206.499V197.597H641.521V206.499C641.521 207.98 642.17 208.932 643.469 209.355C644.163 209.596 645.584 209.718 647.729 209.718C649.435 209.718 650.652 209.537 651.376 209.174C652.358 208.705 652.848 207.814 652.848 206.499V197.597H657.925V206.499Z" fill="#DEC45C"/>
<path d="M679.698 211.823C679.698 213.304 679.025 214.045 677.681 214.045C676.715 214.045 675.792 213.682 674.917 212.957L665.356 204.959V213.93H660.28V199.702C660.28 199.099 660.473 198.599 660.859 198.208C661.243 197.815 661.79 197.618 662.501 197.618C663.422 197.618 664.276 197.943 665.06 198.593L674.622 206.59V197.596H679.698V211.823Z" fill="#DEC45C"/>
<path d="M700.627 197.597L697.343 201.833H692.448V213.931H687.373V201.833H680.644L683.906 197.597H700.627Z" fill="#DEC45C"/>
<path d="M718.731 209.718L715.469 213.931H700.991V197.597H718.731L715.469 201.833H706.066V203.555H717.938L714.675 207.768H706.066V209.718H718.731Z" fill="#DEC45C"/>
<path d="M743.745 213.931H736.383L731.442 209.831H724.464V213.931H719.389V205.593H733.482C734.343 205.593 735.053 205.466 735.612 205.209C736.321 204.876 736.676 204.385 736.676 203.735C736.676 202.468 735.612 201.833 733.482 201.833H719.389L722.697 197.597H733.006C735.559 197.597 737.628 198.08 739.215 199.046C740.996 200.149 741.888 201.719 741.888 203.759C741.888 204.907 741.528 205.945 740.811 206.874C740.094 207.803 739.101 208.515 737.832 209.014L743.745 213.931Z" fill="#DEC45C"/>
<path d="M766.129 197.597L762.867 201.833H751.312C750.692 201.833 750.383 202.052 750.383 202.491C750.383 202.927 750.692 203.147 751.312 203.147H759.627C761.605 203.147 763.259 203.63 764.589 204.596C765.963 205.624 766.65 206.953 766.65 208.585C766.65 210.201 765.955 211.507 764.565 212.504C763.266 213.456 761.62 213.931 759.627 213.931H744.673L747.935 209.718H759.627C760.155 209.718 760.632 209.627 761.053 209.446C761.598 209.218 761.869 208.91 761.869 208.515C761.869 208.109 761.598 207.798 761.053 207.588C760.646 207.436 760.171 207.362 759.627 207.362H751.312C749.468 207.362 747.927 206.937 746.689 206.092C745.36 205.186 744.696 203.985 744.696 202.491C744.696 200.981 745.36 199.771 746.689 198.864C747.927 198.02 749.468 197.597 751.312 197.597H766.129Z" fill="#DEC45C"/>
<path d="M403.674 71.2781V134.424C403.674 143.74 400.197 150.065 393.232 153.38C388.093 155.954 379.468 157.236 367.365 157.236C352.153 157.236 342.082 156.384 337.157 154.671C327.938 151.667 323.332 144.926 323.332 134.424V24.6652L316.532 35.5032C310.24 45.5312 303.955 55.5764 297.679 65.613C294.289 71.0358 290.896 76.4597 287.505 81.8738V134.424C287.505 169.554 311.608 187.123 359.815 187.123H367.365C415.571 187.123 439.667 169.554 439.667 134.424V71.2781H403.674Z" fill="#DEC45C"/>
<path d="M554.557 144.868H490.445V157.08H554.557C558.306 157.08 561.84 156.706 565.162 155.955C570.089 154.886 572.554 153.223 572.554 150.974C572.554 148.724 570.089 147.065 565.162 145.993C561.84 145.244 558.306 144.868 554.557 144.868ZM598.102 129.765C604.956 135.978 608.385 142.94 608.385 150.652C608.385 156.33 606.51 161.686 602.762 166.72C597.725 173.576 590.229 178.77 580.266 182.305C571.482 185.413 561.732 186.965 551.022 186.965H454.453V114.821H554.557C557.555 114.821 560.341 114.395 562.913 113.536C566.448 112.251 568.215 110.378 568.215 107.912C568.215 105.451 566.448 103.631 562.913 102.45C560.341 101.594 557.555 101.165 554.557 101.165H454.453L478.715 71.1187H551.022C561.84 71.1187 571.642 72.7258 580.426 75.9391C590.282 79.5827 597.725 84.8844 602.762 91.8462C606.51 96.9878 608.385 102.45 608.385 108.235C608.385 116.162 604.956 123.338 598.102 129.765Z" fill="#DEC45C"/>
<path d="M766.652 157.24L743.515 187.125H685.349C665.208 187.125 648.524 181.529 635.296 170.335C622.064 159.143 615.452 145.085 615.452 128.159C615.452 111.235 621.984 97.5255 635.055 87.0259C648.123 76.5297 664.886 71.2799 685.349 71.2799H766.652L743.515 101.325H685.349C675.492 101.325 667.351 103.977 660.924 109.278C654.497 114.581 651.284 121.357 651.284 129.604C651.284 137.747 654.497 144.386 660.924 149.528C667.351 154.669 675.492 157.24 685.349 157.24H766.652Z" fill="#DEC45C"/>
<path d="M740.667 223.792H738.082C737.342 223.792 736.735 223.989 736.258 224.382C735.782 224.775 735.543 225.277 735.543 225.889C735.543 226.5 735.782 226.995 736.258 227.372C736.735 227.749 737.342 227.938 738.082 227.938H740.667C741.406 227.938 742.012 227.749 742.489 227.372C742.966 226.995 743.203 226.5 743.203 225.889C743.203 225.277 742.964 224.775 742.483 224.382C742.003 223.989 741.397 223.792 740.667 223.792Z" fill="#DEC45C"/>
<path d="M352.042 227.104C351.797 227.048 351.534 227.02 351.257 227.02H346.503V227.927H351.257C351.534 227.927 351.797 227.898 352.042 227.841C352.408 227.763 352.591 227.64 352.591 227.473C352.591 227.306 352.408 227.184 352.042 227.104Z" fill="#DEC45C"/>
<path d="M763.065 229.045C763.065 229.823 762.711 230.214 762.005 230.214C761.496 230.214 761.012 230.022 760.551 229.642L755.523 225.436V230.154H752.855V222.672C752.855 222.355 752.957 222.093 753.159 221.887C753.362 221.68 753.65 221.576 754.022 221.576C754.508 221.576 754.956 221.747 755.369 222.088L760.397 226.294V221.564H763.065V229.045ZM744.377 228.909C743.398 229.739 742.161 230.154 740.668 230.154H738.083C736.581 230.154 735.34 229.739 734.36 228.909C733.378 228.08 732.887 227.036 732.887 225.781C732.887 224.527 733.375 223.51 734.347 222.731C735.319 221.954 736.565 221.564 738.083 221.564H740.668C742.185 221.564 743.427 221.954 744.396 222.731C745.365 223.51 745.851 224.527 745.851 225.781C745.851 227.036 745.36 228.08 744.377 228.909ZM725.918 230.154H723.262V221.564H725.918V230.154ZM715.185 229.403C714.501 229.904 713.636 230.154 712.587 230.154H704.725L706.441 227.938H712.587C712.867 227.938 713.116 227.89 713.338 227.795C713.624 227.676 713.768 227.513 713.768 227.306C713.768 227.092 713.624 226.93 713.338 226.817C713.124 226.738 712.873 226.699 712.587 226.699H708.216C707.246 226.699 706.435 226.477 705.785 226.032C705.087 225.554 704.737 224.924 704.737 224.138C704.737 223.343 705.087 222.707 705.785 222.232C706.435 221.787 707.246 221.564 708.216 221.564H716.006L714.291 223.792H708.216C707.889 223.792 707.727 223.908 707.727 224.138C707.727 224.369 707.889 224.482 708.216 224.482H712.587C713.629 224.482 714.496 224.737 715.197 225.246C715.92 225.786 716.281 226.484 716.281 227.343C716.281 228.192 715.916 228.879 715.185 229.403ZM697.946 230.154H695.29V221.564H697.946V230.154ZM680.743 227.366C681.22 227.748 681.824 227.938 682.554 227.938H688.582L686.866 230.154H682.554C681.061 230.154 679.825 229.739 678.844 228.909C677.862 228.08 677.372 227.036 677.372 225.781C677.372 224.527 677.857 223.51 678.826 222.731C679.795 221.954 681.038 221.564 682.554 221.564H688.582L686.866 223.792H682.554C681.824 223.792 681.22 223.989 680.743 224.382C680.268 224.775 680.029 225.277 680.029 225.89C680.029 226.492 680.268 226.985 680.743 227.366ZM670.951 224.698L669.235 226.912H664.708V227.938H671.367L669.652 230.154H662.04V221.564H671.367L669.652 223.792H664.708V224.698H670.951ZM651.33 230.154L648.733 227.997H645.063V230.154H642.394V225.77H649.805C650.258 225.77 650.632 225.702 650.925 225.567C651.298 225.393 651.485 225.135 651.485 224.793C651.485 224.125 650.925 223.792 649.805 223.792H642.394L644.134 221.564H649.555C650.897 221.564 651.985 221.819 652.819 222.327C653.756 222.906 654.225 223.733 654.225 224.805C654.225 225.408 654.036 225.954 653.658 226.442C653.282 226.932 652.76 227.306 652.092 227.569L655.202 230.154H651.33ZM634.842 227.14C634.04 227.711 633.047 227.997 631.863 227.997H627.373V230.154H624.716V225.77H632.125C632.491 225.77 632.799 225.677 633.049 225.496C633.299 225.314 633.423 225.072 633.423 224.769C633.423 224.467 633.299 224.23 633.049 224.054C632.799 223.88 632.491 223.792 632.125 223.792H624.716L626.478 221.564H631.875C633.051 221.564 634.04 221.85 634.842 222.423C635.675 223.026 636.092 223.813 636.092 224.781C636.092 225.751 635.675 226.536 634.842 227.14ZM605.999 230.154H598.411V221.564H601.067V227.938H607.727L605.999 230.154ZM582.353 230.154L583.96 227.927H587.545L585.318 224.841L581.447 230.154H578.146L583.651 222.518C583.825 222.263 584.068 222.041 584.377 221.85C584.719 221.645 585.048 221.539 585.366 221.539C585.693 221.539 586.021 221.645 586.355 221.85C586.648 222.033 586.887 222.255 587.069 222.518L592.443 230.154H582.353ZM564.422 227.366C564.899 227.748 565.504 227.938 566.233 227.938H572.262L570.546 230.154H566.233C564.74 230.154 563.504 229.739 562.524 228.909C561.541 228.08 561.051 227.036 561.051 225.781C561.051 224.527 561.536 223.51 562.505 222.731C563.475 221.954 564.716 221.564 566.233 221.564H572.262L570.546 223.792H566.233C565.504 223.792 564.899 223.989 564.422 224.382C563.946 224.775 563.707 225.277 563.707 225.89C563.707 226.492 563.946 226.985 564.422 227.366ZM553.217 228.909C552.237 229.739 551 230.154 549.506 230.154H546.922C545.421 230.154 544.179 229.739 543.198 228.909C542.217 228.08 541.727 227.036 541.727 225.781C541.727 224.527 542.213 223.51 543.186 222.731C544.159 221.954 545.404 221.564 546.922 221.564H549.506C551.025 221.564 552.266 221.954 553.235 222.731C554.204 223.51 554.689 224.527 554.689 225.781C554.689 227.036 554.198 228.08 553.217 228.909ZM533.675 230.154H526.085V221.564H528.742V227.938H535.401L533.675 230.154ZM508.169 230.833H506.107V227.592H508.884L508.169 230.833ZM498.006 223.792H495.432V230.154H492.765V223.792H489.226L490.941 221.564H499.734L498.006 223.792ZM482.768 229.045C482.768 229.823 482.414 230.214 481.709 230.214C481.2 230.214 480.716 230.022 480.255 229.642L475.227 225.436V230.154H472.559V222.672C472.559 222.355 472.66 222.093 472.862 221.887C473.066 221.68 473.353 221.576 473.726 221.576C474.21 221.576 474.659 221.747 475.072 222.088L480.101 226.294V221.564H482.768V229.045ZM465.495 224.698L463.78 226.912H459.252V227.938H465.911L464.196 230.154H456.584V221.564H465.911L464.196 223.792H459.252V224.698H465.495ZM448.709 230.154H441.12V221.564H443.777V227.938H450.436L448.709 230.154ZM425.061 230.154L426.669 227.927H430.256L428.028 224.841L424.156 230.154H420.856L426.36 222.518C426.534 222.263 426.776 222.041 427.087 221.85C427.427 221.645 427.757 221.539 428.075 221.539C428.401 221.539 428.73 221.645 429.064 221.85C429.358 222.033 429.595 222.255 429.779 222.518L435.152 230.154H425.061ZM416.697 223.792H414.125V230.154H411.456V223.792H407.918L409.633 221.564H418.425L416.697 223.792ZM389.476 230.154H381.886V221.564H384.543V227.938H391.203L389.476 230.154ZM365.828 230.154L367.436 227.927H371.022L368.795 224.841L364.923 230.154H361.623L367.127 222.518C367.301 222.263 367.543 222.041 367.854 221.85C368.194 221.645 368.524 221.539 368.842 221.539C369.168 221.539 369.497 221.645 369.831 221.85C370.125 222.033 370.363 222.255 370.546 222.518L375.918 230.154H365.828ZM355.249 227.449C355.249 227.871 355.11 228.267 354.833 228.641C354.459 229.149 353.902 229.534 353.165 229.796C352.513 230.027 351.79 230.141 350.996 230.141H343.836V224.793H351.259C351.481 224.793 351.687 224.762 351.878 224.698C352.139 224.601 352.271 224.463 352.271 224.28C352.271 224.098 352.139 223.963 351.878 223.876C351.687 223.813 351.481 223.781 351.259 223.781H343.836L345.635 221.553H350.996C351.799 221.553 352.524 221.67 353.176 221.91C353.907 222.18 354.459 222.572 354.833 223.089C355.11 223.47 355.249 223.876 355.249 224.305C355.249 224.892 354.995 225.423 354.486 225.901C354.995 226.361 355.249 226.878 355.249 227.449ZM335.502 228.909C334.521 229.739 333.285 230.154 331.792 230.154H329.207C327.705 230.154 326.465 229.739 325.484 228.909C324.503 228.08 324.013 227.036 324.013 225.781C324.013 224.527 324.498 223.51 325.472 222.731C326.444 221.954 327.69 221.564 329.207 221.564H331.792C333.308 221.564 334.552 221.954 335.521 222.731C336.49 223.51 336.973 224.527 336.973 225.781C336.973 227.036 336.483 228.08 335.502 228.909ZM315.958 230.154H308.37V221.564H311.026V227.938H317.685L315.958 230.154ZM294.455 227.372C294.932 227.75 295.539 227.938 296.279 227.938H299.375V227.14H296.04L294.289 225.019H302.045V230.154H296.279C294.785 230.154 293.548 229.739 292.567 228.909C291.587 228.08 291.096 227.036 291.096 225.781C291.096 224.527 291.58 223.51 292.549 222.731C293.519 221.954 294.761 221.564 296.279 221.564H302.306L300.591 223.792H296.279C295.548 223.792 294.942 223.989 294.461 224.382C293.98 224.775 293.74 225.277 293.74 225.89C293.74 226.501 293.979 226.995 294.455 227.372ZM287.505 220.175V232.199H766.655V220.175H287.505Z" fill="#DEC45C"/>
<path d="M331.791 223.792H329.206C328.467 223.792 327.859 223.989 327.382 224.382C326.906 224.775 326.668 225.277 326.668 225.889C326.668 226.5 326.906 226.995 327.382 227.372C327.859 227.749 328.467 227.938 329.206 227.938H331.791C332.53 227.938 333.137 227.749 333.613 227.372C334.09 226.995 334.328 226.5 334.328 225.889C334.328 225.277 334.088 224.775 333.608 224.382C333.127 223.989 332.522 223.792 331.791 223.792Z" fill="#DEC45C"/>
<path d="M549.504 223.792H546.92C546.181 223.792 545.574 223.989 545.097 224.382C544.621 224.775 544.382 225.277 544.382 225.889C544.382 226.5 544.621 226.995 545.097 227.372C545.574 227.749 546.181 227.938 546.92 227.938H549.504C550.244 227.938 550.851 227.749 551.328 227.372C551.804 226.995 552.042 226.5 552.042 225.889C552.042 225.277 551.802 224.775 551.321 224.382C550.841 223.989 550.235 223.792 549.504 223.792Z" fill="#DEC45C"/>
<path d="M183.643 108.241C181.079 109.925 178.851 111.383 177.08 112.53C169.146 117.639 161.137 122.611 153.076 127.437C153.058 95.4416 153.076 82.6114 153.076 45.3504C163.266 45.3851 173.475 45.2693 183.678 45.4089C183.614 75.9978 183.643 84.1742 183.643 108.241Z" fill="#DEC45C"/>
<path d="M138.2 136.151C128.049 141.966 117.835 147.539 107.603 152.847C107.597 127.182 107.603 121.239 107.603 90.5224C117.8 90.5105 127.997 90.5159 138.193 90.5159C138.205 115.434 138.193 117.505 138.2 136.151Z" fill="#DEC45C"/>
<path d="M92.6847 160.37C81.8164 165.653 71.8975 170.236 62.1404 174.13C62.1523 149.699 62.1345 150.446 62.1404 123.358C72.3023 123.34 82.4595 123.375 92.6272 123.34C92.7543 145.798 92.6678 141.273 92.6847 160.37Z" fill="#DEC45C"/>
<path d="M309.24 30.9285C296.643 50.9985 284.113 71.0988 271.516 91.1687C269.164 87.59 266.812 84.0231 264.484 80.427C239.416 101.527 181.849 139.53 153.436 155.788C124.448 172.245 94.3649 186.922 63.0196 198.358C49.842 202.996 36.4317 207.256 22.5662 209.214C16.211 209.901 8.96993 210.895 3.32117 207.227C-1.11333 203.804 1.0228 197.491 3.28527 193.41C9.95772 181.717 19.8433 172.353 29.5082 163.149C29.7951 162.873 30.0823 162.604 30.3701 162.329C30.3097 163.712 30.2501 165.1 30.196 166.488C30.1724 166.518 30.1483 166.553 30.1242 166.584C25.6602 172.328 20.2328 177.971 18.7363 185.319C17.9344 188.712 21.2443 191.171 24.3314 191.171C31.4467 191.596 38.3945 189.412 45.1511 187.425C63.277 181.537 80.5713 173.453 97.6443 165.064C126.525 150.643 154.572 134.581 181.717 117.103C196.522 107.516 241.259 77.7285 255.131 66.8256C251.475 63.6903 247.777 60.5971 244.096 57.4909C265.831 48.6829 287.518 39.7668 309.24 30.9285Z" fill="#DEC45C"/>
<path d="M237.792 208.8C237.167 208.435 236.495 208.058 235.737 207.637L235.731 207.63C228.11 203.447 219.539 199.864 210.234 196.983C214.476 181.879 216.791 165.577 217.12 148.473H259.476C258.487 170.404 251.009 191.202 237.792 208.8ZM182.751 247.629C188.491 242.068 193.734 235.013 198.37 226.571C201.97 220.025 205.118 212.787 207.745 205.032C216.454 207.723 224.504 211.079 231.686 215.025C231.935 215.159 232.172 215.292 232.398 215.419C218.984 230.674 201.947 241.715 182.751 247.629ZM160.291 252.027L160.077 252.096C158.335 252.646 156.564 253.045 154.793 253.288V197.278C170.488 197.376 185.558 199.222 199.62 202.763C197.172 209.899 194.278 216.542 190.997 222.514C182.421 238.121 171.807 248.317 160.291 252.027ZM150.586 260.556C150.442 260.556 150.308 260.556 150.157 260.551H151.014C150.864 260.556 150.731 260.556 150.586 260.556ZM146.518 260.475C147.582 260.511 148.653 260.539 149.729 260.545C148.653 260.539 147.582 260.521 146.518 260.475ZM146.366 253.288C144.578 253.039 142.803 252.64 141.06 252.084C129.469 248.433 118.786 238.207 110.174 222.514C107.102 216.912 104.364 210.744 102.033 204.164C115.77 200.206 130.666 197.931 146.366 197.387V253.288ZM70.7473 217.607C72.2053 216.704 73.6984 215.836 75.1915 215.02C80.8977 211.878 87.2169 209.089 93.9938 206.722C96.5055 213.851 99.4566 220.523 102.785 226.571C107.425 235.007 112.663 242.062 118.41 247.623C100.204 242.003 83.8551 231.72 70.7473 217.607ZM268.289 141.528V141.458C267.902 125.128 264.221 109.388 257.358 94.6718C255.552 96.0843 253.66 97.5357 251.698 99.0174C251.692 99.0228 251.686 99.0293 251.675 99.0347C251.287 99.3246 250.899 99.6198 250.506 99.9151C250.87 100.736 251.2 101.523 251.525 102.322L251.57 102.437C256.547 114.399 259.32 127.043 259.812 140.046H217.12C217.016 134.688 216.715 129.37 216.212 124.214C213.549 126.014 210.87 127.813 208.202 129.589C208.219 129.734 208.225 129.884 208.237 130.035C208.341 131.389 208.417 132.72 208.474 133.855C208.492 134.138 208.503 134.416 208.514 134.699L208.555 135.734C208.585 136.476 208.619 137.216 208.636 137.986C208.659 138.652 208.683 139.335 208.694 140.046H192.259C187.687 142.991 183.237 145.822 179.006 148.473H208.694C208.364 164.826 206.153 180.363 202.12 194.709C187.242 190.924 171.333 188.95 154.793 188.846V163.014C151.964 164.611 149.157 166.168 146.366 167.696V188.974C129.828 189.506 114.064 191.92 99.4566 196.15C99.3176 195.675 99.185 195.188 99.0459 194.691C98.8144 193.904 98.5892 193.071 98.3632 192.186C98.2994 191.96 98.2415 191.734 98.1836 191.509C95.5735 192.654 92.9692 193.771 90.3708 194.858C90.4524 195.188 90.539 195.513 90.6256 195.837C90.863 196.716 91.1233 197.647 91.4304 198.701C84.1386 201.236 77.3153 204.239 71.1232 207.637C69.1038 208.741 67.1125 209.922 65.1915 211.148C63.8314 209.43 62.5234 207.682 61.2965 205.924C58.189 206.965 55.0237 207.977 51.8115 208.932C66.933 231.674 89.5199 248.607 115.475 256.644L115.627 256.696C115.8 256.754 115.979 256.807 116.159 256.864C116.344 256.917 116.529 256.974 116.737 257.043L117.223 257.183C117.437 257.247 117.651 257.305 117.877 257.373C118.432 257.536 118.976 257.692 119.532 257.837C119.625 257.86 119.712 257.889 119.798 257.912L120.221 258.029C120.285 258.045 120.342 258.062 120.401 258.074C121.002 258.23 121.603 258.386 122.194 258.53C122.472 258.601 122.755 258.675 123.033 258.734C123.652 258.889 124.284 259.034 124.897 259.167L125.152 259.226C125.898 259.393 126.645 259.55 127.396 259.699C128.427 259.908 129.481 260.105 130.545 260.29C131.187 260.394 131.842 260.505 132.49 260.602C135.51 261.072 138.583 261.424 141.621 261.656C142.518 261.726 143.497 261.789 144.81 261.859L146.466 261.922C147.629 261.962 148.694 261.986 149.665 261.992C149.833 261.998 150.013 262.003 150.187 261.998H151.13C151.245 261.998 151.361 261.998 151.477 261.992C152.588 261.986 153.793 261.957 155.157 261.91C156.252 261.863 157.235 261.818 158.149 261.754C158.712 261.72 159.266 261.68 159.834 261.637L159.973 261.628C160.534 261.581 161.101 261.535 161.657 261.476C162.861 261.367 163.849 261.257 164.764 261.146C165.32 261.083 165.869 261.013 166.408 260.939C167.298 260.823 168.242 260.678 169.388 260.499C169.84 260.428 170.296 260.348 170.737 260.267C171.616 260.116 172.49 259.955 173.369 259.781C199.788 254.578 223.867 240.228 241.177 219.372C242.265 218.081 243.376 216.68 244.678 214.967C259.551 195.223 267.71 171.74 268.289 147.06V146.962C268.308 146.064 268.325 145.167 268.325 144.271C268.325 143.356 268.308 142.442 268.289 141.528Z" fill="#DEC45C"/>
<path d="M309.24 30.9285C296.643 50.9985 284.113 71.0988 271.516 91.1687C269.164 87.5899 266.812 84.0231 264.484 80.427C239.416 101.527 181.849 139.53 153.436 155.788C124.448 172.245 94.3649 186.922 63.0196 198.358C49.842 202.996 36.4317 207.256 22.5662 209.214C16.211 209.901 8.96993 210.895 3.32117 207.227C-1.11333 203.804 1.0228 197.491 3.28527 193.41C9.95772 181.717 19.8433 172.353 29.5082 163.149C29.5741 163.562 29.6459 163.975 29.7177 164.382C29.7714 164.716 29.831 165.052 29.897 165.381C29.9688 165.782 30.0464 166.183 30.1242 166.584C25.6602 172.328 20.2328 177.971 18.7363 185.319C17.9344 188.712 21.2443 191.171 24.3314 191.171C31.4467 191.596 38.3945 189.412 45.1511 187.425C63.277 181.537 80.5713 173.453 97.6443 165.064C126.525 150.643 154.572 134.581 181.717 117.103C196.522 107.516 241.259 77.7285 255.131 66.8256C251.475 63.6903 247.777 60.5971 244.096 57.4909C265.831 48.683 287.518 39.7668 309.24 30.9285Z" fill="#DEC45C"/>
<path d="M133.79 29.2344L128.847 36.6407C79.1127 46.7508 41.572 90.8059 41.572 143.472C41.572 144.212 41.5779 144.959 41.5952 145.723C41.618 146.626 41.6472 147.557 41.6937 148.524C41.7392 149.56 41.7975 150.612 41.8783 151.678C41.9366 152.424 42.0003 153.176 42.0697 153.929C42.9087 162.666 44.7893 171.237 47.677 179.419C47.3593 179.529 47.0348 179.633 46.7167 179.737L45.8138 180.003C43.3139 180.745 40.8719 181.468 38.4873 182.023C37.6715 179.662 36.9246 177.255 36.2591 174.818C36.0394 174.015 35.8252 173.21 35.6229 172.4C35.4724 171.804 35.3275 171.201 35.1889 170.6C35.1256 170.34 35.0613 170.084 35.0034 169.825C34.905 169.407 34.8124 168.991 34.7255 168.569C34.6679 168.303 34.6096 168.037 34.5522 167.77C34.4478 167.255 34.3435 166.74 34.2396 166.22C34.1639 165.832 34.0892 165.443 34.0198 165.056C33.956 164.738 33.8977 164.414 33.8463 164.089C33.7765 163.697 33.7073 163.298 33.6435 162.899C33.5277 162.215 33.4178 161.526 33.3198 160.844C33.2268 160.253 33.1457 159.663 33.0705 159.068C33.0072 158.599 32.9429 158.129 32.8973 157.661C32.7702 156.666 32.6654 155.664 32.5728 154.668L32.5674 154.6C32.5614 154.519 32.5496 154.431 32.5441 154.35C32.2146 150.785 32.0464 147.123 32.0464 143.472C32.0464 82.6814 78.0481 32.4281 137.07 25.7042C135.849 26.6711 134.721 27.8338 133.79 29.2344Z" fill="#DEC45C"/>
<path d="M242.5 68.2436L234.427 73.874C216.893 52.7928 192.5 39.2867 165.85 35.5305C165.711 34.9638 165.497 34.4198 165.203 33.9049C164.571 32.8277 163.384 31.5786 161.18 31.1157C161.764 29.6167 162.407 27.7651 163.025 25.5837C188.79 28.2799 212.806 39.3148 231.673 57.0746L242.5 68.2436Z" fill="#DEC45C"/>
<path d="M93.4356 107.821C94.4935 105.999 115.464 70.0943 116.255 87.8487C116.255 87.8487 123.41 75.1937 112.203 77.5925C112.203 77.5925 117.785 67.7008 118.088 51.9343C118.104 51.3329 118.109 50.7273 118.099 50.1108C118.104 49.9724 118.099 49.8285 118.099 49.6847C118.043 49.8696 117.985 50.0546 117.925 50.2395C117.755 50.7889 117.576 51.3329 117.385 51.8726C116.543 54.3071 115.531 56.6952 114.401 58.9902C113.189 61.4506 111.925 64.0442 109.902 65.9498C108.926 66.8637 107.74 67.5938 106.394 67.7679C105.315 67.9063 104.257 67.968 103.189 68.1832C99.0953 69.0008 94.8995 70.8492 92.5107 74.4236C92.5107 74.4236 118.294 62.0725 93.4356 107.821Z" fill="#DEC45C"/>
<path d="M104.636 65.1602C107.43 65.1602 109.695 62.8954 109.695 60.1018C109.695 57.3072 107.43 55.0424 104.636 55.0424C101.842 55.0424 99.5762 57.3072 99.5762 60.1018C99.5762 62.8954 101.842 65.1602 104.636 65.1602Z" fill="#DEC45C"/>
<path d="M116.509 50.0029L118.224 48.7559L119.939 50.0029L119.287 47.9848L121.002 46.7367H118.882L118.527 45.6584L118.224 44.724L117.91 45.6887L117.566 46.7367H115.445L117.165 47.9848L116.509 50.0029Z" fill="#DEC45C"/>
<path d="M160.85 44.7829C160.85 44.7829 168.279 31.6412 156.641 34.1331C156.641 34.1331 162.439 23.8607 162.753 7.4874C162.77 6.86335 162.775 6.23499 162.764 5.59472C162.77 5.45087 162.764 5.30161 162.764 5.15128C162.706 5.34379 162.647 5.53631 162.584 5.72775C162.407 6.29879 162.22 6.86335 162.023 7.42358C161.148 9.9522 160.098 12.4322 158.925 14.8159C157.666 17.3693 156.354 20.0634 154.252 22.0416C153.239 22.9912 152.007 23.7482 150.609 23.9299C149.49 24.0738 148.391 24.1376 147.281 24.3614C143.031 25.2104 138.673 27.1302 136.193 30.842C136.193 30.842 162.968 18.015 137.153 65.5234C138.252 63.6297 160.028 26.3461 160.85 44.7829Z" fill="#DEC45C"/>
<path d="M148.786 21.2217C151.686 21.2217 154.039 18.8693 154.039 15.9687C154.039 13.0658 151.686 10.7146 148.786 10.7146C145.884 10.7146 143.531 13.0658 143.531 15.9687C143.531 18.8693 145.884 21.2217 148.786 21.2217Z" fill="#DEC45C"/>
<path d="M161.109 5.48242L162.89 4.18675L164.671 5.48242L163.994 3.38643L165.776 2.09075H163.574L163.205 0.970277L162.89 0.000146866L162.564 1.00273L162.207 2.09075H160.005L161.792 3.38643L161.109 5.48242Z" fill="#DEC45C"/>
<path d="M70.3316 122.576C70.3316 122.576 76.5008 111.664 66.8376 113.732C66.8376 113.732 71.651 105.202 71.9125 91.607C71.9256 91.0889 71.9307 90.5666 71.9214 90.0355C71.9256 89.9155 71.9214 89.7911 71.9214 89.6678C71.8728 89.8268 71.8238 89.9869 71.7711 90.1458C71.6248 90.6196 71.4703 91.0889 71.3059 91.554C70.5796 93.6533 69.7072 95.7125 68.7329 97.6917C67.6876 99.8137 66.5985 102.049 64.8536 103.692C64.012 104.48 62.989 105.109 61.8289 105.26C60.8985 105.379 59.9864 105.433 59.0649 105.619C55.5358 106.322 51.9171 107.918 49.8579 110.999C49.8579 110.999 72.09 100.349 50.6547 139.798C51.5674 138.225 69.6497 107.266 70.3316 122.576Z" fill="#DEC45C"/>
<path d="M60.3153 103.013C62.7243 103.013 64.6775 101.059 64.6775 98.6498C64.6775 96.2402 62.7243 94.2869 60.3153 94.2869C57.9057 94.2869 55.9521 96.2402 55.9521 98.6498C55.9521 101.059 57.9057 103.013 60.3153 103.013Z" fill="#DEC45C"/>
<path d="M70.5508 89.9434L72.0304 88.8662L73.5095 89.9434L72.9471 88.2021L74.4263 87.126H72.5973L72.2919 86.1969L72.0304 85.3901L71.7604 86.2229L71.4634 87.126H69.6348L71.1182 88.2021L70.5508 89.9434Z" fill="#DEC45C"/>
</g>
<defs>
<clipPath id="clip0_25_138">
<rect width="765" height="262" fill="white" transform="translate(0.73291)"/>
</clipPath>
</defs>
</svg>
