<svg width="779" height="262" viewBox="0 0 779 262" fill="none" xmlns="http://www.w3.org/2000/svg">
<g clip-path="url(#clip0_25_69)">
<path d="M531.463 221.499C529.976 221.787 527.356 222.278 525.024 222.278C517.031 222.278 512.504 218.919 512.504 209.765C512.504 200.257 518.518 196.898 526.085 196.898C528.417 196.898 529.976 197.324 531.175 197.677V202.168C530.291 201.92 527.82 201.495 525.98 201.495C521.591 201.495 518.125 202.168 518.125 209.588C518.125 216.908 521.735 217.72 525.698 217.72C527.82 217.72 529.551 217.295 531.463 216.908V221.499Z" fill="#231F20"/>
<path d="M553.96 209.555C553.96 202.981 551.804 200.964 548.3 200.964C544.729 200.964 542.574 203.334 542.463 209.555C542.358 215.776 544.624 218.179 548.195 218.179C551.733 218.179 553.96 216.129 553.96 209.555ZM536.842 209.588C536.842 200.185 541.402 196.898 548.267 196.898C555.127 196.898 559.582 200.401 559.582 209.588C559.582 218.743 555.093 222.278 548.195 222.278C541.336 222.278 536.842 218.852 536.842 209.588Z" fill="#231F20"/>
<path d="M573.416 209.13C576.036 209.13 578.368 208.351 578.368 205.207C578.368 202.097 576.533 201.567 573.488 201.567H571.757V209.13H573.416ZM566.418 197.252H573.277C580.844 197.252 583.956 199.269 583.956 204.991C583.956 209.66 581.553 210.898 578.722 211.749V212.168L579.469 212.312C582.049 213.268 583.57 218.179 585.162 221.257V221.925H579.253C578.086 218.638 576.848 213.654 574.372 212.947H571.757V221.925H566.418V197.252Z" fill="#231F20"/>
<path d="M596.802 209.66H598.748C601.86 209.66 603.413 208.671 603.413 205.594C603.413 202.484 601.86 201.6 598.997 201.6H596.802V209.66ZM591.463 197.252H598.184C605.469 197.252 609.001 198.915 609.001 205.241C609.001 211.572 604.795 213.406 599.489 213.406H596.802V221.925H591.463V197.252Z" fill="#231F20"/>
<path d="M630.721 209.555C630.721 202.981 628.567 200.964 625.066 200.964C621.49 200.964 619.335 203.334 619.224 209.555C619.119 215.776 621.385 218.179 624.961 218.179C628.499 218.179 630.721 216.129 630.721 209.555ZM613.605 209.588C613.605 200.185 618.168 196.898 625.028 196.898C631.888 196.898 636.347 200.401 636.347 209.588C636.347 218.743 631.858 222.278 624.961 222.278C618.101 222.278 613.605 218.852 613.605 209.588Z" fill="#231F20"/>
<path d="M650.177 209.13C652.802 209.13 655.129 208.351 655.129 205.207C655.129 202.097 653.296 201.567 650.252 201.567H648.523V209.13H650.177ZM643.182 197.252H650.042C657.612 197.252 660.724 199.269 660.724 204.991C660.724 209.66 658.316 210.898 655.488 211.749V212.168L656.235 212.312C658.816 213.268 660.335 218.179 661.928 221.257V221.925H656.019C654.852 218.638 653.611 213.654 651.135 212.947H648.523V221.925H643.182V197.252Z" fill="#231F20"/>
<path d="M680.465 212.842L677.989 204.323L677.705 202.942H677.353L677.069 204.323L674.488 212.842H680.465ZM666.14 221.361L674.951 197.075H680.181L689.412 221.361V221.925H683.503L681.453 216.411H673.71L671.901 221.925H666.14V221.361Z" fill="#231F20"/>
<path d="M698.506 201.495L691.572 201.672V197.252H710.819V201.672L703.847 201.495V221.925H698.506V201.495Z" fill="#231F20"/>
<path d="M716.48 221.925V197.252H721.822V221.925H716.48Z" fill="#231F20"/>
<path d="M745.267 209.555C745.267 202.981 743.112 200.964 739.611 200.964C736.042 200.964 733.881 203.334 733.776 209.555C733.671 215.776 735.931 218.179 739.506 218.179C743.038 218.179 745.267 216.129 745.267 209.555ZM728.157 209.588C728.157 200.185 732.714 196.898 739.574 196.898C746.434 196.898 750.892 200.401 750.892 209.588C750.892 218.743 746.403 222.278 739.506 222.278C732.646 222.278 728.157 218.852 728.157 209.588Z" fill="#231F20"/>
<path d="M757.728 197.252H762.389L771.515 210.223L772.787 212.345H773.108V197.252H778.449V221.925H773.886L764.513 208.456L763.451 206.655H763.069V221.925H757.728V197.252Z" fill="#231F20"/>
<path d="M183.914 29.5446L143.912 175.66H120.667L92.3921 69.5268L63.6994 175.66H40.451L0.449219 29.5446H23.4872L51.97 135.679L80.6629 29.5446H103.49L132.394 135.679L160.879 29.5446H183.914Z" fill="#231F20"/>
<path d="M194.579 29.9649L217.617 28.0807V63.8749L217.197 77.272H218.038C228.717 73.2945 237.306 71.4103 247.778 71.4103C266.419 71.4103 278.983 79.7863 278.983 111.811V175.66H255.945V113.694C255.945 94.4375 246.52 91.9263 235.842 91.9263C229.137 91.9263 223.482 93.3926 217.617 95.0669V175.66H194.579V29.9649Z" fill="#231F20"/>
<path d="M299.08 72.8773H322.119V175.66H299.08V72.8773ZM310.6 31.4288C322.539 31.4288 324.423 38.3371 324.423 46.083C324.423 53.8283 321.909 60.9471 310.6 60.9471C299.291 60.9471 296.985 53.8283 296.985 46.083C296.985 38.3371 299.08 31.4288 310.6 31.4288Z" fill="#231F20"/>
<path d="M341.592 72.8773H357.301L360.443 81.2502H361.911C367.982 76.018 377.614 71.4103 390.183 71.4103C391.647 71.4103 393.323 71.4103 394.998 71.6207V94.227C390.813 93.6031 386.413 92.9736 382.014 92.9736C375.729 92.9736 370.704 94.4375 364.63 97.1597V175.66H341.592V72.8773Z" fill="#231F20"/>
<path d="M404.836 175.66V29.9649L427.875 28.0807V175.66H404.836Z" fill="#231F20"/>
<path d="M613.423 124.787C613.423 105.324 610.278 89.4148 591.85 89.4148C573.212 89.4148 568.602 104.695 568.602 124.787C568.602 143.418 572.372 159.539 590.805 159.539C609.234 159.539 613.423 144.258 613.423 124.787ZM591.64 71.4101C624.312 71.4101 636.884 90.6689 636.884 124.787C636.884 156.815 625.152 177.754 591.22 177.754C557.293 177.754 545.354 156.815 545.354 124.787C545.354 90.6689 558.967 71.4101 591.64 71.4101Z" fill="#231F20"/>
<path d="M716.722 124.787C716.722 105.324 713.579 89.4148 695.154 89.4148C676.513 89.4148 671.901 104.695 671.901 124.787C671.901 143.418 675.673 159.539 694.105 159.539C712.536 159.539 716.722 144.258 716.722 124.787ZM694.944 71.4101C727.614 71.4101 740.186 90.6689 740.186 124.787C740.186 156.815 728.454 177.754 694.524 177.754C660.595 177.754 648.653 156.815 648.653 124.787C648.653 90.6689 662.268 71.4101 694.944 71.4101Z" fill="#231F20"/>
<path d="M755.097 175.66V29.9649L778.134 28.0807V175.66H755.097Z" fill="#231F20"/>
<path d="M469.761 156.611C476.251 156.815 479.815 157.026 486.515 157.026C500.753 157.026 510.183 149.49 510.183 119.552C510.183 99.0396 501.803 93.6031 486.725 93.6031C480.86 93.6031 475.415 94.6418 469.761 96.5309V156.611ZM446.723 72.8742H464.107L465.991 80.4102C472.907 76.6425 485.674 71.4103 497.199 71.4103C518.137 71.4103 533.426 86.6916 533.426 123.32C533.426 159.33 517.297 177.124 490.494 177.124C480.628 177.124 469.761 175.031 469.761 175.031V222.128L446.723 224.642V72.8742Z" fill="#231F20"/>
<path d="M560.775 9.72235C543.546 -10.2296 488.88 7.30804 427.874 49.5095V60.1442C481.601 21.9734 528.962 4.36115 542.526 20.0701C559.462 39.6838 517.332 103.839 448.414 163.285C379.49 222.735 309.863 254.969 292.93 235.354C284.134 225.166 291.306 202.965 309.863 175.66H299.076C276.099 209.909 267.486 238.684 279.283 252.347C300.79 277.258 381.237 243.178 458.949 176.152C536.653 109.126 582.279 34.6312 560.775 9.72235Z" fill="#EDAC09"/>
</g>
<defs>
<clipPath id="clip0_25_69">
<rect width="778" height="262" fill="white" transform="translate(0.449219)"/>
</clipPath>
</defs>
</svg>
