<svg width="957" height="262" viewBox="0 0 957 262" fill="none" xmlns="http://www.w3.org/2000/svg">
<g clip-path="url(#clip0_25_121)">
<path d="M108.494 186.299C100.166 190.5 90.7367 192.853 80.7654 192.853C46.6036 192.853 18.9119 165.161 18.9119 131C18.9119 121.028 21.2646 111.617 25.466 103.271C23.0946 102.15 20.4337 101.59 17.6141 101.73C10.2477 102.085 4.23508 107.257 2.47984 114.082C2.46117 114.157 2.4425 114.204 2.42383 114.278C2.3398 114.717 2.22776 115.202 2.14373 115.66V115.679C-5.47475 154.602 16.9046 194.188 55.5105 207.016C63.5211 209.677 71.6531 210.984 79.6637 211.078C92.6506 211.255 105.32 208.24 116.626 202.572L108.494 186.308V186.299ZM112.537 57.485C102.473 53.1622 92.0531 51.0335 81.8298 50.9215C68.8615 50.7441 56.1921 53.7411 44.867 59.4456L53.0364 75.6909C61.3644 71.4896 70.7942 69.1368 80.7654 69.1368C114.927 69.1368 142.619 96.8285 142.619 130.99C142.619 140.962 140.266 150.373 136.065 158.719C138.418 159.849 141.116 160.419 143.917 160.279C151.096 159.924 157.006 155.003 158.92 148.44C158.92 148.403 158.939 148.384 158.939 148.365C159.098 147.674 159.238 147.002 159.378 146.33C159.396 146.274 159.396 146.255 159.378 146.19C166.539 109.657 147.007 72.2831 112.528 57.4756L112.537 57.485Z" fill="#0E1C35"/>
<path d="M297.22 154.285C296.137 154.584 294.988 154.854 293.765 155.097C290.824 155.685 287.808 155.965 284.784 155.965C276.614 155.965 270.826 153.734 267.381 149.271C263.945 144.808 262.227 138.73 262.227 131.075C262.227 123.419 264.047 116.949 267.689 112.579C271.32 108.219 276.614 106.025 283.598 106.025C286.557 106.025 289.321 106.324 291.926 106.912C294.531 107.5 296.865 108.238 298.928 109.125L302.756 94.5413C296.267 91.8805 289.396 90.5547 282.132 90.5547C276.231 90.5547 270.938 91.5817 266.223 93.6544C261.508 95.7084 257.503 98.5653 254.207 102.197C250.911 105.829 248.4 110.133 246.626 115.1C244.852 120.058 243.965 125.398 243.965 131.084C243.965 136.77 244.749 142.269 246.318 147.227C247.886 152.184 250.267 156.46 253.46 160.036C256.672 163.631 260.686 166.431 265.541 168.439C270.415 170.455 276.138 171.473 282.711 171.473C286.95 171.473 291.039 171.062 295.026 170.287C298.975 169.512 301.953 168.626 303.923 167.627L297.229 154.304L297.22 154.285Z" fill="#0E1C35"/>
<path d="M365.385 92.4683C363.135 101.702 360.633 111.253 357.888 121.14C355.162 131.009 352.221 140.308 349.103 149.065C347.226 144.827 345.349 140.261 343.463 135.35C341.605 130.439 339.832 125.5 338.151 120.533C336.47 115.595 334.93 110.702 333.492 105.885C332.054 101.067 330.85 96.6043 329.86 92.4683H310.87C314.913 106.818 319.516 120.375 324.688 133.128C329.879 145.9 335.285 157.683 340.905 168.494C338.935 173.116 336.639 176.542 334.034 178.736C331.41 180.949 327.76 181.64 323.157 182.051C322.746 182.088 322.345 182.107 321.934 182.107H313.008L320.449 196.933C321.532 197.036 322.625 197.092 323.708 197.092C327.834 197.092 331.466 196.616 334.622 195.691C337.778 194.748 340.625 193.245 343.183 191.191C345.732 189.137 348.057 186.532 350.111 183.377C352.184 180.24 354.2 176.449 356.17 172.033C366.664 148.253 375.87 121.729 383.815 92.459H365.404L365.385 92.4683Z" fill="#0E1C35"/>
<path d="M464.462 114.651C462.941 109.694 460.756 105.436 457.908 101.898C455.051 98.3687 451.494 95.6425 447.227 93.7285C442.961 91.8146 438.125 90.8622 432.719 90.8622C429.087 90.8622 425.772 91.3011 422.775 92.1693C419.779 93.0563 417.248 94.0459 415.176 95.129V55.1973C405.232 55.7855 397.353 64.0201 397.353 74.1034V167.159C400.9 168.261 405.344 169.232 410.694 170.119C416.044 171.006 421.664 171.445 427.565 171.445C433.466 171.445 439.096 170.502 443.922 168.644C448.74 166.767 452.839 164.069 456.237 160.53C459.617 157.001 462.222 152.753 464.033 147.786C465.854 142.829 466.759 137.245 466.759 131.055C466.759 124.865 465.994 119.59 464.472 114.633L464.462 114.651ZM442.877 149.271C439.142 153.733 433.979 155.965 427.406 155.965C424.549 155.965 422.122 155.862 420.105 155.61C418.089 155.358 416.436 155.097 415.166 154.798V110.45C416.744 109.367 418.836 108.377 421.44 107.49C424.045 106.622 426.809 106.183 429.768 106.183C436.257 106.183 440.981 108.377 443.978 112.812C446.975 117.228 448.479 123.213 448.479 130.775C448.479 138.338 446.621 144.808 442.877 149.271Z" fill="#0E1C35"/>
<path d="M541.544 100.423C535.587 93.8504 527.315 90.5547 516.7 90.5547C512.181 90.5547 507.774 91.423 503.442 93.1409C499.119 94.8588 495.291 97.4076 491.94 100.797C488.606 104.186 485.936 108.434 483.91 113.541C481.894 118.657 480.876 124.595 480.876 131.383C480.876 137.181 481.67 142.493 483.247 147.367C484.807 152.221 487.215 156.46 490.455 160.036C493.695 163.631 497.821 166.431 502.844 168.439C507.839 170.455 513.74 171.473 520.528 171.473C523.17 171.473 525.775 171.314 528.323 171.034C530.872 170.736 533.262 170.362 535.484 169.914C537.679 169.475 539.648 168.99 541.366 168.439C543.066 167.907 544.429 167.393 545.409 166.898L538.799 153.771C537.538 154.126 536.138 154.481 534.598 154.817C531.003 155.592 527.054 155.984 522.722 155.984C515.355 155.984 509.735 154.304 505.851 150.914C501.967 147.516 499.791 142.726 499.297 136.546H550.133C550.236 135.556 550.311 134.454 550.367 133.231C550.404 131.99 550.441 130.888 550.441 129.898C550.441 116.837 547.463 107.024 541.525 100.433L541.544 100.423ZM499.465 123.419C499.763 121.15 500.296 118.937 501.099 116.771C501.883 114.615 502.975 112.701 504.413 111.029C505.832 109.367 507.587 107.995 509.641 106.968C511.714 105.941 514.104 105.428 516.868 105.428C519.631 105.428 521.797 105.885 523.711 106.828C525.625 107.771 527.259 109.041 528.585 110.656C529.911 112.29 530.91 114.204 531.601 116.416C532.291 118.611 532.628 120.954 532.628 123.419H499.474H499.465Z" fill="#0E1C35"/>
<path d="M925.391 100.423C919.434 93.8504 911.162 90.5547 900.546 90.5547C896.028 90.5547 891.621 91.423 887.289 93.1409C882.957 94.8588 879.138 97.4076 875.786 100.797C872.453 104.186 869.783 108.434 867.757 113.541C865.74 118.657 864.723 124.595 864.723 131.383C864.723 137.181 865.516 142.493 867.094 147.367C868.653 152.221 871.062 156.46 874.302 160.036C877.542 163.631 881.668 166.431 886.691 168.439C891.686 170.455 897.587 171.473 904.374 171.473C907.016 171.473 909.621 171.314 912.17 171.034C914.719 170.736 917.109 170.362 919.331 169.914C921.525 169.475 923.495 168.99 925.213 168.439C926.912 167.907 928.275 167.393 929.256 166.898L922.646 153.771C921.385 154.126 919.985 154.481 918.444 154.817C914.85 155.592 910.9 155.984 906.568 155.984C899.202 155.984 893.581 154.304 889.697 150.914C885.814 147.516 883.638 142.726 883.143 136.546H933.98C934.083 135.556 934.157 134.454 934.213 133.231C934.251 131.99 934.288 130.888 934.288 129.898C934.288 116.837 931.31 107.024 925.372 100.433L925.391 100.423ZM883.311 123.419C883.61 121.15 884.142 118.937 884.945 116.771C885.73 114.615 886.822 112.701 888.26 111.029C889.679 109.367 891.434 107.995 893.488 106.968C895.561 105.941 897.951 105.428 900.714 105.428C903.478 105.428 905.644 105.885 907.558 106.828C909.472 107.771 911.106 109.041 912.432 110.656C913.757 112.29 914.756 114.204 915.447 116.416C916.138 118.611 916.474 120.954 916.474 123.419H883.321H883.311Z" fill="#0E1C35"/>
<path d="M613.219 108.527C611.744 108.032 609.709 107.519 607.104 106.977C604.499 106.436 601.474 106.165 598.038 106.165C596.068 106.165 593.986 106.361 591.773 106.753C589.561 107.145 588.02 107.491 587.133 107.78V169.521H569.301V96.1468C572.737 94.8677 577.041 93.6633 582.194 92.5336C587.348 91.4039 593.071 90.8438 599.364 90.8438C600.54 90.8438 601.913 90.9184 603.491 91.0678C605.059 91.2172 606.637 91.4133 608.205 91.656C609.774 91.8988 611.305 92.1975 612.771 92.543C614.246 92.8884 615.423 93.2059 616.31 93.5046L613.21 108.536L613.219 108.527Z" fill="#0E1C35"/>
<path d="M710.327 73.1325V95.1196C708.254 94.0366 705.808 93.047 702.961 92.16C700.104 91.2917 696.808 90.8529 693.092 90.8529C687.584 90.8529 682.729 91.8052 678.49 93.7192C674.27 95.6331 670.694 98.3594 667.735 101.889C664.794 105.436 662.562 109.684 661.04 114.642C659.519 119.6 658.753 125.127 658.753 131.205C658.753 137.283 659.659 142.969 661.479 147.936C663.29 152.893 665.895 157.132 669.294 160.605C672.674 164.097 676.772 166.767 681.59 168.653C686.407 170.511 691.85 171.454 697.947 171.454C704.044 171.454 709.468 171.015 714.818 170.128C720.168 169.241 724.612 168.27 728.16 167.168V55.1973C718.534 55.7481 710.831 63.4693 710.336 73.1325H710.327ZM710.327 154.798C709.048 155.097 707.405 155.367 705.388 155.61C703.372 155.862 700.944 155.965 698.106 155.965C691.514 155.965 686.361 153.733 682.617 149.271C678.882 144.808 677.015 138.637 677.015 130.775C677.015 122.914 678.518 117.219 681.515 112.812C684.512 108.387 689.236 106.183 695.725 106.183C698.685 106.183 701.448 106.641 704.053 107.584C706.658 108.508 708.749 109.516 710.327 110.599V154.807V154.798Z" fill="#0E1C35"/>
<path d="M770.742 69.9205C770.742 73.2629 769.659 75.9144 767.503 77.8751C765.337 79.8451 762.788 80.8254 759.838 80.8254C756.887 80.8254 754.189 79.8451 752.023 77.8751C749.857 75.9144 748.783 73.2629 748.783 69.9205C748.783 66.5781 749.866 63.7865 752.023 61.8165C754.18 59.8559 756.785 58.8662 759.838 58.8662C762.891 58.8662 765.337 59.8465 767.503 61.8165C769.659 63.7865 770.742 66.4847 770.742 69.9205ZM768.828 169.53H750.996V92.4678H768.828V169.53Z" fill="#0E1C35"/>
<path d="M813.139 169.531C808.209 159.41 803.149 147.796 797.977 134.678C792.795 121.56 788.089 107.491 783.851 92.459H802.869C803.952 96.7817 805.212 101.422 806.641 106.38C808.069 111.337 809.6 116.304 811.225 121.262C812.849 126.219 814.53 131.037 816.257 135.705C817.984 140.373 819.59 144.575 821.065 148.3C822.541 144.565 824.128 140.364 825.799 135.705C827.47 131.037 829.132 126.229 830.757 121.262C832.381 116.304 833.94 111.337 835.415 106.38C836.891 101.422 838.179 96.7817 839.262 92.459H857.683C853.444 107.491 848.729 121.56 843.557 134.678C838.375 147.796 833.324 159.41 828.394 169.531H813.148H813.139Z" fill="#0E1C35"/>
<path d="M956.266 80.8537C956.266 82.6743 955.967 84.2988 955.379 85.7179C954.782 87.1371 953.979 88.3415 952.98 89.3311C951.981 90.3208 950.804 91.0677 949.479 91.5905C948.153 92.1134 946.762 92.3748 945.296 92.3748C943.83 92.3748 942.467 92.1134 941.141 91.5905C939.816 91.0677 938.648 90.3208 937.64 89.3311C936.632 88.3415 935.829 87.1371 935.222 85.7179C934.615 84.2988 934.316 82.6743 934.316 80.8537C934.316 79.0331 934.615 77.4366 935.222 75.9988C935.829 74.5703 936.632 73.3566 937.64 72.3669C938.648 71.3772 939.816 70.6303 941.141 70.1075C942.467 69.5847 943.849 69.3232 945.296 69.3232C946.743 69.3232 948.153 69.5847 949.479 70.1075C950.804 70.6303 951.971 71.3772 952.98 72.3669C953.988 73.3566 954.791 74.561 955.379 75.9988C955.977 77.4272 956.266 79.0518 956.266 80.8537ZM953.503 80.8537C953.503 79.5186 953.297 78.3048 952.896 77.2125C952.494 76.1201 951.925 75.1772 951.197 74.3929C950.459 73.6086 949.6 73.0018 948.601 72.5816C947.602 72.1615 946.5 71.9468 945.296 71.9468C944.092 71.9468 942.981 72.1615 941.991 72.5816C940.992 73.0018 940.133 73.6086 939.414 74.3929C938.695 75.1772 938.126 76.1201 937.724 77.2125C937.323 78.3048 937.117 79.5186 937.117 80.8537C937.117 82.1888 937.313 83.4118 937.724 84.5135C938.126 85.6152 938.686 86.5582 939.414 87.3425C940.133 88.1267 940.992 88.7336 941.991 89.1537C942.99 89.5739 944.092 89.7886 945.296 89.7886C946.5 89.7886 947.602 89.5739 948.601 89.1537C949.6 88.7336 950.459 88.1267 951.197 87.3425C951.925 86.5582 952.494 85.6152 952.896 84.5135C953.297 83.4118 953.503 82.1888 953.503 80.8537ZM947.835 86.7449C947.415 85.858 946.986 85.0457 946.566 84.3081C946.146 83.5706 945.735 82.9637 945.361 82.4782H943.643V86.7449H940.973V75.1305C941.627 74.9624 942.28 74.841 942.915 74.785C943.55 74.7197 944.11 74.6917 944.605 74.6917C946.37 74.6917 947.695 75.0184 948.601 75.6813C949.507 76.3349 949.955 77.3339 949.955 78.669C949.955 79.3879 949.777 80.0227 949.432 80.5642C949.087 81.1058 948.573 81.5259 947.92 81.8247C948.34 82.4409 948.797 83.1504 949.292 83.9534C949.787 84.7563 950.254 85.6899 950.72 86.7543H947.854L947.835 86.7449ZM943.634 80.3215H944.521C945.352 80.3215 946.006 80.2095 946.491 79.9854C946.977 79.7613 947.219 79.3132 947.219 78.6316C947.219 78.0341 946.995 77.6233 946.538 77.3712C946.08 77.1285 945.501 77.0071 944.801 77.0071H944.241C944.064 77.0071 943.858 77.0258 943.625 77.0724V80.3215H943.634Z" fill="#0E1C35"/>
</g>
<defs>
<clipPath id="clip0_25_121">
<rect width="955.603" height="262" fill="white" transform="translate(0.663086)"/>
</clipPath>
</defs>
</svg>
