<svg width="757" height="262" viewBox="0 0 757 262" fill="none" xmlns="http://www.w3.org/2000/svg">
<g clip-path="url(#clip0_25_202)">
<path d="M127.18 49.825C129.973 49.825 131.876 50.4726 132.564 50.8774L188.015 82.3268L132.564 113.776C131.876 114.181 129.973 114.829 127.18 114.829C124.388 114.829 122.485 114.181 121.797 113.776L66.3459 82.3268L121.797 50.8774C122.445 50.4726 124.388 49.825 127.18 49.825ZM127.18 34.4443C122.485 34.4443 117.79 35.4562 114.188 37.48L48.1319 74.9603C40.9677 79.0078 40.9677 85.6053 48.1319 89.6934L114.188 127.174C117.79 129.197 122.485 130.209 127.14 130.209C131.795 130.209 136.53 129.197 140.092 127.174L206.148 89.6934C213.312 85.6458 213.312 79.0483 206.148 74.9603L140.133 37.48C136.571 35.4562 131.876 34.4443 127.18 34.4443Z" fill="url(#paint0_linear_25_202)"/>
<path d="M116.938 32.5838C119.731 32.5838 121.593 33.2314 122.241 33.5957H122.281H122.322L162.109 56.1405L122.322 78.7663C121.634 79.1711 119.731 79.8187 116.938 79.8187C114.146 79.8187 112.243 79.1711 111.555 78.7663L71.7273 56.2215L111.515 33.6766C112.243 33.2314 114.146 32.5838 116.938 32.5838ZM116.938 17.2031C112.243 17.2031 107.548 18.215 103.946 20.2793L53.5538 48.8549C46.3896 52.9025 46.3896 59.5 53.5538 63.588L103.946 92.1637C107.548 94.1875 112.243 95.1994 116.898 95.1994C121.553 95.1994 126.288 94.1875 129.85 92.1637L180.242 63.588C187.406 59.5405 187.406 52.943 180.242 48.8549L129.85 20.2793C126.329 18.2555 121.634 17.2031 116.938 17.2031Z" fill="url(#paint1_linear_25_202)"/>
<path d="M153.123 15.3807C155.916 15.3807 157.818 16.0283 158.506 16.3926L182.63 30.1138L158.506 43.7945C157.818 44.1992 155.916 44.8468 153.123 44.8468C150.33 44.8468 148.428 44.1992 147.74 43.7945L123.616 30.1138L147.74 16.433C148.387 16.0283 150.29 15.3807 153.123 15.3807ZM153.123 0C148.428 0 143.733 1.01189 140.13 3.03566L105.402 22.7472C98.2383 26.7948 98.2383 33.3923 105.402 37.4803L140.13 57.1918C143.692 59.2156 148.428 60.2275 153.083 60.2275C157.737 60.2275 162.473 59.2156 166.035 57.1918L200.763 37.4803C207.927 33.4327 207.927 26.8352 200.763 22.7472L166.035 3.03566C162.513 1.01189 157.818 0 153.123 0Z" fill="#64FBFF"/>
<path d="M208.573 117.905L208.088 181.654C208.088 184.406 205.133 189.506 202.745 190.882L202.705 190.923L202.664 190.963L147.698 223.263L148.184 159.554C148.225 156.68 151.139 151.621 153.567 150.204L208.573 117.905ZM217.073 96.6553C215.333 96.6553 213.35 97.2219 211.285 98.4767L145.796 136.928C138.672 141.097 132.884 151.176 132.803 159.433L132.237 235.365C132.196 241.193 135.03 244.553 139.199 244.553C140.939 244.553 142.922 243.986 144.987 242.731L210.476 204.239C217.6 200.111 223.428 190.032 223.468 181.775L224.035 105.843C224.076 100.015 221.242 96.6553 217.073 96.6553Z" fill="url(#paint2_linear_25_202)"/>
<path d="M223.349 125.88L222.985 171.657V171.698V171.738C222.985 174.531 220.03 179.59 217.561 181.088L178.138 204.24L178.502 158.503C178.543 155.629 181.457 150.57 183.885 149.153L223.349 125.88ZM231.849 104.63C230.108 104.63 228.125 105.197 226.061 106.451L176.114 135.796C168.99 139.965 163.202 150.043 163.121 158.3L162.676 216.261C162.636 222.09 165.469 225.449 169.638 225.449C171.378 225.449 173.362 224.883 175.426 223.628L225.373 194.283C232.496 190.074 238.325 180.036 238.365 171.779L238.811 113.818C238.851 107.989 236.018 104.63 231.849 104.63Z" fill="url(#paint3_linear_25_202)"/>
<path d="M238.163 165.463L237.921 193.189C237.88 196.063 234.925 201.122 232.497 202.579L208.616 216.624L208.859 188.899C208.9 186.025 211.814 180.966 214.242 179.549L238.163 165.463ZM246.663 144.214C244.923 144.214 242.94 144.781 240.875 146.035L206.431 166.273C199.307 170.442 193.519 180.52 193.438 188.777L193.114 228.727C193.074 234.555 195.907 237.915 200.076 237.915C201.816 237.915 203.8 237.348 205.864 236.093L240.309 215.855C247.432 211.646 253.22 201.568 253.301 193.351L253.625 153.402C253.665 147.573 250.832 144.214 246.663 144.214Z" fill="#64FBFF"/>
<path d="M45.7412 117.864L100.707 150.163C103.176 151.62 106.09 156.68 106.131 159.554L106.657 223.302L51.6911 191.003C49.2625 189.586 46.3483 184.487 46.2673 181.532L45.7412 117.864ZM37.2008 96.6143C33.0319 96.6143 30.1986 99.9737 30.2795 105.802L30.8462 181.734C30.9676 190.032 36.7556 200.11 43.8793 204.279L109.369 242.771C111.473 243.985 113.457 244.593 115.197 244.593C119.366 244.593 122.199 241.233 122.118 235.405L121.511 159.432C121.43 151.175 115.642 141.137 108.519 136.928L43.0293 98.4357C40.9246 97.2214 38.9413 96.6143 37.2008 96.6143Z" fill="url(#paint4_linear_25_202)"/>
<path d="M30.9707 162.43L70.3938 185.582C72.8628 187.039 75.777 192.099 75.8175 194.973L76.1818 240.71L36.7586 217.558C34.3301 216.101 31.3754 211.041 31.3349 208.168L30.9707 162.43ZM22.4303 141.181C18.2614 141.181 15.4281 144.54 15.509 150.369L15.9543 208.329C16.0352 216.627 21.8637 226.665 28.9469 230.834L78.8936 260.179C80.9983 261.393 82.9816 262 84.7221 262C88.8911 262 91.7243 258.641 91.6434 252.812L91.1982 194.851C91.1172 186.594 85.3292 176.556 78.2055 172.347L28.2588 143.002C26.1541 141.788 24.1708 141.181 22.4303 141.181Z" fill="url(#paint5_linear_25_202)"/>
<path d="M16.1957 129.157L40.0763 143.202C42.5453 144.659 45.4595 149.759 45.5 152.592L45.7428 180.318L21.8623 166.273C19.3933 164.816 16.4791 159.716 16.4386 156.883L16.1957 129.157ZM7.65543 107.907C3.48646 107.907 0.653162 111.267 0.734113 117.095L1.05794 157.044C1.13889 165.261 6.92687 175.339 14.0506 179.549L48.4952 199.787C50.5999 201.001 52.5832 201.608 54.3236 201.608C58.4926 201.608 61.3259 198.248 61.2449 192.42L60.9211 152.471C60.8402 144.214 55.0522 134.176 47.9285 129.966L13.4839 109.729C11.3792 108.514 9.39588 107.907 7.65543 107.907Z" fill="#69FFF2"/>
<path d="M304.543 79.2957H344.343V92.769H338.832V84.2724H318.377V98.0919H327.941V92.5237H332.672V108.262H327.941V102.636H318.377V115.388H326.455V120.35H304.543V115.388H312.261V84.2724H304.543V79.2957ZM377.795 84.2724H370.02V115.388H377.795V120.35H356.128V115.388H363.846V84.2724H356.128V79.2957H377.795V84.2724ZM442.363 79.2957V84.2724H434.876V120.711L431.833 120.769L403.054 88.0374V115.388H410.411V120.35H389.465V115.388H397.183V84.2724H389.465V79.2957H403.054L429.135 109.632V84.2724H421.418V79.2957H442.363ZM494.598 115.388H501.002V120.35H481.442V115.388H488.135L484.312 105.81H466.598L462.833 115.388H470.017V120.35H450.557V115.388H456.962L470.305 84.2003H464.146V79.2957H487.241V84.2003H481.139L494.598 115.388ZM468.401 101.323H482.523L475.7 84.2003H475.21L468.401 101.323ZM563.724 79.2957V84.2724H556.237V120.711L553.193 120.769L524.4 88.0374V115.388H531.772V120.35H510.826V115.388H518.544V84.2724H510.826V79.2957H524.4L550.496 109.632V84.2724H542.778V79.2957H563.724ZM610.462 108.204L614.473 111.551C612.511 114.426 610.025 116.739 607.015 118.489C604.005 120.249 600.446 121.129 596.34 121.129C592.426 121.129 588.843 120.221 585.593 118.403C582.342 116.585 579.78 114.061 577.904 110.83C576.029 107.598 575.091 103.949 575.091 99.8807C575.091 95.6973 576.01 91.9804 577.846 88.7299C579.683 85.4793 582.136 82.9549 585.203 81.1565C588.281 79.3582 591.594 78.459 595.143 78.459C598.008 78.459 600.552 78.9783 602.774 80.0169C604.985 81.0556 606.846 82.5125 608.356 84.3878L608.428 79.2957H613.982V92.6392L610.044 92.9998C607.169 86.6141 602.5 83.4213 596.037 83.4213C593.44 83.4213 591.036 84.0897 588.824 85.4265C586.612 86.7632 584.838 88.6818 583.501 91.1822C582.164 93.673 581.496 96.5532 581.496 99.823C581.496 102.939 582.155 105.723 583.472 108.175C584.79 110.628 586.574 112.551 588.824 113.945C591.075 115.34 593.58 116.037 596.34 116.037C599.571 116.037 602.312 115.34 604.562 113.945C606.813 112.551 608.779 110.637 610.462 108.204ZM648.517 84.2724H640.741V115.388H648.517V120.35H626.85V115.388H634.567V84.2724H626.85V79.2957H648.517V84.2724ZM702.309 115.388H708.714V120.35H689.153V115.388H695.846L692.024 105.81H674.309L670.544 115.388H677.714V120.35H658.268V115.388H664.673L678.016 84.2003H671.857V79.2957H694.952V84.2003H688.85L702.309 115.388ZM676.098 101.323H690.22L683.412 84.2003H682.921L676.098 101.323ZM751.211 106.112H757.01V120.35H718.537V115.388H726.255V84.2724H718.537V79.2957H740.075V84.2724H732.415V115.388H751.211V106.112Z" fill="#1499D0"/>
<path d="M339.954 185.807V190.712H332.063V199.569H326.192V190.712H304.049V185.807L325.716 160.851H332.063V185.807H339.954ZM310.093 185.807H326.192V167.198L310.093 185.807ZM395.967 175.565C401.238 177.046 405.209 178.782 407.883 180.772C410.556 182.773 411.893 185.427 411.893 188.735C411.893 190.889 411.302 192.794 410.119 194.448C408.945 196.102 407.32 197.371 405.243 198.256C403.175 199.131 400.843 199.569 398.247 199.569C395.41 199.569 392.717 198.968 390.168 197.766C387.61 196.573 385.254 194.9 383.1 192.746V198.732H377.662V184.913L381.124 184.725C383.239 187.802 385.817 190.216 388.856 191.967C391.885 193.726 394.895 194.606 397.886 194.606C400.117 194.606 401.944 194.126 403.368 193.164C404.781 192.202 405.488 190.904 405.488 189.269C405.488 187.48 404.488 185.937 402.488 184.638C400.497 183.34 397.107 182.071 392.318 180.83C387.336 179.522 383.687 177.801 381.369 175.666C379.051 173.531 377.892 170.905 377.892 167.79C377.892 165.635 378.484 163.731 379.667 162.077C380.84 160.423 382.427 159.144 384.427 158.24C386.418 157.346 388.591 156.898 390.947 156.898C396.487 156.898 400.973 158.932 404.406 163V157.735H409.859V171.382L406.498 171.569C404.825 168.376 402.771 165.962 400.338 164.328C397.905 162.683 395.232 161.861 392.318 161.861C389.962 161.861 388.038 162.37 386.548 163.39C385.047 164.409 384.297 165.775 384.297 167.487C384.297 169.247 385.206 170.756 387.024 172.016C388.841 173.266 391.823 174.449 395.967 175.565ZM468.498 200.29L469.22 204.949C467.902 205.43 466.248 205.671 464.257 205.671C459.622 205.671 455.568 203.435 452.097 198.963C450.548 199.367 448.817 199.569 446.904 199.569C442.912 199.569 439.292 198.66 436.041 196.842C432.791 195.025 430.237 192.5 428.381 189.269C426.525 186.038 425.597 182.369 425.597 178.262C425.597 174.118 426.525 170.429 428.381 167.198C430.237 163.967 432.791 161.442 436.041 159.625C439.292 157.807 442.912 156.898 446.904 156.898C450.846 156.898 454.443 157.807 457.694 159.625C460.944 161.442 463.498 163.977 465.354 167.227C467.21 170.478 468.138 174.156 468.138 178.262C468.138 182.417 467.181 186.139 465.267 189.428C463.353 192.717 460.762 195.241 457.492 197.001C459.646 199.434 462.156 200.651 465.022 200.651C466.503 200.651 467.662 200.53 468.498 200.29ZM446.904 161.803C444.23 161.803 441.835 162.385 439.72 163.549C437.604 164.703 435.878 166.318 434.541 168.395C433.204 170.463 432.377 172.853 432.06 175.565H434.57C437.282 175.565 439.604 175.897 441.537 176.56C443.47 177.214 445.216 178.339 446.774 179.936C448.332 181.532 449.827 183.749 451.26 186.586L453.121 190.236L454.434 192.688C456.79 191.332 458.627 189.394 459.944 186.874C461.262 184.364 461.92 181.494 461.92 178.262C461.92 175.07 461.29 172.228 460.031 169.737C458.771 167.246 457.006 165.304 454.736 163.909C452.457 162.505 449.846 161.803 446.904 161.803ZM446.904 194.664C447.654 194.664 448.428 194.602 449.226 194.477L447.971 192.154L446.182 188.432C445.105 186.365 444.105 184.759 443.182 183.614C442.268 182.479 441.143 181.624 439.806 181.047C438.469 180.47 436.724 180.181 434.57 180.181H431.93C432.17 183.056 432.949 185.581 434.267 187.754C435.584 189.928 437.33 191.62 439.503 192.832C441.677 194.053 444.143 194.664 446.904 194.664ZM530.802 157.735V162.712H523.07V182.936C523.07 186.081 522.295 188.923 520.747 191.462C519.189 193.991 517.011 195.977 514.212 197.419C511.423 198.852 508.235 199.569 504.648 199.569C500.975 199.569 497.743 198.852 494.954 197.419C492.156 195.977 490.002 194.001 488.492 191.491C486.972 188.981 486.213 186.129 486.213 182.936V162.712H478.495V157.735H499.672V162.712H492.43L492.372 182.749C492.372 184.989 492.892 186.995 493.93 188.764C494.969 190.543 496.416 191.928 498.272 192.919C500.128 193.919 502.254 194.419 504.648 194.419C506.995 194.419 509.106 193.919 510.981 192.919C512.856 191.928 514.313 190.534 515.352 188.735C516.391 186.937 516.91 184.922 516.91 182.691L516.852 162.712H509.553V157.735H530.802ZM580.338 193.827H586.743V198.79H567.182V193.827H573.876L570.053 184.249H552.339L548.574 193.827H555.743V198.79H536.298V193.827H542.703L556.046 162.64H549.886V157.735H572.981V162.64H566.88L580.338 193.827ZM554.127 179.763H568.25L561.427 162.64H560.951L554.127 179.763ZM640.189 191.303L643.233 195.313C640.723 198.189 637.814 199.626 634.506 199.626C631.034 199.626 628.111 198.371 625.735 195.861C623.36 193.342 621.436 189.471 619.965 184.249L618.998 181.263H610.444V193.827H617.989V198.79H596.567V193.885H604.285V162.712H596.567V157.735H620.383C625.048 157.735 628.736 158.793 631.448 160.909C634.16 163.024 635.516 165.895 635.516 169.521C635.516 172.521 634.549 175.046 632.616 177.094C630.683 179.152 627.961 180.441 624.451 180.96L625.519 183.888C626.759 187.399 628.139 189.952 629.659 191.548C631.169 193.145 632.88 193.943 634.794 193.943C635.996 193.943 637.016 193.702 637.852 193.222C638.689 192.741 639.468 192.101 640.189 191.303ZM610.444 162.712V176.589H620.556C623.115 176.589 625.23 175.959 626.904 174.699C628.577 173.449 629.414 171.723 629.414 169.521C629.414 167.415 628.587 165.751 626.932 164.529C625.278 163.318 623.153 162.712 620.556 162.712H610.444ZM692.121 170.905H686.625V162.712H665.318V175.81H674.767V170.242H679.556V185.922H674.767V180.354H665.318V193.827H686.625V185.619H692.121V198.79H651.557V193.827H659.216V162.712H651.557V157.735H692.121V170.905Z" fill="#1499D0"/>
</g>
<defs>
<linearGradient id="paint0_linear_25_202" x1="104.213" y1="42.581" x2="150.108" y2="122.073" gradientUnits="userSpaceOnUse">
<stop offset="0.1" stop-color="#0B1C33"/>
<stop offset="1" stop-color="#009EFF"/>
</linearGradient>
<linearGradient id="paint1_linear_25_202" x1="81.175" y1="91.9646" x2="152.661" y2="20.4783" gradientUnits="userSpaceOnUse">
<stop stop-color="#32CDFF"/>
<stop offset="0.9" stop-color="#0B1C33"/>
</linearGradient>
<linearGradient id="paint2_linear_25_202" x1="136.655" y1="146.655" x2="219.627" y2="194.559" gradientUnits="userSpaceOnUse">
<stop stop-color="#009EFF"/>
<stop offset="0.9" stop-color="#0B1C33"/>
</linearGradient>
<linearGradient id="paint3_linear_25_202" x1="166.964" y1="145.537" x2="234.527" y2="184.545" gradientUnits="userSpaceOnUse">
<stop stop-color="#32CDFF"/>
<stop offset="0.9" stop-color="#0B1C33"/>
</linearGradient>
<linearGradient id="paint4_linear_25_202" x1="34.7311" y1="194.545" x2="117.659" y2="146.667" gradientUnits="userSpaceOnUse">
<stop offset="0.1" stop-color="#0B1C33"/>
<stop offset="1" stop-color="#08C0FF"/>
</linearGradient>
<linearGradient id="paint5_linear_25_202" x1="1.26743" y1="171.39" x2="105.885" y2="231.791" gradientUnits="userSpaceOnUse">
<stop offset="0.1" stop-color="#0B1C33"/>
<stop offset="1" stop-color="#38E4FF"/>
</linearGradient>
<clipPath id="clip0_25_202">
<rect width="756.278" height="262" fill="white" transform="translate(0.732422)"/>
</clipPath>
</defs>
</svg>
