<svg width="958" height="262" viewBox="0 0 958 262" fill="none" xmlns="http://www.w3.org/2000/svg">
<g clip-path="url(#clip0_25_136)">
<path fill-rule="evenodd" clip-rule="evenodd" d="M481.892 108.486C470.582 103.006 456.413 100.472 450.607 100.472C440.233 100.472 408.191 105.709 394.16 111.352V195.601H423.455V128.692C426.202 120.225 433.522 114.981 449.998 114.981C469.523 114.981 468.613 128.692 468.613 136.349V195.608H497.903V128.699C500.649 120.231 507.975 114.987 524.446 114.987C543.976 114.987 543.06 128.699 543.06 136.356V195.615H572.355V129.902C572.355 103.709 535.438 100.478 525.06 100.478C517.269 100.472 497.309 104.634 481.892 108.486ZM0.847656 195.601V65H31.9689V108.128C31.9689 110.953 33.8002 116.596 39.2888 112.163L92.3801 65H126.248L62.1745 122.239C60.3433 124.252 56.6807 129.496 61.5658 130.301C69.1926 131.51 103.982 135.943 114.043 148.033C124.115 160.13 125.338 184.309 125.338 195.601H96.6565C96.6565 180.687 93.0604 167.536 88.4158 162.143C78.349 150.459 66.4509 146.019 42.0408 146.019C38.0765 146.019 31.974 146.823 31.974 154.48V195.601H0.847656ZM171.416 156.102H248.61C252.273 104.506 227.254 100.877 190.332 100.877C153.41 100.877 133.88 110.149 133.88 147.634C133.88 192.783 161.953 196.811 193.99 196.811C226.027 196.811 242.81 190.763 246.472 167.786H218.707C217.489 172.625 211.08 182.701 193.99 182.701C171.411 182.701 167.748 171.821 165.917 166.982C164.091 162.549 164.091 156.102 171.416 156.102ZM166.531 127.476C169.887 120.225 177.212 114.176 192.164 114.176C210.169 114.176 214.134 122.637 216.574 127.476C220.231 136.342 217.182 137.552 211.688 137.552H171.109C163.482 137.558 164.587 131.679 166.531 127.476ZM855.736 156.102H932.935C936.592 104.506 911.574 100.877 874.647 100.877C837.73 100.877 818.21 110.149 818.21 147.634C818.21 192.783 846.272 196.811 878.314 196.811C910.356 196.811 927.129 190.763 930.797 167.786H903.031C901.814 172.625 895.399 182.701 878.314 182.701C855.736 182.701 852.068 171.821 850.242 166.982C848.41 162.549 848.41 156.102 855.736 156.102ZM850.85 127.476C854.206 120.225 861.531 114.176 876.488 114.176C894.494 114.176 898.458 122.637 900.893 127.476C904.561 136.342 901.502 137.552 896.008 137.552H855.423C847.802 137.558 848.912 131.679 850.85 127.476ZM267.189 111.358C281.225 105.716 313.262 100.478 323.636 100.478C334.01 100.478 375.203 99.6675 375.203 129.902V195.615H345.908V139.991C345.908 132.328 347.432 114.994 323.022 114.994C306.546 114.994 299.226 120.238 296.479 128.706V195.615H267.189V111.358ZM647.406 182.241C623.18 182.16 619.912 170.043 619.794 146.83C619.646 119.015 632.153 113.839 647.406 113.839C662.66 113.839 674.87 118.616 675.018 146.83C675.162 173.557 667.55 182.309 647.406 182.241V197C684.364 197 706.953 189.58 706.953 146.83C706.953 105.155 680.297 99.0863 647.406 99.0863C614.515 99.0863 587.86 107.331 587.86 146.83C587.86 187.438 605.584 197 647.406 197V182.241ZM777.559 135.545C777.559 118.812 774.203 112.967 764.131 112.967C751.016 112.967 749.486 120.63 749.486 128.692V195.601H720.191V111.358C734.228 105.716 756.51 100.478 766.878 100.478C777.247 100.478 808.987 98.0592 806.849 135.545H777.559ZM954.982 173.571C954.089 172.352 953.016 171.388 951.83 170.738C950.644 170.088 949.37 169.767 948.086 169.793C945.519 169.793 943.273 170.955 941.375 173.294C939.339 175.787 938.326 178.916 938.326 182.694C938.326 186.316 939.268 189.37 941.145 191.857C943.022 194.337 945.34 195.581 948.086 195.581C950.746 195.581 953.023 194.371 954.92 191.945C956.869 189.438 957.846 186.35 957.846 182.694C957.867 180.995 957.624 179.309 957.131 177.739C956.639 176.17 955.907 174.751 954.982 173.571ZM953.764 190.276C953.034 191.288 952.153 192.091 951.177 192.632C950.201 193.174 949.15 193.444 948.092 193.425C945.861 193.425 943.964 192.384 942.398 190.296C941.628 189.311 941.02 188.127 940.611 186.818C940.202 185.509 940.001 184.103 940.02 182.687C940.02 179.801 940.797 177.315 942.357 175.22C943.09 174.184 943.979 173.362 944.966 172.807C945.954 172.252 947.019 171.976 948.092 171.996C950.301 171.996 952.199 173.064 953.785 175.22C955.345 177.328 956.122 179.822 956.122 182.687C956.122 185.633 955.345 188.168 953.764 190.276Z" fill="black"/>
</g>
<defs>
<clipPath id="clip0_25_136">
<rect width="957" height="262" fill="white" transform="translate(0.847656)"/>
</clipPath>
</defs>
</svg>
