<svg width="937" height="262" viewBox="0 0 937 262" fill="none" xmlns="http://www.w3.org/2000/svg">
<g clip-path="url(#clip0_25_117)">
<path d="M18.0513 87.3877C29.6556 76.2906 45.1756 70.2297 61.2292 70.5255C70.2524 70.1667 79.2356 71.9089 87.4705 75.6148C95.7053 79.3206 102.967 84.8888 108.682 91.8803C118.213 103.753 123.064 118.707 122.318 133.914C121.571 149.121 115.279 163.527 104.631 174.41C98.899 180.063 92.0663 184.477 84.5572 187.38C77.0481 190.283 69.0226 191.612 60.9785 191.285C52.929 191.58 44.9051 190.212 37.4081 187.266C29.9111 184.32 23.1021 179.86 17.4063 174.164C11.7106 168.469 7.25054 161.66 4.30471 154.163C1.35889 146.666 -0.00939623 138.642 0.285327 130.592C0.333775 114.422 6.71086 98.9141 18.0513 87.3877ZM61.4535 159.58C65.1373 159.533 68.7738 158.743 72.145 157.257C75.5161 155.771 78.5525 153.62 81.0721 150.932C83.5917 148.244 85.5426 145.076 86.808 141.616C88.0733 138.156 88.6269 134.476 88.4356 130.797C88.6241 123.436 85.8922 116.3 80.8368 110.946C75.7813 105.593 68.813 102.457 61.4535 102.225C57.8006 102.289 54.1963 103.075 50.8483 104.537C47.5003 106 44.4746 108.11 41.9454 110.747C39.4161 113.383 37.4333 116.494 36.111 119.9C34.7887 123.306 34.153 126.94 34.2405 130.592C34.0305 134.307 34.577 138.025 35.8469 141.522C37.1168 145.019 39.0836 148.222 41.6282 150.936C44.1727 153.65 47.242 155.819 50.6499 157.312C54.0577 158.804 57.7332 159.589 61.4535 159.619" fill="#8472FC"/>
<path d="M140.824 74.3395H172.761V86.7091C176.892 81.2368 182.33 76.8876 188.576 74.0595C194.823 71.2313 201.679 70.0143 208.517 70.5198C215.832 70.3115 223.106 71.6681 229.854 74.4988C236.602 77.3295 242.667 81.5689 247.644 86.9334C258.281 99.4853 264.029 115.454 263.834 131.906C263.834 165.643 240.005 191.28 208.741 191.28C202.387 191.574 196.046 190.456 190.174 188.007C184.303 185.558 179.048 181.838 174.786 177.116V225.215H140.824V74.3395ZM201.768 159.574C205.516 159.572 209.226 158.822 212.68 157.366C216.134 155.911 219.262 153.78 221.881 151.098C224.499 148.417 226.556 145.239 227.929 141.752C229.303 138.264 229.965 134.538 229.878 130.791C229.956 127.038 229.277 123.307 227.884 119.821C226.49 116.336 224.41 113.166 221.766 110.5C219.123 107.834 215.97 105.728 212.496 104.305C209.022 102.882 205.298 102.173 201.544 102.219C197.693 102.04 193.853 102.737 190.311 104.257C186.768 105.777 183.617 108.08 181.093 110.993C176.279 116.405 173.497 123.322 173.223 130.56C173.179 134.345 173.885 138.1 175.299 141.611C176.713 145.122 178.807 148.318 181.462 151.016C184.116 153.714 187.278 155.861 190.765 157.332C194.253 158.803 197.996 159.569 201.781 159.587" fill="#8472FC"/>
<path d="M391.104 152.158C380.549 176.666 360.098 191.285 335.788 191.285C327.961 191.231 320.222 189.634 313.013 186.587C305.804 183.54 299.266 179.102 293.773 173.526C288.281 167.951 283.941 161.348 281.002 154.094C278.063 146.84 276.582 139.078 276.645 131.252C276.44 123.306 277.837 115.401 280.754 108.008C283.671 100.615 288.047 93.8846 293.621 88.2192C299.195 82.5538 305.853 78.0692 313.198 75.0329C320.543 71.9966 328.424 70.4708 336.372 70.5466C344.319 70.6224 352.17 72.2982 359.456 75.4741C366.742 78.6499 373.313 83.2607 378.778 89.0314C384.243 94.8021 388.49 101.614 391.265 109.062C394.04 116.51 395.287 124.44 394.93 132.38C394.979 135.482 394.678 138.581 394.033 141.616H309.472C310.136 147.621 313.065 153.148 317.661 157.07C322.257 160.992 328.176 163.015 334.211 162.726C338.119 162.92 342.019 162.208 345.608 160.647C349.196 159.087 352.376 156.719 354.899 153.728L356.476 152.158H391.104ZM361.2 118.869C359.953 113.086 356.683 107.938 351.978 104.352C347.274 100.766 341.443 98.9777 335.537 99.3085C329.655 98.9595 323.845 100.746 319.176 104.34C314.507 107.934 311.293 113.094 310.125 118.869H361.2Z" fill="#8472FC"/>
<path d="M412.458 74.3441H444.388V86.2651C446.893 80.87 451.18 76.502 456.527 73.8955C461.368 71.8163 466.559 70.6725 471.825 70.5244H472.722V104.493C453.155 104.941 445.958 110.562 445.958 124.944V187.464H412.458V74.3441Z" fill="#8472FC"/>
<path d="M572.767 175.318C567.371 186.111 555.911 191.283 537.69 191.283C503.735 191.283 480.342 166.544 480.342 130.794C480.342 95.2622 504.408 70.2988 538.588 70.2988C555.674 70.2988 566.473 75.4643 572.767 86.2638V74.3494H604.704V187.463H572.767V175.318ZM542.638 159.577C546.424 159.674 550.189 158.993 553.7 157.575C557.212 156.157 560.395 154.033 563.051 151.334C565.708 148.635 567.782 145.42 569.144 141.887C570.507 138.353 571.129 134.578 570.973 130.794C570.987 127.073 570.269 123.386 568.859 119.942C567.448 116.499 565.374 113.367 562.753 110.726C560.132 108.084 557.017 105.985 553.585 104.547C550.153 103.11 546.471 102.362 542.75 102.347C535.235 102.318 528.017 105.274 522.682 110.567C520.04 113.188 517.941 116.303 516.503 119.735C515.066 123.167 514.318 126.849 514.304 130.57C514.159 134.362 514.788 138.144 516.152 141.685C517.516 145.226 519.586 148.453 522.237 151.169C524.888 153.884 528.063 156.032 531.571 157.481C535.078 158.93 538.844 159.65 542.638 159.597" fill="#8472FC"/>
<path d="M634.623 99.9787H617.985V74.3424H634.623V36.7852H668.578V74.3424H684.774V99.9787H668.578V187.463H634.623V99.9787Z" fill="#8472FC"/>
<path d="M710.403 87.388C722.009 76.2921 737.528 70.2313 753.581 70.5258C762.605 70.1659 771.588 71.9077 779.823 75.6136C788.058 79.3195 795.32 84.8883 801.034 91.8806C810.569 103.752 815.423 118.706 814.676 133.914C813.93 149.122 807.635 163.53 796.984 174.41C788.266 182.64 777.346 188.16 765.55 190.3C753.754 192.44 741.59 191.106 730.538 186.462C719.485 181.817 710.02 174.062 703.293 164.139C696.566 154.216 692.866 142.552 692.644 130.566C692.7 114.407 699.074 98.9101 710.403 87.388ZM753.806 159.573C757.49 159.528 761.127 158.738 764.498 157.253C767.87 155.767 770.907 153.616 773.426 150.928C775.946 148.24 777.897 145.071 779.162 141.61C780.427 138.15 780.98 134.47 780.788 130.79C780.974 127.126 780.415 123.462 779.144 120.021C777.874 116.579 775.918 113.43 773.396 110.766C770.874 108.102 767.838 105.976 764.471 104.519C761.104 103.062 757.477 102.302 753.808 102.287C750.139 102.272 746.505 103.001 743.126 104.431C739.747 105.86 736.694 107.96 734.15 110.604C731.606 113.247 729.624 116.379 728.325 119.81C727.026 123.241 726.437 126.9 726.593 130.566C726.382 134.28 726.927 137.998 728.197 141.495C729.466 144.992 731.432 148.195 733.976 150.909C736.52 153.624 739.589 155.793 742.996 157.286C746.404 158.778 750.079 159.563 753.799 159.593" fill="#8472FC"/>
<path d="M833.174 74.3441H865.104V86.2651C867.611 80.8689 871.9 76.5008 877.249 73.8955C882.09 71.8157 887.281 70.6719 892.548 70.5244H893.438V104.493C873.878 104.941 866.68 110.562 866.68 124.944V187.464H833.174V74.3441Z" fill="#8472FC"/>
<path d="M936.386 152.827H901.309V187.455H936.386V152.827Z" fill="#8472FC"/>
</g>
<defs>
<clipPath id="clip0_25_117">
<rect width="936.14" height="262" fill="white" transform="translate(0.246094)"/>
</clipPath>
</defs>
</svg>
