<svg width="602" height="262" viewBox="0 0 602 262" fill="none" xmlns="http://www.w3.org/2000/svg">
<g clip-path="url(#clip0_25_71)">
<path d="M77.8058 80.8185H106.051C112.361 80.8185 113.864 82.0205 112.361 89.232L108.455 107.561C106.953 114.773 104.849 115.975 98.5391 115.975H70.2938L78.1063 80.8185H77.8058ZM80.2097 140.915L86.2193 181.179C88.3227 194.1 99.14 206.42 112.662 206.42H167.65C150.222 201.011 141.808 191.696 137.902 173.968L131.292 141.215C142.109 140.314 151.724 139.112 156.532 117.177L162.542 89.5325C167.95 64.292 158.635 56.4795 135.799 56.4795H27.9258C30.3297 62.4891 30.6302 67.8978 27.9258 82.3209L0.281494 206.119H54.6687C53.4668 200.41 53.1663 194.701 56.1711 180.278L64.8851 140.915H80.2097Z" fill="#00793F"/>
<path d="M292.051 84.1232C287.543 81.1184 286.041 80.8179 276.426 80.8179H241.87C235.26 80.8179 231.654 83.2218 229.851 90.4333L212.122 171.563C210.62 178.775 213.324 181.179 219.935 181.179H247.88C268.012 181.179 280.332 179.977 286.341 175.47C286.341 175.47 271.918 205.818 242.772 206.119H188.084C166.75 206.119 157.435 194.4 164.346 161.948L177.868 100.049C184.779 67.5967 199.502 55.8779 220.536 55.8779H297.76L291.75 84.1232H292.051Z" fill="#00793F"/>
<path d="M348.84 140.916H377.986C384.297 140.916 385.799 142.118 384.297 149.329L379.188 172.767C377.686 179.979 375.583 181.181 369.273 181.181H340.126L348.84 140.916ZM362.061 80.8196H391.208C397.518 80.8196 399.02 82.0215 397.518 89.2331L393.612 107.562C392.109 114.774 390.006 115.976 383.696 115.976H354.549L362.361 80.8196H362.061ZM290.246 180.279C287.241 194.702 284.236 200.111 280.63 206.121H387.902C415.547 206.121 424.561 193.5 428.768 175.171L434.177 150.231C437.782 134.305 431.472 131.301 410.439 128.296V127.695C429.068 126.192 440.186 122.887 444.093 103.656L447.698 86.5287C451.605 68.1993 447.999 55.5791 420.354 55.5791H313.082C314.284 61.5887 314.585 66.9974 311.58 81.4205L290.246 179.979V180.279Z" fill="#00793F"/>
<path d="M588.625 85.6273C583.217 82.6225 579.01 80.8196 569.395 80.8196H522.82C515.007 80.8196 512.904 82.0215 511.702 87.4302L508.697 98.548C507.495 104.257 508.998 105.159 516.81 105.159H557.075C579.911 105.159 582.916 114.774 578.409 136.409L571.498 169.161C566.39 192.899 556.173 206.121 532.135 206.121H415.548C439.586 197.106 445.596 175.471 445.596 175.471C449.803 178.176 453.108 181.181 462.723 181.181H511.101C518.914 181.181 520.717 180.279 521.918 174.57L524.923 162.551C526.125 157.142 524.923 156.241 517.411 156.241H475.344C455.512 156.241 449.202 148.728 454.911 123.488L462.123 91.3364C467.231 67.8989 479.851 55.5791 497.579 55.5791H594.635L588.325 85.3268L588.625 85.6273Z" fill="#00793F"/>
<path d="M592.532 203.414C588.626 203.414 585.32 199.809 585.32 195.301C585.32 190.794 588.626 187.188 592.532 187.188C596.438 187.188 599.743 190.794 599.743 195.301C599.743 199.809 596.438 203.414 592.532 203.414ZM592.532 205.518C597.34 205.518 601.246 201.011 601.246 195.301C601.246 189.592 597.34 185.085 592.532 185.085C587.724 185.085 583.818 189.592 583.818 195.301C583.818 201.011 587.724 205.518 592.532 205.518ZM594.635 196.203C596.438 196.203 597.34 195.301 597.34 193.198C597.34 191.095 597.34 191.095 596.138 190.494C595.537 189.893 594.335 189.893 593.433 189.893H588.926V200.71H590.729V196.203H592.532L594.635 200.71H596.739L594.335 196.203H594.635ZM590.729 194.7V191.696H593.133C594.034 191.696 595.537 191.696 595.537 193.198C595.537 194.7 594.936 195.001 593.734 195.001H591.029L590.729 194.7Z" fill="#00793F"/>
</g>
<defs>
<clipPath id="clip0_25_71">
<rect width="600.964" height="262" fill="white" transform="translate(0.281494)"/>
</clipPath>
</defs>
</svg>
