<svg width="955" height="262" viewBox="0 0 955 262" fill="none" xmlns="http://www.w3.org/2000/svg">
<g clip-path="url(#clip0_25_129)">
<path d="M290.592 124.024V51.3027H261.798V30.2763H345.769V51.3027H317.109V124.024H290.592Z" fill="black"/>
<path d="M353.005 124.024V51.4366H377.245V72.5969L373.629 66.5702C375.772 61.1239 379.254 57.0615 384.075 54.383C388.897 51.6152 394.745 50.2313 401.62 50.2313V73.1326C400.459 72.954 399.432 72.8648 398.539 72.8648C397.736 72.7755 396.843 72.7308 395.861 72.7308C390.682 72.7308 386.486 74.1594 383.272 77.0165C380.058 79.7843 378.45 84.3377 378.45 90.6769V124.024H353.005Z" fill="black"/>
<path d="M452.134 124.024V110.498L450.393 107.15V82.2396C450.393 78.2218 449.143 75.1415 446.643 72.9987C444.232 70.7666 440.348 69.6505 434.991 69.6505C431.509 69.6505 427.982 70.2309 424.411 71.3916C420.84 72.463 417.804 73.9808 415.304 75.9451L406.733 58.6686C410.84 55.9901 415.751 53.9366 421.465 52.508C427.268 50.9902 433.027 50.2313 438.741 50.2313C450.527 50.2313 459.634 52.9544 466.062 58.4008C472.58 63.7578 475.839 72.1951 475.839 83.7128V124.024H452.134ZM430.706 125.23C424.902 125.23 419.992 124.248 415.974 122.283C411.956 120.319 408.876 117.641 406.733 114.248C404.679 110.855 403.653 107.061 403.653 102.864C403.653 98.4 404.769 94.5608 407.001 91.3465C409.322 88.043 412.849 85.5431 417.581 83.8467C422.313 82.061 428.429 81.1682 435.929 81.1682H453.071V94.4268H439.411C435.304 94.4268 432.402 95.0965 430.706 96.4357C429.099 97.775 428.295 99.5607 428.295 101.793C428.295 104.025 429.143 105.811 430.84 107.15C432.536 108.489 434.857 109.159 437.804 109.159C440.572 109.159 443.071 108.489 445.304 107.15C447.625 105.721 449.321 103.578 450.393 100.721L453.875 110.096C452.536 115.096 449.902 118.891 445.973 121.48C442.134 123.98 437.045 125.23 430.706 125.23Z" fill="black"/>
<path d="M529.913 125.23C521.878 125.23 514.69 123.623 508.351 120.408C502.101 117.194 497.191 112.775 493.619 107.15C490.048 101.436 488.262 94.9179 488.262 87.5966C488.262 80.2753 490.048 73.8022 493.619 68.1774C497.191 62.5525 502.101 58.1775 508.351 55.0526C514.69 51.8384 521.878 50.2313 529.913 50.2313C538.127 50.2313 545.226 51.9723 551.208 55.4544C557.19 58.9365 561.431 63.8471 563.931 70.1862L544.243 80.2307C542.547 76.8379 540.449 74.3826 537.949 72.8648C535.449 71.2577 532.726 70.4541 529.779 70.4541C526.833 70.4541 524.155 71.1237 521.744 72.463C519.333 73.8022 517.414 75.7665 515.985 78.3557C514.646 80.8557 513.976 83.936 513.976 87.5966C513.976 91.3465 514.646 94.5161 515.985 97.1054C517.414 99.6946 519.333 101.659 521.744 102.998C524.155 104.337 526.833 105.007 529.779 105.007C532.726 105.007 535.449 104.248 537.949 102.73C540.449 101.123 542.547 98.6232 544.243 95.2304L563.931 105.275C561.431 111.614 557.19 116.525 551.208 120.007C545.226 123.489 538.127 125.23 529.913 125.23Z" fill="black"/>
<path d="M594.41 110.632L595.08 80.2307L624.677 51.4366H654.811L621.999 85.3199L609.008 95.7661L594.41 110.632ZM573.25 124.024V24.6514H598.696V124.024H573.25ZM626.552 124.024L604.321 96.1679L620.124 76.6147L657.355 124.024H626.552Z" fill="black"/>
<path d="M665.062 124.024V51.4366H690.508V124.024H665.062ZM677.785 47.5862C673.143 47.5862 669.393 46.2916 666.536 43.7024C663.679 41.1132 662.25 37.8989 662.25 34.0597C662.25 30.2205 663.679 27.0063 666.536 24.4171C669.393 21.8278 673.143 20.5332 677.785 20.5332C682.428 20.5332 686.178 21.7832 689.035 24.2831C691.892 26.6938 693.321 29.8187 693.321 33.6579C693.321 37.6757 691.892 41.0239 689.035 43.7024C686.267 46.2916 682.517 47.5862 677.785 47.5862Z" fill="black"/>
<path d="M754.321 50.2313C759.946 50.2313 765.035 51.392 769.588 53.7133C774.142 55.9454 777.713 59.4275 780.303 64.1596C782.981 68.8916 784.32 75.0076 784.32 82.5074V124.024H758.874V86.6591C758.874 81.4807 757.803 77.7307 755.66 75.4094C753.607 72.9987 750.705 71.7934 746.955 71.7934C744.276 71.7934 741.821 72.4183 739.589 73.6683C737.357 74.829 735.616 76.6593 734.366 79.1593C733.116 81.6592 732.491 84.9181 732.491 88.9359V124.024H707.045V51.4366H731.286V72.0612L726.598 66.0345C729.366 60.7668 733.161 56.8383 737.982 54.2491C742.803 51.5705 748.25 50.2313 754.321 50.2313Z" fill="black"/>
<path d="M836.702 151.211C829.738 151.211 823.086 150.408 816.747 148.801C810.497 147.194 805.14 144.828 800.676 141.703L809.917 123.891C812.953 126.301 816.703 128.176 821.167 129.515C825.72 130.944 830.14 131.658 834.425 131.658C841.3 131.658 846.255 130.14 849.291 127.105C852.327 124.158 853.845 119.828 853.845 114.114V105.543L855.184 85.1859L855.05 64.6953V51.4366H879.291V110.766C879.291 124.516 875.585 134.694 868.175 141.301C860.764 147.908 850.273 151.211 836.702 151.211ZM832.283 120.275C825.854 120.275 819.917 118.846 814.47 115.989C809.113 113.043 804.783 108.98 801.48 103.802C798.265 98.5339 796.658 92.3287 796.658 85.1859C796.658 78.0432 798.265 71.8826 801.48 66.7042C804.783 61.4364 809.113 57.374 814.47 54.5169C819.917 51.6598 825.854 50.2313 832.283 50.2313C838.443 50.2313 843.711 51.4813 848.086 53.9812C852.461 56.3919 855.764 60.1864 857.996 65.3649C860.318 70.5434 861.478 77.1504 861.478 85.1859C861.478 93.2215 860.318 99.8285 857.996 105.007C855.764 110.185 852.461 114.025 848.086 116.525C843.711 119.025 838.443 120.275 832.283 120.275ZM838.309 100.052C841.345 100.052 844.023 99.4267 846.345 98.1768C848.755 96.9268 850.63 95.1858 851.97 92.9537C853.398 90.7215 854.112 88.1323 854.112 85.1859C854.112 82.2396 853.398 79.6503 851.97 77.4182C850.63 75.1861 848.755 73.4897 846.345 72.3291C844.023 71.0791 841.345 70.4541 838.309 70.4541C835.274 70.4541 832.55 71.0791 830.14 72.3291C827.729 73.4897 825.809 75.1861 824.381 77.4182C823.042 79.6503 822.372 82.2396 822.372 85.1859C822.372 88.1323 823.042 90.7215 824.381 92.9537C825.809 95.1858 827.729 96.9268 830.14 98.1768C832.55 99.4267 835.274 100.052 838.309 100.052Z" fill="black"/>
<path d="M313.895 236.109C300.056 236.109 289.253 232.315 281.485 224.726C273.717 217.136 269.833 206.378 269.833 192.449V140.486H296.351V191.646C296.351 199.681 297.913 205.44 301.038 208.922C304.252 212.404 308.627 214.145 314.163 214.145C319.698 214.145 324.029 212.404 327.154 208.922C330.279 205.44 331.841 199.681 331.841 191.646V140.486H357.957V192.449C357.957 206.378 354.073 217.136 346.305 224.726C338.537 232.315 327.734 236.109 313.895 236.109Z" fill="black"/>
<path d="M421.991 160.441C427.616 160.441 432.705 161.602 437.259 163.923C441.812 166.155 445.383 169.637 447.973 174.369C450.651 179.102 451.99 185.217 451.99 192.717V234.234H426.545V196.869C426.545 191.691 425.473 187.941 423.33 185.619C421.277 183.209 418.375 182.003 414.625 182.003C411.947 182.003 409.491 182.628 407.259 183.878C405.027 185.039 403.286 186.869 402.036 189.369C400.786 191.869 400.161 195.128 400.161 199.146V234.234H374.715V161.646H398.956V182.271L394.268 176.244C397.036 170.977 400.831 167.048 405.652 164.459C410.473 161.78 415.92 160.441 421.991 160.441Z" fill="black"/>
<path d="M467.966 234.234V134.861H493.412V234.234H467.966Z" fill="black"/>
<path d="M509.949 234.234V161.646H535.395V234.234H509.949ZM522.672 157.796C518.029 157.796 514.279 156.501 511.422 153.912C508.565 151.323 507.137 148.109 507.137 144.27C507.137 140.43 508.565 137.216 511.422 134.627C514.279 132.038 518.029 130.743 522.672 130.743C527.315 130.743 531.065 131.993 533.922 134.493C536.779 136.904 538.207 140.029 538.207 143.868C538.207 147.886 536.779 151.234 533.922 153.912C531.154 156.501 527.404 157.796 522.672 157.796Z" fill="black"/>
<path d="M646.483 160.441C652.108 160.441 657.108 161.602 661.483 163.923C665.947 166.155 669.429 169.637 671.929 174.369C674.518 179.102 675.813 185.217 675.813 192.717V234.234H650.367V196.869C650.367 191.691 649.385 187.941 647.421 185.619C645.457 183.209 642.778 182.003 639.385 182.003C636.975 182.003 634.787 182.584 632.823 183.744C630.859 184.905 629.341 186.691 628.269 189.101C627.198 191.423 626.662 194.458 626.662 198.208V234.234H601.216V196.869C601.216 191.691 600.234 187.941 598.27 185.619C596.395 183.209 593.717 182.003 590.234 182.003C587.734 182.003 585.502 182.584 583.538 183.744C581.663 184.905 580.145 186.691 578.985 189.101C577.913 191.423 577.378 194.458 577.378 198.208V234.234H551.932V161.646H576.172V181.869L571.351 176.11C574.029 170.932 577.69 167.048 582.333 164.459C586.976 161.78 592.154 160.441 597.868 160.441C604.386 160.441 610.1 162.138 615.011 165.53C620.011 168.834 623.359 174.012 625.055 181.066L616.752 179.325C619.341 173.432 623.225 168.834 628.403 165.53C633.671 162.138 639.698 160.441 646.483 160.441Z" fill="black"/>
<path d="M691.874 234.234V161.646H717.32V234.234H691.874ZM704.597 157.796C699.954 157.796 696.204 156.501 693.347 153.912C690.49 151.323 689.061 148.109 689.061 144.27C689.061 140.43 690.49 137.216 693.347 134.627C696.204 132.038 699.954 130.743 704.597 130.743C709.24 130.743 712.989 131.993 715.846 134.493C718.704 136.904 720.132 140.029 720.132 143.868C720.132 147.886 718.704 151.234 715.846 153.912C713.079 156.501 709.329 157.796 704.597 157.796Z" fill="black"/>
<path d="M766.266 235.44C756.981 235.44 749.749 233.163 744.57 228.609C739.392 223.967 736.803 217.003 736.803 207.717V145.441H762.249V207.449C762.249 210.038 762.963 212.092 764.391 213.61C765.82 215.038 767.65 215.753 769.882 215.753C772.918 215.753 775.507 214.994 777.65 213.476L783.945 231.288C781.802 232.717 779.168 233.743 776.043 234.368C772.918 235.083 769.659 235.44 766.266 235.44ZM726.223 183.342V164.325H778.856V183.342H726.223Z" fill="black"/>
<path d="M829.699 235.44C821.128 235.44 813.628 233.833 807.2 230.618C800.861 227.315 795.905 222.851 792.334 217.226C788.852 211.512 787.111 205.038 787.111 197.807C787.111 190.575 788.807 184.146 792.2 178.521C795.682 172.807 800.459 168.387 806.53 165.262C812.601 162.048 819.432 160.441 827.021 160.441C834.163 160.441 840.681 161.914 846.574 164.861C852.467 167.718 857.154 171.959 860.636 177.584C864.118 183.209 865.859 190.039 865.859 198.074C865.859 198.967 865.815 199.994 865.725 201.155C865.636 202.315 865.547 203.387 865.457 204.369H808.003V190.976H851.931L842.288 194.726C842.378 191.423 841.753 188.566 840.413 186.155C839.163 183.744 837.378 181.869 835.056 180.53C832.824 179.191 830.19 178.521 827.155 178.521C824.119 178.521 821.44 179.191 819.119 180.53C816.887 181.869 815.146 183.789 813.896 186.289C812.646 188.7 812.021 191.557 812.021 194.86V198.744C812.021 202.315 812.735 205.396 814.164 207.985C815.682 210.574 817.824 212.583 820.592 214.012C823.36 215.351 826.664 216.02 830.503 216.02C834.074 216.02 837.11 215.529 839.61 214.547C842.199 213.476 844.744 211.869 847.244 209.726L860.636 223.654C857.154 227.493 852.868 230.44 847.779 232.493C842.69 234.458 836.663 235.44 829.699 235.44Z" fill="black"/>
<path d="M909.198 235.44C902.591 235.44 896.564 233.922 891.118 230.886C885.761 227.761 881.475 223.431 878.261 217.895C875.047 212.27 873.44 205.574 873.44 197.807C873.44 190.128 875.047 183.521 878.261 177.985C881.475 172.361 885.761 168.03 891.118 164.995C896.564 161.959 902.591 160.441 909.198 160.441C915.448 160.441 920.715 161.78 925.001 164.459C929.376 167.137 932.68 171.245 934.912 176.78C937.144 182.316 938.26 189.325 938.26 197.807C938.26 206.467 937.188 213.565 935.046 219.101C932.903 224.636 929.689 228.743 925.403 231.422C921.117 234.1 915.716 235.44 909.198 235.44ZM914.555 215.217C917.412 215.217 919.957 214.547 922.189 213.208C924.51 211.869 926.34 209.904 927.68 207.315C929.019 204.637 929.689 201.467 929.689 197.807C929.689 194.146 929.019 191.066 927.68 188.566C926.34 185.976 924.51 184.012 922.189 182.673C919.957 181.334 917.412 180.664 914.555 180.664C911.609 180.664 908.975 181.334 906.653 182.673C904.421 184.012 902.635 185.976 901.296 188.566C899.957 191.066 899.287 194.146 899.287 197.807C899.287 201.467 899.957 204.637 901.296 207.315C902.635 209.904 904.421 211.869 906.653 213.208C908.975 214.547 911.609 215.217 914.555 215.217ZM930.492 234.234V221.779L930.626 197.807L929.287 173.834V134.861H954.733V234.234H930.492Z" fill="black"/>
<path fill-rule="evenodd" clip-rule="evenodd" d="M212.929 186.878C215.236 182.856 217.301 178.68 219.106 174.369C224.695 161.015 227.781 146.365 227.781 131C227.781 115.635 224.695 100.985 219.106 87.6313C217.301 83.32 215.236 79.1437 212.929 75.1219C210.599 71.0593 208.023 67.1543 205.221 63.427C193.172 70.3187 187.871 85.2708 193.368 98.4035C197.556 108.409 199.88 119.401 199.88 131C199.88 142.599 197.556 153.591 193.368 163.596C187.871 176.729 193.172 191.681 205.221 198.573C208.023 194.846 210.599 190.941 212.929 186.878ZM181.804 221.778C175 209.662 160.068 204.249 146.888 209.665C136.821 213.801 125.759 216.099 114.083 216.099C102.407 216.099 91.3453 213.801 81.2787 209.665C68.0987 204.249 53.167 209.662 46.3626 221.778C50.1114 224.545 54.0376 227.088 58.1211 229.387C62.1585 231.66 66.3496 233.695 70.6751 235.472C84.0503 240.968 98.7105 244 114.083 244C129.456 244 144.116 240.968 157.491 235.472C161.817 233.695 166.008 231.66 170.045 229.387C174.129 227.088 178.055 224.545 181.804 221.778ZM22.9458 198.573C34.9942 191.681 40.2951 176.729 34.7986 163.596C30.6108 153.591 28.287 142.599 28.287 131C28.287 119.401 30.6108 108.409 34.7985 98.4035C40.2951 85.2708 34.9942 70.3187 22.9458 63.427C20.1434 67.1544 17.5672 71.0593 15.2371 75.1219C12.9304 79.1437 10.8651 83.32 9.06068 87.6313C3.47149 100.985 0.385742 115.635 0.385742 131C0.385742 146.365 3.47149 161.015 9.06069 174.369C10.8651 178.68 12.9305 182.856 15.2371 186.878C17.5672 190.941 20.1435 194.846 22.9458 198.573ZM46.3625 40.2222C53.167 52.3379 68.0987 57.7507 81.2787 52.3354C91.3453 48.1994 102.407 45.9012 114.083 45.9012C125.759 45.9012 136.821 48.1994 146.888 52.3354C160.068 57.7507 175 52.3379 181.804 40.2222C178.055 37.4552 174.129 34.9121 170.045 32.6129C166.008 30.3397 161.817 28.3049 157.491 26.5277C144.116 21.0322 129.456 18 114.083 18C98.7105 18 84.0502 21.0322 70.6751 26.5277C66.3496 28.3049 62.1585 30.3397 58.1211 32.6129C54.0376 34.9121 50.1114 37.4552 46.3625 40.2222Z" fill="#00AB55"/>
</g>
<defs>
<clipPath id="clip0_25_129">
<rect width="954.347" height="262" fill="white" transform="translate(0.385742)"/>
</clipPath>
</defs>
</svg>
