<svg width="925" height="262" viewBox="0 0 925 262" fill="none" xmlns="http://www.w3.org/2000/svg">
<g clip-path="url(#clip0_25_67)">
<mask id="mask0_25_67" style="mask-type:luminance" maskUnits="userSpaceOnUse" x="0" y="13" width="925" height="235">
<path d="M0 13.9981H925V248H0V13.9981Z" fill="white"/>
</mask>
<g mask="url(#mask0_25_67)">
<path d="M2.17297 248H922.827V16.1697H2.17297V248Z" fill="#231F20"/>
<path d="M2.17297 249.609H922.827V16.1701H2.17297V249.609Z" stroke="#231F20" stroke-width="1.36875"/>
</g>
<path d="M24.9713 229.03H900.029V36.749H24.9713V229.03Z" fill="#EE293D"/>
<path d="M24.9713 229.03H900.029V36.749H24.9713V229.03Z" stroke="#EE293D" stroke-width="2.28"/>
<path d="M68.5818 169.84L84.1184 190.102H133.902V162.29H97.2595V103.485H133.902V75.6768H84.1184L68.5818 95.9392V169.84Z" fill="white"/>
<path d="M176.42 123.751H189.961V103.488H176.42V123.751ZM200.299 75.6807L219.415 97.4886V131.26L206.671 146.359L228.977 190.062H197.912L176.404 147.885V190.062H147.726V75.6807H200.299Z" fill="white"/>
<path d="M269.274 127.325H285.204V103.485H269.274V127.325ZM269.274 155.934V190.102H239.798V95.9392L257.325 75.6768H297.153L314.68 95.9392V190.102H285.204V155.934H269.274Z" fill="white"/>
<path d="M331.706 75.6768V190.102H360.384V149.577H388.259V124.543H360.384V103.485H388.259V75.6768H331.706Z" fill="white"/>
<path d="M475.369 75.6768H406.068L396.51 103.485H421.517V190.102H450.195V103.485H466.427L475.369 75.6768Z" fill="white"/>
<path d="M520.342 160.301L480.915 103.485L490.075 75.6768H552.607L543.045 103.485H515.563L554.2 159.112L544.241 190.102H477.725L487.716 160.301H520.342Z" fill="white"/>
<path d="M616.728 120.172L635.45 75.6768H666.118V190.102H637.44V144.81L623.497 176.989H609.958L596.019 144.81V190.102H567.345V75.6768H598.009L616.728 120.172Z" fill="white"/>
<path d="M826.529 190.102H855.203V75.6768H826.529V118.587L807.012 75.6768H778.334V190.102H807.012V147.192L826.529 190.102Z" fill="white"/>
<path d="M715.505 127.325H731.435V103.485H715.505V127.325ZM715.505 155.934V190.102H686.032V95.9392L703.555 75.6768H743.384L760.911 95.9392V190.102H731.434V155.934H715.505Z" fill="white"/>
<path d="M881.215 87.1765C881.218 92.2372 877.604 95.6374 873.349 95.6413V95.6128C868.979 95.6413 865.452 92.2404 865.452 87.1837C865.449 82.127 868.971 78.7546 873.341 78.7506C877.596 78.7506 881.211 82.1199 881.215 87.1765ZM884.389 87.1765C884.386 80.2295 879.169 76.1914 873.341 76.1953C867.486 76.1985 862.27 80.2414 862.274 87.1884C862.277 94.1354 867.494 98.1736 873.349 98.1696C879.181 98.1665 884.393 94.1235 884.389 87.1765ZM871.51 88.1118H872.706L875.447 93.0813H878.446L875.415 87.9057C876.988 87.791 878.271 87.0061 878.271 84.8265C878.268 82.1199 876.46 81.252 873.401 81.252L868.971 81.2552L868.978 93.0844L871.512 93.0813L871.51 88.1118ZM871.51 86.1066L871.507 83.2612L873.286 83.258C874.248 83.258 875.559 83.3452 875.563 84.5658C875.563 85.8736 874.891 86.1073 873.755 86.1073L871.51 86.1066Z" fill="white"/>
</g>
<defs>
<clipPath id="clip0_25_67">
<rect width="925" height="234" fill="white" transform="translate(0 14)"/>
</clipPath>
</defs>
</svg>
