<svg width="697" height="262" viewBox="0 0 697 262" fill="none" xmlns="http://www.w3.org/2000/svg">
<g clip-path="url(#clip0_25_89)">
<path d="M34.2734 46.3555H0.714111V171.909H17.7861C17.7861 171.909 29.1284 171.909 34.2734 171.909C79.1749 171.909 99.4625 144.479 99.4625 109.162C99.4625 73.7853 79.1749 46.3555 34.2734 46.3555ZM38.8921 155.545H17.7861V62.6603H38.8921C55.5548 62.6603 81.2212 75.198 81.2212 109.103C81.2212 142.949 55.5548 155.545 38.8921 155.545Z" fill="#2A80E6"/>
<path d="M110.396 171.851L128.286 156.782V72.9033L110.396 88.0309V171.851Z" fill="#2A80E6"/>
<path d="M192.54 75.5521C165.704 75.5521 143.955 97.4489 143.955 124.467C143.955 151.484 165.704 173.381 192.54 173.381C204.057 173.381 214.64 169.32 222.942 162.609V171.851L240.832 156.723V72.9033L223.936 87.2069C215.458 79.9668 204.525 75.5521 192.54 75.5521ZM192.54 157.076C175.76 157.076 162.138 142.479 162.138 124.526C162.138 106.573 175.76 91.9747 192.54 91.9747C209.319 91.9747 222.942 106.573 222.942 124.526C222.942 142.479 209.319 157.076 192.54 157.076Z" fill="#2A80E6"/>
<path d="M301.345 75.5521C274.509 75.5521 252.76 97.4489 252.76 124.467C252.76 151.485 274.509 173.381 301.345 173.381C312.862 173.381 323.445 169.32 331.747 162.609V162.904C331.747 180.916 318.124 195.455 301.345 195.455C292.984 195.455 285.442 191.864 279.946 186.037L265.564 195.69C274.45 205.226 287.021 211.171 301.052 211.171C327.888 211.171 349.637 189.274 349.637 162.256V72.9033L332.741 87.2069C324.263 79.9668 313.33 75.5521 301.345 75.5521ZM301.345 157.076C284.565 157.076 270.943 142.479 270.943 124.526C270.943 106.573 284.565 91.9747 301.345 91.9747C318.124 91.9747 331.747 106.573 331.747 124.526C331.747 142.479 318.183 157.076 301.345 157.076Z" fill="#2A80E6"/>
<path d="M383.138 79.3782V72.9033L365.247 88.0309V171.91L383.138 156.782V96.1539C412.02 84.7346 426.928 93.8583 426.928 118.463V171.851L444.819 156.723V112.459C444.819 74.5515 410.266 70.6077 383.138 79.3782Z" fill="#2A80E6"/>
<path d="M592.503 113.164C584.142 109.632 578.822 107.337 578.822 101.686C578.822 95.4464 587.709 87.088 605.073 92.7976C607.879 88.3241 613.609 79.0827 613.609 79.0827C608.406 76.6694 601.916 75.0801 594.14 75.0801C584.201 75.0801 561.75 81.2606 561.75 103.687C561.75 116.813 576.016 124.701 583.441 127.644C590.866 130.587 608.523 135.591 607.704 143.36C606.944 150.424 601.39 156.133 590.866 156.133C581.102 156.133 572.742 150.718 570.286 148.776L561.692 162.667C571.455 169.024 580.401 171.85 592.211 171.85C603.962 171.85 624.659 165.905 624.659 141.418C624.718 123.288 600.864 116.696 592.503 113.164Z" fill="#2A80E6"/>
<path d="M664.591 113.164C656.23 109.632 650.91 107.337 650.91 101.686C650.91 95.4464 659.797 87.088 677.161 92.7976C679.967 88.3241 685.697 79.0827 685.697 79.0827C680.493 76.6694 674.004 75.0801 666.228 75.0801C656.289 75.0801 633.838 81.2606 633.838 103.687C633.838 116.813 648.103 124.701 655.529 127.644C662.954 130.587 680.61 135.591 679.792 143.36C679.032 150.424 673.477 156.133 662.954 156.133C653.19 156.133 644.829 150.718 642.374 148.776L633.779 162.667C643.543 169.024 652.488 171.85 664.298 171.85C676.108 171.85 696.747 165.905 696.747 141.418C696.805 123.288 672.951 116.696 664.591 113.164Z" fill="#2A80E6"/>
<path d="M110.396 65.4274L128.286 50.2998H110.396V65.4274Z" fill="#2A80E6"/>
<path d="M582.388 176.736C579.056 176.736 576.425 179.385 576.308 182.681L534.213 186.801C533.511 183.211 530.354 180.503 526.612 180.503C526.027 180.503 525.443 180.562 524.858 180.738L521.409 170.555C540.293 163.845 553.857 145.715 553.857 124.407C553.857 111.163 548.595 99.1553 540.118 90.326L546.49 83.91C548.186 85.3815 550.408 86.2645 552.863 86.2645C558.3 86.2645 562.685 81.8498 562.685 76.3756C562.685 70.9014 558.3 66.4867 552.863 66.4867C549.94 66.4867 547.309 67.7817 545.555 69.8419L520.766 50.9471C521.233 50.0641 521.584 49.0635 521.584 48.004C521.584 44.7077 518.895 42 515.621 42C512.58 42 510.125 44.2956 509.774 47.2387H482.938C482.587 44.7665 480.483 42.9418 477.969 42.9418C475.162 42.9418 472.882 45.2374 472.882 48.0628C472.882 49.1223 473.175 50.0641 473.701 50.8882L457.506 65.7215C456.278 64.662 454.699 63.9556 452.945 63.9556C449.087 63.9556 445.988 67.0753 445.988 70.9603C445.988 74.8452 449.087 77.9649 452.945 77.9649C454.582 77.9649 456.044 77.3762 457.213 76.4344L470.602 90.2082C462.008 99.0376 456.746 111.104 456.746 124.407C456.746 137.004 461.481 148.482 469.257 157.194L456.161 169.496C455.109 168.613 453.705 168.024 452.244 168.024C448.853 168.024 446.046 170.791 446.046 174.264C446.046 177.678 448.794 180.503 452.244 180.503C453.705 180.503 455.05 179.973 456.103 179.09L481.477 203.754C480.073 205.461 479.196 207.697 479.196 210.052C479.196 215.526 483.64 220 489.077 220C494.281 220 498.49 215.938 498.899 210.817H550.115C550.524 214.29 553.389 216.998 556.897 216.998C560.697 216.998 563.796 213.878 563.796 210.052C563.796 208.345 563.153 206.814 562.159 205.578L578.822 187.802C579.816 188.567 581.044 188.979 582.388 188.979C585.779 188.979 588.469 186.213 588.469 182.857C588.469 179.502 585.721 176.736 582.388 176.736ZM505.272 157.076C488.492 157.076 474.87 142.478 474.87 124.525C474.87 106.572 488.492 91.9741 505.272 91.9741C522.052 91.9741 535.674 106.572 535.674 124.525C535.674 142.478 522.052 157.076 505.272 157.076ZM515.621 54.1256C517.258 54.1256 518.778 53.4193 519.83 52.3598L544.619 71.1957C543.626 72.7261 543.041 74.5509 543.041 76.4933C543.041 78.9655 543.918 81.2023 545.38 82.9093L539.007 89.3253C531.874 82.4384 522.695 77.6706 512.463 76.1401L515.621 54.1256ZM514.042 53.8902L511.002 75.9047C509.131 75.6692 507.201 75.5515 505.272 75.5515C499.25 75.5515 493.521 76.6699 488.2 78.6712L486.388 73.9622C487.674 73.197 488.551 71.7843 488.551 70.1362C488.551 69.4887 488.376 68.8412 488.142 68.2526L511.236 52.1243C511.996 52.9484 512.931 53.5959 514.042 53.8902ZM482.938 48.8869H509.774C509.891 49.5932 510.066 50.2407 510.359 50.8293L487.265 66.9576C486.446 66.1335 485.335 65.6038 484.108 65.6038C483.932 65.6038 483.815 65.6626 483.64 65.6626L480.015 52.7129C481.535 52.0655 482.646 50.6528 482.938 48.8869ZM474.753 52.0655C475.63 52.7718 476.741 53.2427 477.91 53.2427C478.144 53.2427 478.319 53.1838 478.495 53.1838L482.12 66.1335C480.834 66.781 479.84 68.0171 479.664 69.4887L459.727 70.0773C459.552 68.9001 459.143 67.8406 458.5 66.9576L474.753 52.0655ZM459.844 71.6077L479.723 71.0191C480.132 73.0793 481.944 74.6097 484.108 74.6097C484.4 74.6097 484.692 74.5509 484.985 74.5509L486.797 79.2598C481.126 81.6143 476.039 85.0283 471.654 89.2076L458.324 75.4338C459.143 74.3743 459.727 73.0204 459.844 71.6077ZM489.077 200.163C486.563 200.163 484.283 201.105 482.529 202.694L457.155 178.031C457.915 176.971 458.383 175.735 458.383 174.322C458.383 172.969 457.915 171.733 457.213 170.673L470.31 158.371C476.975 165.317 485.628 170.32 495.391 172.38L490.188 200.222C489.779 200.163 489.428 200.163 489.077 200.163ZM491.65 200.516L496.853 172.674C499.601 173.145 502.407 173.44 505.331 173.44C510.417 173.44 515.387 172.615 520.005 171.144L523.455 181.327C520.766 182.563 518.895 185.271 518.895 188.391C518.895 189.509 519.128 190.627 519.596 191.569L497.262 204.519C495.918 202.576 493.93 201.105 491.65 200.516ZM550.057 209.346H498.841C498.724 208.109 498.432 206.932 497.905 205.873L520.239 192.923C521.643 194.924 523.923 196.219 526.495 196.219C528.834 196.219 530.88 195.16 532.283 193.512L550.758 206.756C550.466 207.521 550.174 208.404 550.057 209.346ZM560.99 204.578C559.821 203.695 558.417 203.165 556.897 203.165C554.851 203.165 553.039 204.048 551.811 205.461L533.336 192.217C533.979 191.098 534.388 189.803 534.388 188.391L576.483 184.27C576.717 185.212 577.126 186.095 577.711 186.801L560.99 204.578Z" fill="#2A80E6"/>
</g>
<defs>
<clipPath id="clip0_25_89">
<rect width="696.033" height="262" fill="white" transform="translate(0.714111)"/>
</clipPath>
</defs>
</svg>
