<svg width="973" height="262" viewBox="0 0 973 262" fill="none" xmlns="http://www.w3.org/2000/svg">
<g clip-path="url(#clip0_25_107)">
<path d="M194.148 131C194.148 184.453 150.9 227.701 97.4475 227.701C43.995 227.701 0.74707 184.453 0.74707 131C0.74707 77.5477 43.995 34.2998 97.4475 34.2998C150.738 34.2998 194.148 77.5477 194.148 131Z" fill="#002856"/>
<path d="M103.117 134.402C107.004 147.684 109.596 160.804 110.082 173.924H162.724C163.696 156.593 161.266 137.317 155.111 117.718C147.66 94.3933 135.998 74.6321 122.554 60.54L90.4824 101.196C95.3417 111.239 99.7151 122.577 103.117 134.402Z" fill="#82BC00"/>
<path d="M40.2695 147.198C43.671 160.804 45.1288 174.086 45.1288 186.72H100.525C101.497 169.388 99.0673 150.113 92.9121 130.514C85.4612 107.189 73.7988 87.428 60.3547 73.3359L28.2832 113.992C33.1425 124.035 37.3539 135.211 40.2695 147.198Z" fill="white"/>
<path d="M713.771 179.755C713.933 180.079 714.257 180.403 714.581 180.403H741.469C741.955 180.403 742.441 179.917 742.441 179.431C742.441 179.269 742.441 179.269 742.441 179.107C742.279 178.459 710.046 81.7587 709.884 81.2728C709.722 80.9488 709.56 80.4629 708.912 80.4629H670.361C669.875 80.4629 669.552 80.7868 669.39 81.1108C669.228 81.5967 636.994 178.945 636.994 178.945C636.994 179.107 636.994 179.107 636.994 179.269C636.994 179.755 637.48 180.241 637.804 180.241H663.234C663.72 180.241 664.044 179.917 664.044 179.593L669.552 161.937H708.102C708.264 162.099 713.609 179.107 713.771 179.755ZM689.151 99.7382L702.109 141.69H676.031L689.151 99.7382ZM434.361 179.755C434.523 180.079 434.847 180.403 435.171 180.403H462.059C462.545 180.403 463.031 179.917 463.031 179.431C463.031 179.269 463.031 179.269 463.031 179.107C462.869 178.459 430.635 81.7587 430.473 81.2728C430.311 80.9488 430.149 80.4629 429.501 80.4629H390.951C390.465 80.4629 390.141 80.7868 389.979 81.1108C389.817 81.5967 357.583 178.945 357.583 178.945C357.583 179.107 357.583 179.107 357.583 179.269C357.583 179.755 358.069 180.241 358.393 180.241H383.824C384.31 180.241 384.634 179.917 384.634 179.593L390.141 161.937H428.691C428.853 162.099 434.037 179.107 434.361 179.755ZM409.578 99.7382L422.536 141.69H396.458L409.578 99.7382ZM551.47 157.564V179.593C551.47 180.079 550.984 180.565 550.498 180.565H482.306C481.82 180.565 481.334 180.079 481.334 179.593V81.5968C481.334 81.1108 481.658 80.6249 482.306 80.6249H508.708C509.194 80.6249 509.68 81.1108 509.68 81.5968V156.754H550.498C551.146 156.592 551.47 157.078 551.47 157.564ZM339.118 81.5968V179.593C339.118 180.079 338.794 180.565 338.146 180.565H311.744C311.258 180.565 310.772 180.079 310.772 179.593V141.528H272.545V179.593C272.545 180.079 272.221 180.565 271.574 180.565H245.333C244.847 180.565 244.361 180.079 244.361 179.593V81.5968C244.361 81.1108 244.685 80.6249 245.333 80.6249H271.735C272.221 80.6249 272.707 81.1108 272.707 81.5968V119.661H310.934V81.5968C310.934 81.1108 311.258 80.6249 311.906 80.6249H338.308C338.794 80.6249 339.118 81.1108 339.118 81.5968ZM905.066 156.916H917.215C932.926 156.916 944.265 147.683 944.265 130.514C944.265 114.64 934.384 104.112 917.215 104.112H905.066V156.916ZM972.449 130.514C972.449 171.656 939.73 180.403 918.997 180.403H877.692C877.206 180.403 876.72 179.917 876.72 179.431V81.4348C876.72 80.9488 877.044 80.4629 877.692 80.4629H918.997C939.244 80.6249 972.449 89.0477 972.449 130.514ZM644.607 82.0827C644.283 82.7306 610.106 138.775 605.733 145.254V179.431C605.733 179.917 605.409 180.403 604.761 180.403H578.358C577.872 180.403 577.387 179.917 577.387 179.431V145.254C571.231 136.021 541.913 87.7519 538.512 82.0827C538.35 81.9207 538.35 81.7587 538.35 81.5968C538.35 81.1108 538.674 80.6249 539.322 80.6249H567.992C568.316 80.6249 568.64 80.7868 568.802 81.1108C569.774 82.8925 592.126 121.281 592.126 121.281C592.126 121.281 614.965 81.7587 615.289 81.2728C615.613 80.7868 615.775 80.6249 616.261 80.6249H643.797C644.283 80.6249 644.769 81.1108 644.769 81.5968C644.769 81.7587 644.607 81.9207 644.607 82.0827ZM819.542 115.45C819.542 107.675 814.683 101.52 803.021 101.52H789.091V129.38H803.021C815.007 129.38 819.542 122.901 819.542 115.45ZM857.445 158.212V180.079C857.445 180.565 857.121 180.889 856.635 180.889C855.825 181.051 852.262 181.375 848.05 181.375C825.374 181.375 814.683 169.55 806.422 160.804C799.295 153.353 795.732 149.303 789.091 149.303V179.431C789.091 179.917 788.767 180.403 788.119 180.403H761.717C761.231 180.403 760.745 179.917 760.745 179.431V81.4348C760.745 80.9488 761.069 80.4629 761.717 80.4629H807.394C833.634 80.4629 847.888 94.7169 847.888 115.288C847.888 137.479 828.289 143.958 824.888 144.768C832.015 152.219 838.494 157.24 851.776 157.24C854.53 157.24 856.149 157.078 856.797 157.078C857.121 157.402 857.445 157.726 857.445 158.212Z" fill="#002856"/>
</g>
<defs>
<clipPath id="clip0_25_107">
<rect width="971.702" height="262" fill="white" transform="translate(0.74707)"/>
</clipPath>
</defs>
</svg>
