<svg width="911" height="262" viewBox="0 0 911 262" fill="none" xmlns="http://www.w3.org/2000/svg">
<g clip-path="url(#clip0_25_125)">
<path d="M0.449953 181.519L72.184 113.043V202.632C72.184 204.531 75.9852 206.071 80.6719 206.071C85.36 206.071 89.1899 204.533 89.1899 202.632V22.0234L161.02 90.5288V232.735C161.02 236.697 157.84 239.911 153.897 239.972L7.6842 239.977C3.68804 239.977 0.449219 236.735 0.449219 232.735L0.449953 181.519Z" fill="black"/>
<path d="M402.282 114.372H338.076C337.795 114.372 337.564 114.613 337.564 114.885V204.518C337.564 204.8 337.805 205.031 338.076 205.031H395.41C395.602 205.031 395.775 204.935 395.864 204.754L402.735 191.336C402.904 190.994 402.663 190.59 402.283 190.59H354.338V166.57H376.113C376.305 166.57 376.488 166.449 376.572 166.281L383.508 152.734C383.677 152.395 383.412 152.003 383.049 152.003H354.339V128.813H395.319C395.511 128.813 395.684 128.717 395.773 128.539L402.736 115.12C402.904 114.781 402.662 114.372 402.282 114.372Z" fill="black"/>
<path d="M606.569 168.819L548.732 112.931C548.099 112.254 546.964 112.714 546.964 113.629V204.517C546.964 204.798 547.205 205.027 547.474 205.027H563.095C563.377 205.027 563.605 204.786 563.605 204.517L563.614 150.645L621.442 206.622C622.077 207.299 623.21 206.839 623.21 205.921V128.223C623.21 128.078 623.162 127.943 623.041 127.847L607.421 112.741C607.094 112.438 606.562 112.669 606.562 113.114L606.569 168.819Z" fill="black"/>
<path d="M667.772 204.731C667.7 204.924 667.505 205.03 667.307 205.03H648.02C647.652 205.03 647.401 204.644 647.555 204.305L694.901 113.203C695.264 112.411 696.389 112.409 696.76 113.198L744.118 204.302C744.286 204.642 744.022 205.029 743.654 205.029H724.856C724.663 205.029 724.473 204.909 724.392 204.728C724.392 204.728 696.105 148.235 696.035 148.235L667.772 204.731Z" fill="black"/>
<path d="M892.364 204.215L859.726 173.585C869.748 168.038 876.455 157.27 876.092 145.011C875.577 127.826 860.922 114.372 843.613 114.372H808.021C807.614 114.372 807.367 114.829 807.595 115.169L824.274 130.981C824.37 131.125 824.529 131.222 824.699 131.222H843.86C851.789 131.222 858.624 137.376 859.012 145.24C859.426 153.53 852.852 160.42 844.637 160.61H823.383C822.962 160.61 822.721 161.082 822.961 161.424L868.385 204.837C868.481 204.957 868.633 205.054 868.799 205.054H891.943C892.364 205.052 892.605 204.579 892.364 204.24V204.215Z" fill="black"/>
<path d="M785.874 113.115V204.515C785.874 204.799 785.633 205.026 785.359 205.026H769.138C768.859 205.026 768.628 204.809 768.628 204.515V128.602C768.628 128.457 768.701 128.323 768.797 128.226L785.017 112.739C785.349 112.44 785.874 112.665 785.874 113.115Z" fill="black"/>
<path d="M494.432 168.819L436.596 112.93C435.961 112.254 434.828 112.713 434.828 113.631V204.519C434.828 204.8 435.069 205.029 435.338 205.029H450.959C451.243 205.029 451.469 204.788 451.469 204.519L451.479 150.646L509.307 206.625C509.94 207.301 511.073 206.841 511.073 205.924V128.225C511.073 128.08 511.025 127.948 510.904 127.849L495.284 112.742C494.956 112.439 494.425 112.67 494.425 113.115L494.432 168.819Z" fill="black"/>
<path d="M231.397 182.497C231.397 194.851 241.614 204.825 253.95 204.927L253.948 204.952H254.141H278.967H279.159L279.157 204.927C291.493 204.831 301.71 194.851 301.71 182.497V113.102C301.71 112.659 301.018 112.442 300.69 112.746L284.7 127.927C284.603 128.023 284.459 128.168 284.459 128.302V178.932C284.459 185.141 279.564 190.34 273.354 190.34H259.748C253.539 190.34 248.644 185.477 248.644 178.932V167.001C248.644 166.558 247.939 166.318 247.612 166.616L231.66 181.746C231.564 181.843 231.4 181.963 231.4 182.117L231.397 182.497Z" fill="black"/>
<path d="M910.45 123.137C910.45 128.111 906.555 132.011 901.483 132.011C896.462 132.011 892.459 128.111 892.459 123.137C892.459 118.276 896.462 114.372 901.483 114.372C906.555 114.371 910.45 118.275 910.45 123.137ZM894.7 123.137C894.7 127.041 897.588 130.139 901.534 130.139C905.378 130.139 908.21 127.041 908.21 123.192C908.21 119.289 905.378 116.139 901.483 116.139C897.589 116.138 894.7 119.289 894.7 123.137ZM900.096 127.736H898.066V118.972C898.863 118.803 899.988 118.7 901.426 118.7C903.088 118.7 903.824 118.972 904.474 119.345C904.953 119.716 905.321 120.41 905.321 121.269C905.321 122.23 904.576 122.978 903.515 123.298V123.395C904.362 123.717 904.844 124.355 905.111 125.53C905.378 126.869 905.537 127.404 905.754 127.724H903.565C903.298 127.404 903.14 126.602 902.873 125.583C902.704 124.62 902.18 124.194 901.059 124.194H900.097L900.096 127.736ZM900.144 122.767H901.107C902.227 122.767 903.136 122.394 903.136 121.484C903.136 120.682 902.552 120.147 901.265 120.147C900.731 120.147 900.356 120.195 900.144 120.243V122.767Z" fill="black"/>
</g>
<defs>
<clipPath id="clip0_25_125">
<rect width="910" height="262" fill="white" transform="translate(0.449219)"/>
</clipPath>
</defs>
</svg>
