<svg width="956" height="262" viewBox="0 0 956 262" fill="none" xmlns="http://www.w3.org/2000/svg">
<g clip-path="url(#clip0_25_127)">
<path d="M236.686 163.241C230.314 163.241 225.079 158.082 225.079 151.634V134.717H243.969V118.786H225.079V96.9385H187.604V118.786H176.301V134.717H187.604V157.551V158.31C187.604 169.689 200.197 178.868 215.748 178.868C229.176 178.868 238.81 175.303 243.893 172.799V160.662C241.92 162.331 239.341 163.241 236.686 163.241Z" fill="#C41239"/>
<path d="M164.315 118.786H127.295V175.454H164.315V118.786Z" fill="#C41239"/>
<path d="M145.805 110.517C155.97 110.517 164.239 104.448 164.239 96.8623C164.239 89.2762 155.97 83.2832 145.805 83.2832C135.64 83.2832 127.371 89.3521 127.371 96.8623C127.371 104.373 135.64 110.517 145.805 110.517Z" fill="#C41239"/>
<path d="M486.269 151.861H538.385C538.385 151.861 539.826 138.206 533.075 129.558C525.792 120.303 511.151 114.917 495.068 114.917C478.986 114.917 448.869 118.862 448.869 147.31C448.869 175.757 476.862 178.944 494.993 178.944C529.509 178.944 537.399 170.902 537.399 170.902V159.296C526.475 162.937 515.02 164.758 503.489 164.758C484.372 164.758 486.269 153.985 486.269 151.861ZM486.269 138.586V136.689C486.269 131.682 490.365 127.586 495.372 127.586C500.379 127.586 504.475 131.682 504.475 136.689V138.661V138.813H486.269V138.586Z" fill="#C41239"/>
<path d="M405.553 117.041C397.056 117.041 389.091 120.986 384.236 124.476V88.5176H347.216V175.454H384.16V147.917C384.16 142.91 388.256 138.813 393.263 138.813C398.27 138.813 402.366 142.91 402.366 147.917C402.366 147.917 402.366 147.917 402.366 147.993V175.454H436.2V142.531C436.2 136.538 429.221 117.041 405.553 117.041Z" fill="#C41239"/>
<path d="M610.68 117.041C602.183 117.041 594.218 120.986 589.363 124.475V118.786H552.343V175.454H589.287V147.916C589.287 142.91 593.383 138.813 598.39 138.813C603.397 138.813 607.493 142.91 607.493 147.916C607.493 147.916 607.493 147.916 607.493 147.992V175.454H641.403V142.53C641.403 136.537 634.348 117.041 610.68 117.041Z" fill="#C41239"/>
<path d="M813.761 118.786H776.74V175.454H813.761V118.786Z" fill="#C41239"/>
<path d="M795.25 110.517C805.415 110.517 813.684 104.448 813.684 96.8623C813.684 89.2762 805.415 83.2832 795.25 83.2832C785.085 83.2832 776.816 89.3521 776.816 96.8623C776.816 104.373 785.085 110.517 795.25 110.517Z" fill="#C41239"/>
<path d="M722.045 175.454H766.347L726.52 83.0557H682.218L686.921 93.9038L651.797 175.454H673.949L680.928 159.144H714.99L722.045 175.454ZM689.728 138.813L697.997 119.621L706.266 138.813H689.728Z" fill="#C41239"/>
<path d="M97.633 131C95.0537 124.779 89.6676 120.228 83.0677 118.786L108.102 83.0557H74.8747L52.4958 115.145C50.751 117.421 48.0958 118.786 45.2131 118.786C44.2269 118.786 43.5442 118.862 43.2407 118.786V83.0557H0V175.454H43.2407V143.213C45.0614 142.303 47.0338 141.848 49.082 141.848C54.6199 141.848 59.5508 145.186 61.6749 150.268L72.523 175.454H116.826L97.633 131Z" fill="#C41239"/>
<path d="M312.471 158.765C300.258 158.765 290.32 154.972 290.32 146.854C290.32 138.737 300.258 135.02 312.471 135.02C319.754 135.02 326.202 136.386 330.223 139.192V122.807C322.03 117.496 310.802 114.917 298.285 114.917C273.479 114.917 253.376 125.158 253.376 146.93C253.376 168.702 273.555 178.944 298.361 178.944C310.802 178.944 322.106 176.364 330.299 171.054V154.592C326.202 157.399 319.754 158.765 312.471 158.765Z" fill="#C41239"/>
<path d="M883.552 88.3662V120.304C877.711 117.193 871.263 114.766 862.842 114.766C841.449 114.766 825.898 124.552 825.898 145.186C825.898 165.82 841.449 175.606 862.842 175.606C871.263 175.606 877.711 173.179 883.552 170.068V175.303H920.572V88.3662H883.552ZM873.462 156.034C866.938 156.034 862.842 151.179 862.842 145.186C862.842 139.193 866.938 134.338 873.462 134.338C877.256 134.414 880.897 135.931 883.552 138.586V151.862C880.897 154.517 877.256 156.034 873.462 156.034Z" fill="#C41239"/>
<path d="M948.944 92.7658C948.944 89.8831 946.82 88.29 943.482 88.29H938.4V103.159H941.662V97.4692H942.724L946.668 103.311L950.082 102.704L946.062 96.8623C947.882 96.2554 949.02 94.5865 948.944 92.7658ZM943.103 95.1175H941.586V90.8693H943.103C944.696 90.8693 945.531 91.6279 945.531 92.9176C945.606 94.4348 944.696 95.1175 943.103 95.1175Z" fill="#C41239"/>
<path d="M943.33 83.2832C936.048 83.2832 930.813 88.5176 930.813 96.1037C930.813 103.69 935.972 108.848 943.33 108.848C950.613 108.848 955.848 103.69 955.848 96.1037C955.848 88.5176 950.689 83.2832 943.33 83.2832ZM943.33 106.724C937.717 106.724 933.317 102.931 933.317 96.1037C933.317 89.2762 937.793 85.4832 943.33 85.4832C948.868 85.4832 953.42 89.2762 953.42 96.1037C953.42 102.931 949.02 106.724 943.33 106.724Z" fill="#C41239"/>
</g>
<defs>
<clipPath id="clip0_25_127">
<rect width="955.848" height="262" fill="white"/>
</clipPath>
</defs>
</svg>
