<svg width="317" height="262" viewBox="0 0 317 262" fill="none" xmlns="http://www.w3.org/2000/svg">
<g clip-path="url(#clip0_25_84)">
<g clip-path="url(#clip1_25_84)">
<path d="M8.50943 246.505C3.94723 246.505 0.246094 250.199 0.246094 254.752C0.246094 259.306 3.94723 263 8.50943 263C13.0716 263 16.768 259.311 16.768 254.752C16.768 250.194 13.0669 246.505 8.50943 246.505Z" fill="#02B2A8"/>
<path d="M62.1759 246.505C57.6137 246.505 53.9126 250.199 53.9126 254.752C53.9126 259.306 57.6137 263 62.1759 263C66.7381 263 70.4393 259.311 70.4393 254.752C70.4393 250.194 66.7381 246.505 62.1759 246.505Z" fill="#02B2A8"/>
<path d="M115.847 246.505C111.285 246.505 107.584 250.199 107.584 254.752C107.584 259.306 111.285 263 115.847 263C120.409 263 124.11 259.311 124.11 254.752C124.11 250.194 120.409 246.505 115.847 246.505Z" fill="#02B2A8"/>
<path d="M169.518 246.505C164.956 246.505 161.255 250.199 161.255 254.752C161.255 259.306 164.956 263 169.518 263C174.08 263 177.782 259.311 177.782 254.752C177.782 250.194 174.08 246.505 169.518 246.505Z" fill="#02B2A8"/>
<path d="M73.736 41.8281H81.7615V84.9743H73.9216L51.691 55.2653V84.9743H43.5989V41.8281H51.4436L73.736 71.6036V41.8281Z" fill="#3C1A53"/>
<path d="M115.947 56.2483C118.606 59.2491 119.934 63.4607 119.934 68.8878C119.934 69.9608 119.91 70.7585 119.872 71.2903H95.4765C96.0141 73.6311 97.113 75.4687 98.7828 76.8029C100.448 78.1466 102.493 78.8113 104.929 78.8113C106.613 78.8113 108.235 78.4932 109.777 77.857C111.318 77.216 112.669 76.3043 113.82 75.1126L118.14 79.609C116.494 81.4181 114.486 82.814 112.122 83.8016C109.758 84.7892 107.127 85.283 104.249 85.283C100.876 85.283 97.9027 84.585 95.329 83.1891C92.7554 81.7931 90.7668 79.8322 89.3682 77.3062C87.9696 74.7754 87.2703 71.8648 87.2703 68.5791C87.2703 65.2934 87.9791 62.3734 89.4015 59.8236C90.8192 57.2786 92.8077 55.2939 95.3576 53.8742C97.9122 52.4593 100.819 51.7471 104.073 51.7471C109.339 51.7471 113.302 53.2475 115.956 56.2435M112.593 65.9249C112.512 63.5034 111.703 61.5709 110.181 60.1322C108.659 58.6936 106.642 57.9719 104.13 57.9719C101.78 57.9719 99.8199 58.6793 98.231 60.099C96.642 61.5187 95.6668 63.4559 95.3005 65.9249H112.593Z" fill="#3C1A53"/>
<path d="M120.395 52.0598L128.668 51.998L136.76 76.9019L144.605 51.998H152.692L160.66 76.9019L168.567 51.998H176.659L164.675 84.9737H156.464L148.558 61.7412L140.713 84.9737H132.497L120.395 52.0598Z" fill="#3C1A53"/>
<path d="M195.212 58.717C193.5 58.1805 191.93 57.9193 190.484 57.9193C189.128 57.9193 188.043 58.1567 187.244 58.6268C186.445 59.0969 186.04 59.8281 186.04 60.8109C186.04 61.7938 186.549 62.6294 187.553 63.185C188.562 63.7405 190.16 64.3245 192.339 64.9418C194.651 65.6398 196.544 66.3235 198.024 67.0072C199.508 67.6862 200.793 68.6928 201.882 70.027C202.967 71.366 203.518 73.1228 203.518 75.3022C203.518 78.5072 202.282 80.9714 199.817 82.6997C197.344 84.4281 194.237 85.2875 190.488 85.2875C187.934 85.2875 185.446 84.8886 183.02 84.0862C180.589 83.2838 178.529 82.1442 176.84 80.6628L179.628 75.0553C181.102 76.3325 182.877 77.3249 184.932 78.0466C186.992 78.7635 188.942 79.1292 190.802 79.1292C192.282 79.1292 193.466 78.868 194.351 78.3552C195.236 77.8424 195.679 77.0685 195.679 76.0429C195.679 74.8938 195.16 74.0297 194.137 73.4552C193.11 72.8806 191.44 72.2444 189.133 71.5464C186.911 70.8864 185.094 70.2407 183.7 69.5997C182.301 68.9682 181.088 68.0043 180.056 66.7081C179.023 65.4118 178.51 63.7168 178.51 61.6228C178.51 58.3751 179.694 55.9014 182.063 54.192C184.428 52.4922 187.406 51.6328 190.983 51.6328C193.167 51.6328 195.317 51.9462 197.439 52.5587C199.56 53.176 201.444 54.0401 203.09 55.1464L200.188 60.9391C198.58 59.9942 196.925 59.2583 195.217 58.7218" fill="#3C1A53"/>
<path d="M43.5989 101.265H51.8765V136.951H70.5249V144.411H43.5989V101.265Z" fill="#3C1A53"/>
<path d="M82.3847 98.6158C83.2505 99.5179 83.6834 100.672 83.6834 102.072C83.6834 103.473 83.2505 104.556 82.3847 105.458C81.5236 106.36 80.4294 106.811 79.1117 106.811C77.7939 106.811 76.7664 106.36 75.9005 105.458C75.0347 104.551 74.6018 103.421 74.6018 102.072C74.6018 100.724 75.0204 99.5227 75.872 98.6158C76.714 97.7089 77.7892 97.2578 79.1117 97.2578C80.4342 97.2578 81.5236 97.7089 82.3847 98.6158ZM75.1013 111.436H83.1268V144.411H75.1013V111.436Z" fill="#3C1A53"/>
<path d="M111.066 142.379C108.435 143.984 105.671 144.782 102.793 144.782C99.9151 144.782 97.6221 143.951 95.8096 142.284C93.9971 140.618 93.0932 138.168 93.0932 134.92V118.648H88.4644L88.4026 112.794H93.098V103.734H101.066V112.794H110.514V118.648H101.066V133.505C101.066 135.024 101.352 136.102 101.932 136.743C102.508 137.38 103.374 137.693 104.525 137.693C105.762 137.693 107.322 137.242 109.22 136.34L111.071 142.375L111.066 142.379Z" fill="#3C1A53"/>
<path d="M142.093 115.69C144.752 118.69 146.075 122.902 146.075 128.324C146.075 129.397 146.051 130.2 146.013 130.732H121.618C122.155 133.073 123.254 134.915 124.924 136.249C126.589 137.583 128.639 138.248 131.07 138.248C132.754 138.248 134.377 137.935 135.918 137.298C137.459 136.657 138.81 135.746 139.962 134.549L144.286 139.046C142.64 140.859 140.632 142.255 138.263 143.243C135.899 144.231 133.273 144.724 130.39 144.724C127.017 144.724 124.039 144.026 121.466 142.631C118.892 141.235 116.903 139.274 115.505 136.748C114.101 134.217 113.407 131.306 113.407 128.021C113.407 124.735 114.116 121.815 115.533 119.265C116.951 116.72 118.939 114.731 121.489 113.316C124.044 111.896 126.951 111.188 130.205 111.188C135.471 111.188 139.438 112.689 142.093 115.685M138.73 125.362C138.649 122.94 137.84 121.012 136.322 119.574C134.8 118.13 132.783 117.413 130.271 117.413C127.921 117.413 125.956 118.121 124.367 119.54C122.779 120.96 121.808 122.897 121.437 125.366H138.73V125.362Z" fill="#3C1A53"/>
<path d="M163.524 112.884C165.442 111.754 167.673 111.17 170.227 111.127V118.9C166.807 118.691 164.081 119.484 162.04 121.269C160.009 123.054 158.986 125.466 158.986 128.51V144.411H150.96V111.436H158.986V117.779C160.099 115.642 161.612 114.014 163.529 112.879" fill="#3C1A53"/>
<path d="M194.451 144.416V140.404C193.3 141.843 191.821 142.935 190.003 143.676C188.191 144.416 186.117 144.782 183.767 144.782C181.416 144.782 179.437 144.34 177.682 143.457C175.931 142.574 174.59 141.354 173.638 139.792C172.687 138.225 172.221 136.487 172.221 134.55C172.221 131.468 173.31 129.056 175.494 127.309C177.673 125.571 180.76 124.669 184.756 124.631H194.389V123.767C194.389 121.834 193.752 120.343 192.472 119.27C191.197 118.202 189.342 117.665 186.916 117.665C183.79 117.665 180.513 118.691 177.097 120.752L174.195 115.201C176.788 113.762 179.142 112.727 181.269 112.091C183.391 111.45 185.869 111.137 188.709 111.137C192.991 111.137 196.316 112.162 198.685 114.213C201.054 116.269 202.253 119.147 202.301 122.846L202.358 144.421H194.456L194.451 144.416ZM191.611 136.985C193.257 135.898 194.185 134.55 194.389 132.95V129.987H186.05C183.914 129.987 182.335 130.31 181.326 130.946C180.322 131.577 179.813 132.617 179.813 134.056C179.813 135.495 180.337 136.558 181.388 137.38C182.435 138.206 183.866 138.614 185.679 138.614C187.986 138.614 189.96 138.068 191.606 136.981" fill="#3C1A53"/>
<path d="M223.727 118.216C221.049 118.216 218.875 119.123 217.21 120.927C215.545 122.736 214.712 125.077 214.712 127.949C214.712 130.822 215.545 133.296 217.21 135.1C218.875 136.909 221.049 137.811 223.727 137.811C227.68 137.811 230.644 136.52 232.614 133.932L237.618 138.063C236.139 140.199 234.184 141.842 231.753 142.991C229.326 144.145 226.505 144.72 223.29 144.72C220.074 144.72 217.143 144.022 214.617 142.626C212.081 141.23 210.121 139.264 208.718 136.733C207.324 134.203 206.62 131.301 206.62 128.016C206.62 124.73 207.329 121.748 208.751 119.199C210.174 116.649 212.148 114.678 214.679 113.282C217.21 111.886 220.121 111.188 223.413 111.188C226.42 111.188 229.103 111.706 231.472 112.755C233.841 113.805 235.763 115.296 237.252 117.223L232.371 121.843C230.149 119.422 227.267 118.206 223.727 118.206" fill="#3C1A53"/>
<path d="M253.898 154.677C251.981 156.049 249.711 156.742 247.076 156.742C245.468 156.742 244.022 156.505 242.728 156.03C241.429 155.56 240.145 154.81 238.865 153.784L242.328 147.678C243.108 148.252 243.827 148.67 244.488 148.941C245.149 149.207 245.844 149.345 246.586 149.345C248.765 149.345 250.373 148.233 251.4 146.016L252.39 143.86L238.741 111.436H247.076L256.467 135.414L265.054 111.436H273.141L258.322 148.542C257.29 151.253 255.82 153.3 253.907 154.677" fill="#3C1A53"/>
<path d="M72.2898 164.481C75.2393 167.007 76.7093 170.583 76.7093 175.198C76.7093 179.813 75.2393 183.673 72.2898 186.285C69.3451 188.901 65.2015 190.216 59.8496 190.216H48.5417V203.848H43.5989V160.692H59.8496C65.2015 160.692 69.3451 161.955 72.2898 164.486M48.5417 185.497H59.6689C63.6269 185.497 66.662 184.632 68.7695 182.909C70.8864 181.185 71.9378 178.654 71.9378 175.326C71.9378 171.998 70.8817 169.619 68.76 167.948C66.6335 166.286 63.6079 165.45 59.6689 165.45H48.5417V185.497Z" fill="#3C1A53"/>
<path d="M92.018 173.137C93.9875 171.884 96.3471 171.233 99.1015 171.195V176.038C95.7287 175.996 93.0123 176.936 90.9619 178.854C88.9115 180.768 87.7317 183.35 87.432 186.603V203.848H82.6367V171.371H87.432V178.564C88.5214 176.195 90.0485 174.386 92.018 173.133" fill="#3C1A53"/>
<path d="M125.885 173.318C128.392 174.69 130.347 176.627 131.751 179.115C133.154 181.603 133.863 184.423 133.863 187.571C133.863 190.719 133.154 193.63 131.751 196.113C130.347 198.606 128.387 200.548 125.885 201.939C123.387 203.335 120.543 204.033 117.369 204.033C114.196 204.033 111.347 203.335 108.835 201.939C106.323 200.548 104.368 198.611 102.969 196.113C101.571 193.63 100.871 190.781 100.871 187.571C100.871 184.362 101.571 181.579 102.969 179.096C104.363 176.622 106.323 174.694 108.835 173.318C111.347 171.945 114.192 171.257 117.369 171.257C120.547 171.257 123.387 171.945 125.885 173.318ZM111.337 177.159C109.553 178.184 108.164 179.599 107.179 181.418C106.195 183.236 105.705 185.307 105.705 187.628C105.705 189.95 106.195 192.068 107.179 193.891C108.164 195.719 109.553 197.144 111.337 198.179C113.126 199.214 115.138 199.731 117.369 199.731C119.601 199.731 121.613 199.214 123.397 198.179C125.186 197.144 126.575 195.714 127.559 193.891C128.549 192.063 129.039 189.979 129.039 187.628C129.039 185.278 128.549 183.208 127.559 181.399C126.575 179.59 125.181 178.18 123.383 177.154C121.58 176.128 119.577 175.616 117.365 175.616C115.153 175.616 113.121 176.124 111.333 177.154" fill="#3C1A53"/>
<path d="M142.916 213.178C141.184 215.044 138.986 215.98 136.308 215.98C133.839 215.98 131.598 215.249 129.586 213.786L131.304 209.84C132.835 210.942 134.401 211.493 136.004 211.493C137.493 211.493 138.644 211.013 139.457 210.049C140.271 209.086 140.68 207.633 140.68 205.686V171.376H145.504V205.083C145.504 208.611 144.638 211.312 142.911 213.178M145.442 159.653C146.07 160.303 146.375 161.101 146.375 162.041C146.375 162.981 146.07 163.789 145.442 164.453C144.819 165.113 144.034 165.446 143.092 165.446C142.15 165.446 141.417 165.123 140.789 164.467C140.157 163.817 139.838 163.01 139.838 162.041C139.838 161.073 140.152 160.303 140.789 159.653C141.422 159.002 142.193 158.675 143.092 158.675C143.991 158.675 144.819 159.002 145.442 159.653Z" fill="#3C1A53"/>
<path d="M179.466 176.147C182.059 179.409 183.224 183.854 182.967 189.499H156.431C156.831 192.666 158.106 195.187 160.247 197.053C162.383 198.919 165.042 199.85 168.22 199.85C170.232 199.85 172.092 199.499 173.8 198.796C175.508 198.098 177.006 197.096 178.296 195.786L180.945 198.615C179.375 200.344 177.473 201.673 175.232 202.618C172.991 203.558 170.537 204.033 167.858 204.033C164.68 204.033 161.869 203.345 159.414 201.977C156.964 200.6 155.056 198.668 153.701 196.18C152.345 193.696 151.665 190.843 151.665 187.633C151.665 184.423 152.354 181.579 153.729 179.101C155.104 176.627 157.031 174.699 159.504 173.322C161.978 171.95 164.78 171.257 167.915 171.257C173.02 171.257 176.873 172.89 179.466 176.147ZM175.47 178.118C173.51 176.29 170.955 175.378 167.796 175.378C164.638 175.378 162.121 176.304 160.061 178.151C158.001 179.998 156.793 182.462 156.427 185.558H178.648C178.491 182.424 177.425 179.946 175.465 178.123" fill="#3C1A53"/>
<path d="M210.888 172.52C212.985 173.365 214.774 174.538 216.239 176.038L213.59 179.442C210.954 176.94 207.724 175.682 203.909 175.682C201.678 175.682 199.684 176.18 197.938 177.187C196.192 178.189 194.822 179.594 193.838 181.413C192.853 183.231 192.363 185.302 192.363 187.623C192.363 189.945 192.853 192.053 193.838 193.858C194.822 195.662 196.192 197.082 197.938 198.112C199.689 199.147 201.678 199.66 203.909 199.66C206.14 199.66 207.962 199.299 209.665 198.577C211.378 197.856 212.809 196.811 213.98 195.448L216.753 198.425C215.264 200.196 213.409 201.569 211.187 202.552C208.966 203.534 206.478 204.033 203.723 204.033C200.588 204.033 197.8 203.34 195.369 201.968C192.934 200.595 191.031 198.658 189.661 196.17C188.281 193.687 187.591 190.838 187.591 187.623C187.591 184.409 188.291 181.574 189.684 179.091C191.083 176.617 193.029 174.69 195.522 173.313C198.019 171.94 200.831 171.252 203.966 171.252C206.478 171.252 208.79 171.675 210.883 172.52" fill="#3C1A53"/>
<path d="M233.023 204.095C230.511 204.095 228.499 203.321 226.991 201.787C225.483 200.254 224.726 197.941 224.726 194.855V176.314H220.055V172.43H224.726V163.854H229.493V172.43L239.802 172.339V176.314H229.493V193.981C229.493 195.909 229.855 197.3 230.578 198.15C231.296 199.005 232.381 199.427 233.832 199.427C235.521 199.427 237.252 198.867 239.022 197.747L240.378 201.626C238.028 203.235 235.573 204.057 233.023 204.1" fill="#3C1A53"/>
<path d="M316.246 258.684H214.95V250.427H307.968V7.26172H8.76632V215.979H0.246094L0.46017 -1H316.246V258.684Z" fill="#3C1A53"/>
</g>
</g>
<defs>
<clipPath id="clip0_25_84">
<rect width="316" height="262" fill="white" transform="translate(0.246094)"/>
</clipPath>
<clipPath id="clip1_25_84">
<rect width="316" height="264" fill="white" transform="translate(0.246094 -1)"/>
</clipPath>
</defs>
</svg>
