<svg width="757" height="262" viewBox="0 0 757 262" fill="none" xmlns="http://www.w3.org/2000/svg">
<g clip-path="url(#clip0_25_20)">
<path d="M293.581 125.167L302.456 69.1904H346.624C365.503 69.1904 371.295 76.4101 371.295 86.1145C371.295 96.2774 366.559 107.635 343.84 107.635H317.175L314.434 125.167H293.581ZM341.654 93.6434C347.222 93.6434 349.408 91.084 349.408 87.7034C349.408 84.7601 347.446 83.1818 343.158 83.1818H321.036L319.383 93.6434H341.654Z" fill="#AD8E55"/>
<path d="M417.565 116.134H386.345L380.927 125.167H359.594L394.505 69.1904H422.418L442.961 125.167H420.562L417.565 116.134ZM406.355 82.8086L394.697 102.121H412.904L406.355 82.8086Z" fill="#AD8E55"/>
<path d="M463.088 84.4615H439.761L442.172 69.1904H509.731L507.257 84.4615H484.026L477.552 125.167H456.614L463.088 84.4615Z" fill="#AD8E55"/>
<path d="M517.337 69.1904H538.179L534.979 88.9725H568.46L571.553 69.1904H592.395L583.51 125.167H562.7L566.092 103.838H532.685L529.294 125.167H508.452L517.337 69.1904Z" fill="#AD8E55"/>
<path d="M68.7913 151.284L66.6047 164.977H28.2064L27.0758 171.973H64.7275L62.5942 185.74H24.8466L21.4654 207.25H0.847656L9.72193 151.284H68.7913Z" fill="#AD8E55"/>
<path d="M70.4446 183.255C70.4418 181.192 70.5665 179.129 70.8179 177.081C72.3219 166.929 77.8896 150.229 112.8 150.229H116.192C147.785 150.229 154.036 164.444 154.036 174.905C154.049 176.892 153.924 178.876 153.662 180.845C152.148 191.232 146.815 208.306 111.595 208.306H108.214C76.759 208.306 70.4446 193.834 70.4446 183.255ZM113.557 165.276C97.3021 165.276 93.1636 172.421 92.4916 178.211C92.371 179.109 92.3175 180.014 92.3316 180.92C92.3316 186.561 96.0222 193.184 110.923 193.184C126.922 193.184 131.082 185.964 132.063 179.79C132.215 178.819 132.29 177.839 132.287 176.857C132.287 171.216 128.298 165.276 113.557 165.276Z" fill="#AD8E55"/>
<path d="M177.426 207.25H156.574L165.459 151.284H215.344C229.946 151.284 235.888 156.616 235.888 164.668C235.888 173.476 228.368 177.689 222.576 179.043C228.517 180.771 232.954 184.908 231.824 192.128L230.394 200.937C229.941 202.894 229.966 204.931 230.469 206.876L230.394 207.25H209.062C208.763 206.727 208.689 205.895 208.987 204.05L209.969 197.876C211.035 191.477 208.539 188.097 200.188 188.097H180.434L177.426 207.25ZM206.705 174.532C211.899 174.532 213.702 171.749 213.702 169.115C213.702 166.481 212.273 164.902 207.985 164.902H184.125L182.546 174.5L206.705 174.532Z" fill="#AD8E55"/>
<path d="M252.964 207.25L239.344 151.284H261.998L269.465 188.14L285.336 151.284H308.663L314.913 187.692L331.979 151.284H353.898L325.1 207.25H300.898L293.901 171.823L278.392 207.25H252.964Z" fill="#AD8E55"/>
<path d="M395.017 198.228H363.786L358.368 207.25H337.035L372.031 151.284H399.944L420.487 207.25H398.099L395.017 198.228ZM383.764 164.902L372.138 184.236H390.345L383.764 164.902Z" fill="#AD8E55"/>
<path d="M445.5 207.25H424.658L433.533 151.284H483.418C498.01 151.284 503.962 156.616 503.962 164.668C503.962 173.476 496.431 177.689 490.64 179.043C496.581 180.771 501.028 184.908 499.898 192.128L498.469 200.937C498.009 202.893 498.034 204.932 498.543 206.876L498.469 207.25H477.136C476.837 206.727 476.763 205.895 477.061 204.05L478.043 197.876C479.109 191.477 476.613 188.097 468.262 188.097H448.508L445.5 207.25ZM474.768 174.532C479.952 174.532 481.765 171.749 481.765 169.115C481.765 166.481 480.336 164.902 476.048 164.902H452.188L450.609 174.5L474.768 174.532Z" fill="#AD8E55"/>
<path d="M514.34 151.284H550.829C580.022 151.284 588.449 162.716 588.449 175.353C588.456 177.519 588.306 179.682 588 181.826C586.262 193.408 578.294 207.324 546.616 207.25H505.455L514.34 151.284ZM528.558 192.437H544.13C565.804 192.437 566.625 180.771 566.625 177.081C566.625 172.047 563.916 165.947 548.269 165.947H532.771L528.558 192.437Z" fill="#AD8E55"/>
<path d="M220.412 230.774V237.301H201.554V240.639H220.017V247.154H201.554V257.403H191.474V230.742L220.412 230.774Z" fill="#D6D6D6"/>
<path d="M244.613 230.273C261.817 230.273 264.047 238.442 264.047 243.497V244.563C264.047 249.554 261.913 257.936 244.613 257.936H242.97C225.691 257.936 223.504 249.554 223.504 244.563V243.497C223.504 238.442 225.638 230.273 242.97 230.273H244.613ZM243.781 237.44C235.749 237.44 234.064 240.916 234.064 243.753V244.18C234.064 246.984 235.899 250.738 243.781 250.738C251.663 250.738 253.498 247.091 253.498 244.254V243.753C253.498 240.916 251.706 237.44 243.781 237.44Z" fill="#D6D6D6"/>
<path d="M277.806 257.446H267.63V230.785H291.864C299.682 230.785 303.085 233.291 303.085 237.632V238.026C303.085 241.897 299.714 243.476 297.751 243.977C301.015 244.734 303.234 246.877 303.234 250.375V254.321C303.136 255.35 303.309 256.387 303.735 257.328V257.51H293.346C293.078 257.096 292.961 256.602 293.016 256.113V252.999C293.016 249.917 291.618 248.37 287.608 248.37H277.848L277.806 257.446ZM277.806 241.855H289.538C291.768 241.855 292.621 240.852 292.621 239.562C292.621 238.314 291.8 237.312 289.538 237.312H277.806V241.855Z" fill="#D6D6D6"/>
<path d="M307.031 230.774H321.015L329.185 245.758L337.505 230.774H350.923V257.435H340.843V240.799L331.5 257.445H326.295L316.972 240.809V257.445H307.042L307.031 230.774Z" fill="#D6D6D6"/>
<path d="M355.115 230.774H365.333V242.718C365.333 245.918 366.762 249.885 373.503 249.885C380.244 249.885 381.641 245.971 381.641 242.718V230.774H391.828V243.497C391.828 248.669 389.385 257.872 374.26 257.872H372.82C357.301 257.872 355.115 248.669 355.115 243.497V230.774Z" fill="#D6D6D6"/>
<path d="M406.163 230.774V249.81H424.659V257.445H396.02V230.785L406.163 230.774Z" fill="#D6D6D6"/>
<path d="M454.161 253.148H438.94L436.892 257.413H426.567L439.761 230.753H453.457L467.408 257.413H456.294L454.161 253.148ZM446.417 237.301L442.044 246.472H450.961L446.417 237.301Z" fill="#D6D6D6"/>
<path d="M474.757 238.058H463.248V230.774H496.452V238.058H484.933V257.445H474.757V238.058Z" fill="#D6D6D6"/>
<path d="M519.395 230.273C536.6 230.273 538.829 238.442 538.829 243.497V244.563C538.829 249.554 536.642 257.936 519.395 257.936H517.785C500.495 257.936 498.308 249.554 498.308 244.563V243.497C498.308 238.442 500.495 230.273 517.785 230.273H519.395ZM518.574 237.44C510.542 237.44 508.857 240.916 508.857 243.753V244.18C508.857 246.984 510.681 250.738 518.574 250.738C526.467 250.738 528.291 247.091 528.291 244.254V243.753C528.291 240.916 526.488 237.44 518.574 237.44Z" fill="#D6D6D6"/>
<path d="M552.599 257.446H542.413V230.785H566.646C574.465 230.785 577.867 233.291 577.867 237.632V238.026C577.867 241.897 574.507 243.476 572.534 243.977C575.798 244.734 578.027 246.877 578.027 250.375V254.321C577.924 255.35 578.097 256.388 578.528 257.328V257.51H568.129C567.864 257.095 567.751 256.601 567.809 256.113V252.999C567.809 249.917 566.401 248.37 562.39 248.37H552.642L552.599 257.446ZM552.599 241.855H564.332C566.561 241.855 567.425 240.852 567.425 239.562C567.425 238.314 566.593 237.312 564.332 237.312H552.599V241.855Z" fill="#D6D6D6"/>
<path d="M632.414 235.916V235.852C633.151 235.079 634.164 234.632 635.232 234.607C636.299 234.582 637.332 234.981 638.104 235.718C638.877 236.455 639.325 237.468 639.35 238.535C639.375 239.602 638.975 240.635 638.238 241.408C638.191 241.46 638.141 241.51 638.088 241.557V241.61C637.327 242.332 636.314 242.729 635.264 242.714C634.215 242.699 633.212 242.275 632.472 241.531C631.731 240.788 631.31 239.784 631.3 238.735C631.289 237.686 631.689 236.674 632.414 235.916Z" fill="url(#paint0_linear_25_20)"/>
<path d="M648.115 219.428L648.221 219.311C649.063 218.428 650.221 217.916 651.44 217.887C652.659 217.858 653.84 218.314 654.722 219.156C655.605 219.997 656.117 221.155 656.146 222.374C656.175 223.593 655.719 224.773 654.877 225.656L654.685 225.826L654.557 225.944C653.694 226.802 652.526 227.283 651.309 227.28C650.091 227.277 648.925 226.79 648.067 225.928C647.208 225.065 646.727 223.897 646.73 222.68C646.733 221.463 647.22 220.297 648.083 219.438L648.115 219.428Z" fill="url(#paint1_linear_25_20)"/>
<path d="M663.869 202.973L663.986 202.845C664.446 202.318 665.008 201.89 665.638 201.586C666.268 201.283 666.953 201.11 667.652 201.078C668.35 201.047 669.048 201.158 669.703 201.403C670.358 201.649 670.956 202.025 671.461 202.509C671.966 202.992 672.368 203.573 672.643 204.217C672.917 204.86 673.058 205.552 673.057 206.251C673.056 206.951 672.914 207.643 672.638 208.285C672.362 208.928 671.959 209.508 671.452 209.99L671.271 210.171L671.154 210.289C670.168 211.176 668.879 211.651 667.553 211.615C666.227 211.579 664.966 211.036 664.029 210.097C663.093 209.158 662.553 207.895 662.521 206.569C662.489 205.243 662.968 203.956 663.858 202.973H663.869Z" fill="url(#paint2_linear_25_20)"/>
<path d="M679.623 186.466L679.74 186.348C680.797 185.265 682.239 184.642 683.752 184.615C685.265 184.588 686.728 185.159 687.823 186.203C688.919 187.247 689.558 188.681 689.602 190.194C689.646 191.707 689.092 193.176 688.06 194.282L687.847 194.485L687.729 194.602C686.635 195.599 685.198 196.135 683.718 196.099C682.238 196.063 680.829 195.458 679.785 194.409C678.74 193.361 678.14 191.95 678.11 190.47C678.08 188.99 678.622 187.556 679.623 186.466Z" fill="url(#paint3_linear_25_20)"/>
<path d="M695.387 169.968L695.505 169.84C696.677 168.688 698.251 168.038 699.894 168.027C701.537 168.015 703.12 168.643 704.308 169.778C705.496 170.913 706.195 172.466 706.258 174.108C706.321 175.749 705.743 177.351 704.646 178.574L704.422 178.798L704.294 178.904C703.093 180.006 701.513 180.6 699.883 180.564C698.254 180.527 696.702 179.862 695.552 178.708C694.402 177.554 693.743 176 693.712 174.371C693.681 172.742 694.281 171.164 695.387 169.968Z" fill="url(#paint4_linear_25_20)"/>
<path d="M711.142 153.459L711.216 153.31C711.841 152.655 712.589 152.13 713.416 151.764C714.244 151.398 715.136 151.199 716.041 151.178C716.945 151.156 717.845 151.313 718.689 151.64C719.534 151.967 720.305 152.456 720.96 153.081C721.615 153.705 722.14 154.453 722.506 155.28C722.872 156.108 723.071 156.999 723.092 157.904C723.114 158.809 722.957 159.709 722.63 160.552C722.303 161.396 721.814 162.168 721.189 162.822C721.113 162.909 721.031 162.991 720.944 163.068L720.826 163.185C719.527 164.446 717.782 165.145 715.97 165.13C714.159 165.115 712.426 164.388 711.147 163.105C709.868 161.822 709.146 160.087 709.137 158.276C709.128 156.465 709.833 154.723 711.099 153.427L711.142 153.459Z" fill="url(#paint5_linear_25_20)"/>
<path d="M726.906 136.961L727.023 136.833C728.391 135.394 730.274 134.556 732.26 134.505C734.245 134.454 736.169 135.194 737.609 136.561C739.049 137.929 739.887 139.812 739.938 141.797C739.989 143.782 739.249 145.706 737.881 147.146L737.614 147.412L737.486 147.53C736.065 148.826 734.199 149.524 732.276 149.478C730.353 149.432 728.521 148.646 727.164 147.283C725.806 145.92 725.027 144.086 724.989 142.163C724.951 140.24 725.657 138.377 726.959 136.961H726.906Z" fill="url(#paint6_linear_25_20)"/>
<path d="M727.013 115.303L726.896 115.186C725.494 113.787 724.705 111.889 724.703 109.909C724.701 107.929 725.486 106.03 726.885 104.628C728.284 103.227 730.182 102.439 732.163 102.437C734.143 102.435 736.043 103.219 737.445 104.618L737.562 104.735C738.999 106.098 739.835 107.976 739.887 109.956C739.939 111.936 739.203 113.856 737.839 115.293C736.476 116.729 734.597 117.566 732.617 117.618C730.637 117.67 728.717 116.933 727.28 115.57L727.013 115.303Z" fill="url(#paint7_linear_25_20)"/>
<path d="M742.82 131.598L742.692 131.47C741.204 129.987 740.367 127.973 740.364 125.872C740.361 123.771 741.192 121.755 742.676 120.268C744.16 118.78 746.174 117.942 748.275 117.939C750.377 117.936 752.393 118.768 753.881 120.252L754.009 120.38C755.448 121.84 756.263 123.803 756.281 125.853C756.3 127.903 755.521 129.88 754.109 131.366C752.697 132.853 750.762 133.733 748.713 133.82C746.665 133.907 744.663 133.194 743.129 131.833L742.82 131.598Z" fill="url(#paint8_linear_25_20)"/>
<path d="M711.216 98.7629L711.099 98.6456C709.881 97.3409 709.218 95.6146 709.248 93.8303C709.277 92.0461 709.999 90.343 711.259 89.0797C712.52 87.8165 714.222 87.0917 716.006 87.0579C717.791 87.0241 719.519 87.684 720.827 88.8986L720.955 89.0159C721.611 89.6391 722.138 90.3854 722.506 91.2123C722.873 92.0391 723.075 92.9303 723.098 93.8349C723.121 94.7395 722.966 95.6398 722.641 96.4844C722.317 97.3291 721.829 98.1015 721.205 98.7576C720.582 99.4137 719.836 99.9407 719.009 100.308C718.182 100.676 717.29 100.877 716.386 100.901C715.481 100.924 714.58 100.769 713.735 100.444C712.891 100.119 712.118 99.6314 711.462 99.0082L711.216 98.7629Z" fill="url(#paint9_linear_25_20)"/>
<path d="M695.494 82.2232L695.377 82.1059C694.192 80.9222 693.525 79.3163 693.524 77.6414C693.523 75.9664 694.188 74.3597 695.372 73.1747C696.555 71.9896 698.162 71.3233 699.837 71.3223C701.512 71.3213 703.119 71.9857 704.305 73.1693L704.422 73.2866C705.023 73.858 705.507 74.5423 705.844 75.3003C706.181 76.0584 706.365 76.8754 706.387 77.7048C706.408 78.5341 706.266 79.3595 705.968 80.1339C705.67 80.9082 705.223 81.6164 704.651 82.2179C704.08 82.8194 703.395 83.3024 702.637 83.6395C701.879 83.9765 701.062 84.1609 700.232 84.1822C699.403 84.2035 698.577 84.0612 697.803 83.7635C697.028 83.4658 696.32 83.0185 695.718 82.4472L695.494 82.2232Z" fill="url(#paint10_linear_25_20)"/>
<path d="M679.74 65.6939L679.623 65.5659C678.545 64.4883 677.939 63.0268 677.939 61.5029C677.939 59.9789 678.545 58.5174 679.623 57.4398C680.7 56.3622 682.162 55.7568 683.686 55.7568C685.211 55.7568 686.672 56.3622 687.75 57.4398L687.878 57.5571C688.458 58.0694 688.928 58.6934 689.26 59.3917C689.593 60.0899 689.781 60.8481 689.814 61.6208C689.846 62.3935 689.723 63.1648 689.45 63.8886C689.177 64.6123 688.761 65.2737 688.227 65.8329C687.693 66.3922 687.051 66.838 686.341 67.1435C685.63 67.449 684.865 67.608 684.092 67.6109C683.318 67.6139 682.552 67.4607 681.839 67.1606C681.126 66.8605 680.481 66.4197 679.943 65.8645L679.74 65.6939Z" fill="url(#paint11_linear_25_20)"/>
<path d="M663.986 49.153L663.869 49.025C663.389 48.5461 663.008 47.9773 662.748 47.3513C662.488 46.7253 662.355 46.0542 662.354 45.3763C662.354 44.6985 662.487 44.0272 662.746 43.4008C663.005 42.7743 663.384 42.2051 663.863 41.7254C664.342 41.2458 664.911 40.8651 665.537 40.6053C666.164 40.3454 666.835 40.2114 667.513 40.2109C668.191 40.2104 668.862 40.3435 669.489 40.6024C670.115 40.8613 670.685 41.2411 671.164 41.7201L671.282 41.8374C671.837 42.2871 672.292 42.8467 672.62 43.4811C672.948 44.1155 673.141 44.8109 673.186 45.5235C673.232 46.2361 673.13 46.9504 672.886 47.6215C672.642 48.2926 672.262 48.906 671.769 49.4229C671.276 49.9399 670.682 50.3492 670.023 50.6252C669.365 50.9012 668.656 51.0378 667.942 51.0265C667.228 51.0152 666.524 50.8561 665.874 50.5594C665.225 50.2626 664.643 49.8346 664.167 49.3023L663.986 49.153Z" fill="url(#paint12_linear_25_20)"/>
<path d="M648.222 32.613L648.104 32.4957C647.254 31.6317 646.78 30.4673 646.785 29.2556C646.79 28.044 647.272 26.8831 648.129 26.0256C648.985 25.1682 650.145 24.6834 651.357 24.6768C652.569 24.6703 653.734 25.1424 654.6 25.9905L654.717 26.1078C655.157 26.5238 655.511 27.0222 655.758 27.5748C656.005 28.1273 656.141 28.7232 656.158 29.3282C656.174 29.9333 656.072 30.5357 655.856 31.1011C655.64 31.6666 655.315 32.1839 654.899 32.6237C654.483 33.0634 653.984 33.4169 653.431 33.664C652.879 33.9111 652.283 34.0469 651.678 34.0638C651.072 34.0806 650.47 33.9781 649.904 33.7621C649.339 33.5461 648.821 33.2209 648.382 32.8049L648.222 32.613Z" fill="url(#paint13_linear_25_20)"/>
<path d="M632.468 16.0728V16.0194C631.742 15.261 631.342 14.2491 631.353 13.1998C631.364 12.1505 631.785 11.147 632.525 10.4036C633.266 9.6602 634.268 9.23582 635.318 9.2211C636.367 9.20637 637.381 9.60246 638.142 10.3248C638.526 10.6882 638.834 11.1236 639.05 11.6062C639.265 12.0888 639.384 12.6091 639.398 13.1374C639.412 13.6657 639.323 14.1917 639.134 14.6853C638.945 15.1789 638.66 15.6304 638.297 16.0141C637.933 16.3978 637.498 16.7062 637.015 16.9217C636.532 17.1371 636.012 17.2554 635.484 17.2697C634.955 17.2841 634.429 17.1942 633.935 17.0053C633.442 16.8164 632.99 16.5322 632.606 16.1687L632.468 16.0728Z" fill="url(#paint14_linear_25_20)"/>
<path d="M596.48 239.743L596.544 239.69C596.908 239.301 597.345 238.988 597.83 238.77C598.316 238.551 598.84 238.431 599.372 238.417C599.905 238.402 600.434 238.493 600.931 238.685C601.428 238.877 601.881 239.166 602.266 239.535C602.65 239.903 602.957 240.344 603.169 240.833C603.382 241.321 603.495 241.846 603.502 242.379C603.51 242.911 603.411 243.439 603.213 243.933C603.015 244.427 602.72 244.877 602.346 245.256L602.208 245.395V245.448C601.451 246.201 600.426 246.622 599.359 246.619C598.292 246.616 597.27 246.189 596.517 245.432C595.765 244.676 595.344 243.651 595.347 242.584C595.35 241.517 595.777 240.495 596.533 239.743H596.48Z" fill="url(#paint15_linear_25_20)"/>
<path d="M610.73 224.877L610.837 224.771C611.248 224.341 611.739 223.997 612.284 223.758C612.828 223.519 613.414 223.389 614.008 223.376C614.602 223.363 615.193 223.467 615.747 223.683C616.301 223.898 616.807 224.221 617.236 224.632C617.666 225.043 618.01 225.534 618.249 226.078C618.489 226.622 618.618 227.208 618.631 227.802C618.644 228.397 618.54 228.987 618.324 229.541C618.109 230.095 617.786 230.601 617.375 231.03L617.215 231.18L617.108 231.286C616.26 232.135 615.109 232.612 613.909 232.612C612.708 232.612 611.557 232.135 610.709 231.286C609.86 230.438 609.383 229.287 609.383 228.087C609.383 226.887 609.86 225.736 610.709 224.888L610.73 224.877Z" fill="url(#paint16_linear_25_20)"/>
<path d="M625.033 209.959L625.14 209.852C626.062 208.889 627.329 208.332 628.662 208.303C629.995 208.274 631.285 208.776 632.249 209.698C633.212 210.62 633.769 211.887 633.798 213.219C633.827 214.552 633.325 215.842 632.403 216.805L632.222 216.976L632.115 217.083C631.165 217.996 629.894 218.499 628.576 218.485C627.259 218.47 625.999 217.938 625.07 217.003C624.141 216.069 623.616 214.806 623.609 213.489C623.602 212.171 624.114 210.903 625.033 209.959Z" fill="url(#paint17_linear_25_20)"/>
<path d="M639.337 195.039L639.444 194.932C640.458 193.874 641.851 193.263 643.316 193.232C644.781 193.201 646.198 193.753 647.256 194.767C648.314 195.781 648.926 197.173 648.957 198.638C648.988 200.103 648.436 201.521 647.422 202.578C647.363 202.648 647.299 202.712 647.23 202.77L647.123 202.877C646.079 203.888 644.679 204.447 643.226 204.433C641.773 204.418 640.383 203.832 639.359 202.801C638.335 201.771 637.759 200.378 637.754 198.925C637.75 197.472 638.319 196.076 639.337 195.039Z" fill="url(#paint18_linear_25_20)"/>
<path d="M653.619 180.12L653.725 180.014C654.844 178.906 656.35 178.278 657.925 178.265C659.499 178.252 661.016 178.854 662.152 179.943C663.289 181.032 663.955 182.522 664.009 184.095C664.062 185.668 663.499 187.2 662.44 188.364L662.237 188.566L662.12 188.673C660.976 189.743 659.461 190.326 657.895 190.3C656.329 190.274 654.834 189.64 653.727 188.533C652.619 187.426 651.985 185.931 651.959 184.366C651.933 182.8 652.517 181.285 653.587 180.142L653.619 180.12Z" fill="url(#paint19_linear_25_20)"/>
<path d="M667.932 165.201L668.039 165.094C669.249 163.887 670.883 163.201 672.591 163.184C674.3 163.167 675.948 163.819 677.182 165.001C678.415 166.183 679.137 167.801 679.193 169.508C679.248 171.216 678.633 172.877 677.479 174.137L677.255 174.361L677.137 174.468C675.891 175.597 674.257 176.203 672.575 176.158C670.893 176.114 669.293 175.423 668.108 174.23C666.922 173.036 666.243 171.432 666.21 169.75C666.177 168.069 666.794 166.439 667.932 165.201Z" fill="url(#paint20_linear_25_20)"/>
<path d="M682.236 150.281L682.343 150.174C682.977 149.487 683.743 148.933 684.594 148.544C685.445 148.155 686.365 147.94 687.3 147.912C688.235 147.883 689.167 148.04 690.041 148.376C690.914 148.711 691.712 149.217 692.388 149.864C693.063 150.511 693.603 151.287 693.975 152.145C694.348 153.003 694.546 153.927 694.557 154.862C694.568 155.798 694.393 156.726 694.041 157.593C693.689 158.46 693.168 159.248 692.508 159.911L692.263 160.156L692.145 160.263C690.804 161.484 689.042 162.139 687.228 162.093C685.415 162.047 683.689 161.303 682.411 160.015C681.133 158.728 680.401 156.997 680.369 155.183C680.336 153.37 681.005 151.613 682.236 150.281Z" fill="url(#paint21_linear_25_20)"/>
<path d="M696.54 135.363L696.636 135.256C698.027 133.848 699.917 133.043 701.896 133.015C703.876 132.988 705.787 133.74 707.217 135.11C708.647 136.479 709.481 138.355 709.538 140.334C709.596 142.313 708.873 144.235 707.526 145.685L707.27 145.952L707.163 146.048C705.749 147.462 703.83 148.257 701.83 148.257C699.83 148.257 697.911 147.462 696.497 146.048C695.082 144.634 694.288 142.716 694.288 140.716C694.288 138.716 695.082 136.798 696.497 135.384L696.54 135.363Z" fill="url(#paint22_linear_25_20)"/>
<path d="M710.95 120.678L711.067 120.561C712.518 119.047 714.511 118.173 716.608 118.129C718.704 118.085 720.732 118.875 722.245 120.326C723.759 121.777 724.634 123.77 724.678 125.865C724.722 127.961 723.931 129.989 722.48 131.502L722.203 131.769L722.096 131.886C720.609 133.364 718.597 134.191 716.5 134.185C714.404 134.179 712.396 133.34 710.918 131.854C709.44 130.368 708.613 128.355 708.619 126.259C708.625 124.163 709.463 122.156 710.95 120.678Z" fill="url(#paint23_linear_25_20)"/>
<path d="M696.604 116.689L696.497 116.572C695.797 115.872 695.241 115.041 694.862 114.126C694.483 113.211 694.288 112.23 694.288 111.24C694.288 109.24 695.082 107.322 696.497 105.908C697.911 104.494 699.83 103.699 701.83 103.699C703.83 103.699 705.749 104.494 707.163 105.908L707.27 106.014C708.003 106.695 708.594 107.515 709.007 108.427C709.421 109.338 709.648 110.323 709.677 111.323C709.706 112.323 709.535 113.319 709.175 114.253C708.815 115.186 708.273 116.039 707.58 116.761C706.887 117.483 706.057 118.06 705.139 118.458C704.22 118.856 703.232 119.067 702.231 119.079C701.23 119.091 700.237 118.904 699.309 118.529C698.382 118.153 697.538 117.597 696.828 116.892L696.604 116.689Z" fill="url(#paint24_linear_25_20)"/>
<path d="M682.311 101.567L682.204 101.45C680.891 100.126 680.159 98.3354 680.167 96.4715C680.175 94.6075 680.923 92.8231 682.247 91.5108C683.571 90.1985 685.362 89.4657 687.226 89.4737C689.09 89.4817 690.875 90.2298 692.188 91.5535L692.294 91.6601C693.002 92.2896 693.576 93.0554 693.981 93.9118C694.385 94.7681 694.613 95.6974 694.65 96.6438C694.687 97.5903 694.533 98.5345 694.196 99.4199C693.86 100.305 693.348 101.114 692.692 101.797C692.035 102.48 691.248 103.023 690.376 103.394C689.504 103.766 688.567 103.957 687.62 103.958C686.672 103.958 685.734 103.768 684.863 103.397C683.991 103.027 683.203 102.484 682.545 101.802C682.462 101.729 682.384 101.651 682.311 101.567Z" fill="url(#paint25_linear_25_20)"/>
<path d="M668.007 86.4453L667.9 86.3386C666.771 85.0922 666.165 83.4584 666.21 81.777C666.254 80.0956 666.945 78.496 668.138 77.3108C669.332 76.1256 670.937 75.446 672.619 75.4133C674.301 75.3807 675.931 75.9975 677.169 77.1354L677.287 77.2421C678.49 78.4532 679.172 80.087 679.187 81.7943C679.201 83.5015 678.547 85.1467 677.365 86.3781C676.182 87.6095 674.564 88.3294 672.857 88.3838C671.15 88.4382 669.49 87.8228 668.231 86.6692C668.151 86.6 668.076 86.5252 668.007 86.4453Z" fill="url(#paint26_linear_25_20)"/>
<path d="M653.715 71.3237L653.619 71.1957C652.487 70.0644 651.852 68.53 651.852 66.93C651.852 65.3301 652.487 63.7957 653.619 62.6644C654.75 61.533 656.285 60.8975 657.885 60.8975C659.486 60.8975 661.02 61.533 662.152 62.6644L662.258 62.771C662.83 63.3193 663.288 63.9747 663.606 64.6999C663.924 65.4251 664.096 66.2058 664.113 66.9976C664.129 67.7893 663.989 68.5764 663.701 69.3141C663.413 70.0518 662.983 70.7256 662.434 71.297C661.886 71.8684 661.23 72.3262 660.505 72.6442C659.78 72.9623 658.999 73.1344 658.207 73.1508C657.415 73.1671 656.628 73.0274 655.89 72.7395C655.152 72.4516 654.478 72.0212 653.907 71.473L653.715 71.3237Z" fill="url(#paint27_linear_25_20)"/>
<path d="M639.411 56.2022L639.305 56.0956C638.272 55.0548 637.695 53.6465 637.701 52.1805C637.707 50.7146 638.296 49.3111 639.337 48.2787C640.378 47.2464 641.786 46.6698 643.252 46.6758C644.719 46.6818 646.122 47.2699 647.155 48.3107L647.262 48.4174C648.32 49.4327 648.931 50.8267 648.961 52.2927C648.991 53.7586 648.437 55.1764 647.422 56.2342C646.406 57.292 645.012 57.9031 643.546 57.9331C642.079 57.9631 640.661 57.4095 639.603 56.3942C639.534 56.3356 639.47 56.2714 639.411 56.2022Z" fill="url(#paint28_linear_25_20)"/>
<path d="M625.118 41.0907L625.012 40.9734C624.07 40.0287 623.541 38.7486 623.543 37.4147C623.545 36.0807 624.077 34.8022 625.022 33.8604C625.967 32.9186 627.247 32.3906 628.582 32.3926C629.916 32.3946 631.195 32.9264 632.137 33.8711L632.254 33.9777C633.216 34.9012 633.771 36.1688 633.798 37.5017C633.825 38.8347 633.322 40.1237 632.398 41.0854C631.474 42.047 630.206 42.6024 628.873 42.6294C627.54 42.6564 626.251 42.1528 625.289 41.2293L625.118 41.0907Z" fill="url(#paint29_linear_25_20)"/>
<path d="M610.815 25.9689L610.709 25.8516C610.289 25.4315 609.955 24.9327 609.728 24.3838C609.5 23.8348 609.383 23.2465 609.383 22.6524C609.383 21.4524 609.86 20.3016 610.709 19.4531C611.557 18.6046 612.708 18.1279 613.909 18.1279C615.109 18.1279 616.26 18.6046 617.108 19.4531L617.215 19.5597C618.085 20.3899 618.589 21.5315 618.617 22.7334C618.645 23.9354 618.195 25.0992 617.364 25.9689C616.534 26.8386 615.392 27.3429 614.19 27.3709C612.988 27.3989 611.824 26.9483 610.954 26.1182L610.815 25.9689Z" fill="url(#paint30_linear_25_20)"/>
<path d="M596.523 10.8474H596.459C595.738 10.0849 595.343 9.0707 595.36 8.02133C595.376 6.97196 595.803 5.97067 596.548 5.23135C597.293 4.49203 598.297 4.0733 599.347 4.06459C600.397 4.05589 601.408 4.4579 602.165 5.18476L602.229 5.23808C602.61 5.6043 602.915 6.04195 603.127 6.52606C603.339 7.01017 603.453 7.53125 603.464 8.05956C603.474 8.58786 603.38 9.11304 603.188 9.60511C602.995 10.0972 602.708 10.5465 602.341 10.9274C601.975 11.3083 601.537 11.6134 601.053 11.8252C600.569 12.037 600.048 12.1513 599.519 12.1617C598.991 12.1721 598.466 12.0783 597.973 11.8858C597.481 11.6932 597.032 11.4056 596.651 11.0394L596.523 10.8474Z" fill="url(#paint31_linear_25_20)"/>
<path d="M612.021 192.64V192.576C612.384 192.184 612.82 191.867 613.305 191.644C613.791 191.42 614.315 191.294 614.849 191.274C615.383 191.253 615.916 191.337 616.417 191.522C616.918 191.707 617.378 191.989 617.77 192.352C618.162 192.715 618.479 193.151 618.703 193.636C618.926 194.121 619.052 194.646 619.073 195.18C619.093 195.713 619.009 196.246 618.824 196.747C618.639 197.248 618.357 197.708 617.994 198.1L617.759 198.324L617.695 198.377C616.928 199.068 615.925 199.437 614.894 199.408C613.862 199.38 612.881 198.956 612.153 198.224C611.426 197.493 611.007 196.509 610.985 195.478C610.962 194.446 611.337 193.446 612.032 192.683L612.021 192.64Z" fill="url(#paint32_linear_25_20)"/>
<path d="M625.396 178.232L625.492 178.136C625.913 177.638 626.432 177.229 627.015 176.936C627.599 176.643 628.236 176.472 628.888 176.432C629.54 176.392 630.193 176.485 630.808 176.704C631.423 176.924 631.987 177.266 632.466 177.71C632.946 178.153 633.33 178.689 633.596 179.286C633.862 179.882 634.004 180.526 634.014 181.179C634.024 181.832 633.902 182.48 633.654 183.085C633.407 183.689 633.04 184.237 632.574 184.695L632.297 184.983L632.19 185.079C631.266 185.893 630.065 186.323 628.834 186.281C627.603 186.24 626.435 185.73 625.567 184.856C624.7 183.982 624.199 182.809 624.167 181.578C624.135 180.347 624.575 179.15 625.396 178.232Z" fill="url(#paint33_linear_25_20)"/>
<path d="M638.792 163.792L638.888 163.686C639.904 162.59 641.313 161.942 642.806 161.885C644.3 161.828 645.754 162.366 646.851 163.382C647.947 164.397 648.595 165.806 648.652 167.299C648.709 168.792 648.17 170.247 647.154 171.343C647.048 171.46 646.941 171.566 646.824 171.673L646.717 171.769C645.641 172.723 644.24 173.229 642.803 173.184C641.365 173.138 639.999 172.544 638.986 171.524C637.972 170.504 637.387 169.134 637.351 167.697C637.315 166.259 637.831 164.862 638.792 163.792Z" fill="url(#paint34_linear_25_20)"/>
<path d="M652.2 149.343L652.296 149.237C653.457 147.985 655.068 147.246 656.774 147.182C658.48 147.118 660.142 147.735 661.394 148.896C662.646 150.057 663.385 151.667 663.449 153.373C663.513 155.079 662.896 156.741 661.735 157.992L661.362 158.365L661.255 158.461C660.046 159.662 658.409 160.333 656.705 160.327C655.001 160.321 653.369 159.638 652.168 158.429C650.967 157.22 650.296 155.584 650.302 153.88C650.308 152.176 650.99 150.544 652.2 149.343Z" fill="url(#paint35_linear_25_20)"/>
<path d="M665.597 134.893L665.703 134.786C667.01 133.372 668.826 132.535 670.75 132.459C672.674 132.383 674.55 133.074 675.964 134.381C677.379 135.688 678.216 137.502 678.292 139.426C678.368 141.35 677.676 143.226 676.37 144.64L675.943 145.056L675.836 145.152C674.454 146.392 672.648 147.053 670.792 147C668.936 146.947 667.171 146.183 665.862 144.866C664.553 143.549 663.8 141.78 663.759 139.924C663.717 138.068 664.391 136.267 665.639 134.893H665.597Z" fill="url(#paint36_linear_25_20)"/>
<path d="M665.671 117.234L665.575 117.127C664.307 115.751 663.622 113.938 663.662 112.067C663.701 110.197 664.464 108.414 665.789 107.093C667.114 105.772 668.9 105.016 670.77 104.982C672.641 104.948 674.453 105.639 675.825 106.911L675.932 107.017C677.346 108.323 678.184 110.136 678.261 112.059C678.338 113.982 677.648 115.857 676.343 117.271C675.037 118.685 673.223 119.523 671.3 119.6C669.377 119.677 667.502 118.987 666.087 117.681C665.948 117.511 665.799 117.372 665.671 117.234Z" fill="url(#paint37_linear_25_20)"/>
<path d="M679.143 131.417L679.036 131.3C677.743 129.793 677.069 127.853 677.148 125.869C677.227 123.885 678.054 122.005 679.463 120.606C680.871 119.206 682.758 118.392 684.742 118.327C686.727 118.261 688.663 118.949 690.161 120.251L690.279 120.358C691.689 121.801 692.492 123.73 692.521 125.748C692.55 127.765 691.802 129.717 690.433 131.199C689.064 132.681 687.178 133.582 685.164 133.713C683.15 133.845 681.163 133.199 679.612 131.907C679.442 131.726 679.282 131.566 679.143 131.417Z" fill="url(#paint38_linear_25_20)"/>
<path d="M652.275 102.644L652.179 102.537C650.975 101.331 650.3 99.6963 650.302 97.9923C650.304 96.2884 650.983 94.6551 652.19 93.4516C653.396 92.2482 655.031 91.5732 656.736 91.5752C658.44 91.5772 660.074 92.256 661.277 93.4623L661.384 93.5689C662.004 94.1424 662.506 94.8325 662.86 95.5997C663.213 96.3669 663.413 97.1963 663.446 98.0405C663.479 98.8847 663.346 99.7272 663.053 100.52C662.761 101.312 662.315 102.04 661.741 102.66C661.168 103.281 660.477 103.782 659.71 104.136C658.943 104.489 658.113 104.688 657.269 104.722C656.424 104.755 655.582 104.621 654.789 104.329C653.996 104.037 653.269 103.591 652.648 103.017C652.552 102.9 652.392 102.772 652.275 102.644Z" fill="url(#paint39_linear_25_20)"/>
<path d="M638.878 88.0669L638.772 87.9603C637.792 86.8893 637.264 85.4818 637.298 84.0311C637.331 82.5805 637.924 81.1988 638.951 80.1741C639.979 79.1495 641.362 78.561 642.813 78.5314C644.264 78.5019 645.671 79.0335 646.739 80.0155L646.846 80.1221C647.909 81.1442 648.528 82.5423 648.571 84.0161C648.614 85.4899 648.077 86.9217 647.076 88.0039C646.074 89.0862 644.688 89.7325 643.215 89.8041C641.742 89.8757 640.3 89.3668 639.198 88.3868C639.092 88.2589 638.974 88.1735 638.878 88.0669Z" fill="url(#paint40_linear_25_20)"/>
<path d="M625.47 73.4886L625.374 73.382C624.558 72.4603 624.124 71.2616 624.161 70.0307C624.199 68.7999 624.705 67.63 625.577 66.7599C626.449 65.8899 627.62 65.3854 628.851 65.3497C630.082 65.3139 631.28 65.7496 632.201 66.5676L632.307 66.6742C633.216 67.5517 633.745 68.7502 633.78 70.0127C633.816 71.2753 633.356 72.5016 632.498 73.429C631.64 74.3563 630.453 74.9108 629.191 74.9738C627.93 75.0368 626.694 74.6032 625.748 73.7659L625.47 73.4886Z" fill="url(#paint41_linear_25_20)"/>
<path d="M612.074 58.9001C611.352 58.1389 610.956 57.1255 610.97 56.0763C610.985 55.027 611.41 54.0251 612.153 53.2845C612.897 52.5439 613.9 52.1233 614.95 52.1125C615.999 52.1017 617.011 52.5016 617.77 53.2268C618.189 53.5774 618.533 54.0096 618.78 54.4971C619.027 54.9845 619.172 55.5172 619.207 56.0625C619.242 56.6079 619.165 57.1546 618.982 57.6695C618.799 58.1844 618.513 58.6566 618.141 59.0576C617.77 59.4586 617.321 59.7798 616.822 60.0019C616.322 60.224 615.783 60.3422 615.236 60.3495C614.69 60.3567 614.148 60.2527 613.643 60.0439C613.137 59.8351 612.68 59.5258 612.298 59.1347L612.074 58.9001Z" fill="url(#paint42_linear_25_20)"/>
<path d="M583.423 228.956V223.225H586.327C586.56 223.225 586.814 223.293 587.088 223.427C587.363 223.557 587.596 223.759 587.787 224.033C587.984 224.302 588.082 224.644 588.082 225.058C588.082 225.477 587.982 225.835 587.78 226.13C587.578 226.42 587.332 226.64 587.042 226.79C586.757 226.94 586.488 227.015 586.234 227.015H584.138V226.083H585.846C586.017 226.083 586.201 225.998 586.397 225.827C586.599 225.656 586.7 225.4 586.7 225.058C586.7 224.706 586.599 224.468 586.397 224.344C586.201 224.219 586.027 224.157 585.877 224.157H584.681V228.956H583.423ZM586.887 226.254L588.315 228.956H586.933L585.535 226.254H586.887ZM585.597 232.373C584.738 232.373 583.933 232.213 583.182 231.892C582.432 231.571 581.772 231.126 581.202 230.556C580.633 229.987 580.187 229.327 579.866 228.576C579.545 227.825 579.385 227.02 579.385 226.161C579.385 225.301 579.545 224.496 579.866 223.746C580.187 222.995 580.633 222.335 581.202 221.765C581.772 221.196 582.432 220.751 583.182 220.43C583.933 220.109 584.738 219.948 585.597 219.948C586.457 219.948 587.262 220.109 588.013 220.43C588.763 220.751 589.423 221.196 589.993 221.765C590.562 222.335 591.008 222.995 591.329 223.746C591.649 224.496 591.81 225.301 591.81 226.161C591.81 227.02 591.649 227.825 591.329 228.576C591.008 229.327 590.562 229.987 589.993 230.556C589.423 231.126 588.763 231.571 588.013 231.892C587.262 232.213 586.457 232.373 585.597 232.373ZM585.597 230.882C586.467 230.882 587.259 230.67 587.974 230.245C588.688 229.821 589.258 229.251 589.682 228.537C590.107 227.823 590.319 227.03 590.319 226.161C590.319 225.291 590.107 224.499 589.682 223.784C589.258 223.07 588.688 222.501 587.974 222.076C587.259 221.651 586.467 221.439 585.597 221.439C584.728 221.439 583.936 221.651 583.221 222.076C582.507 222.501 581.937 223.07 581.513 223.784C581.088 224.499 580.876 225.291 580.876 226.161C580.876 227.03 581.088 227.823 581.513 228.537C581.937 229.251 582.507 229.821 583.221 230.245C583.936 230.67 584.728 230.882 585.597 230.882Z" fill="#D6D6D6"/>
</g>
<defs>
<linearGradient id="paint0_linear_25_20" x1="603.53" y1="238.667" x2="758.947" y2="238.667" gradientUnits="userSpaceOnUse">
<stop stop-color="#92A29C"/>
<stop offset="1" stop-color="#A8876C"/>
</linearGradient>
<linearGradient id="paint1_linear_25_20" x1="603.53" y1="222.584" x2="758.947" y2="222.584" gradientUnits="userSpaceOnUse">
<stop stop-color="#92A29C"/>
<stop offset="1" stop-color="#A8876C"/>
</linearGradient>
<linearGradient id="paint2_linear_25_20" x1="603.53" y1="206.482" x2="758.947" y2="206.482" gradientUnits="userSpaceOnUse">
<stop stop-color="#92A29C"/>
<stop offset="1" stop-color="#A8876C"/>
</linearGradient>
<linearGradient id="paint3_linear_25_20" x1="603.53" y1="190.379" x2="758.948" y2="190.379" gradientUnits="userSpaceOnUse">
<stop stop-color="#92A29C"/>
<stop offset="1" stop-color="#A8876C"/>
</linearGradient>
<linearGradient id="paint4_linear_25_20" x1="603.53" y1="174.265" x2="758.947" y2="174.265" gradientUnits="userSpaceOnUse">
<stop stop-color="#92A29C"/>
<stop offset="1" stop-color="#A8876C"/>
</linearGradient>
<linearGradient id="paint5_linear_25_20" x1="603.531" y1="158.162" x2="758.947" y2="158.162" gradientUnits="userSpaceOnUse">
<stop stop-color="#92A29C"/>
<stop offset="1" stop-color="#A8876C"/>
</linearGradient>
<linearGradient id="paint6_linear_25_20" x1="603.53" y1="142.059" x2="758.947" y2="142.059" gradientUnits="userSpaceOnUse">
<stop stop-color="#92A29C"/>
<stop offset="1" stop-color="#A8876C"/>
</linearGradient>
<linearGradient id="paint7_linear_25_20" x1="603.53" y1="110.099" x2="758.948" y2="110.099" gradientUnits="userSpaceOnUse">
<stop stop-color="#92A29C"/>
<stop offset="1" stop-color="#A8876C"/>
</linearGradient>
<linearGradient id="paint8_linear_25_20" x1="603.53" y1="126.096" x2="758.947" y2="126.096" gradientUnits="userSpaceOnUse">
<stop stop-color="#92A29C"/>
<stop offset="1" stop-color="#A8876C"/>
</linearGradient>
<linearGradient id="paint9_linear_25_20" x1="603.531" y1="93.9641" x2="758.948" y2="93.9641" gradientUnits="userSpaceOnUse">
<stop stop-color="#92A29C"/>
<stop offset="1" stop-color="#A8876C"/>
</linearGradient>
<linearGradient id="paint10_linear_25_20" x1="603.53" y1="77.8189" x2="758.948" y2="77.8189" gradientUnits="userSpaceOnUse">
<stop stop-color="#92A29C"/>
<stop offset="1" stop-color="#A8876C"/>
</linearGradient>
<linearGradient id="paint11_linear_25_20" x1="603.53" y1="61.6735" x2="758.947" y2="61.6735" gradientUnits="userSpaceOnUse">
<stop stop-color="#92A29C"/>
<stop offset="1" stop-color="#A8876C"/>
</linearGradient>
<linearGradient id="paint12_linear_25_20" x1="603.53" y1="45.5378" x2="758.947" y2="45.5378" gradientUnits="userSpaceOnUse">
<stop stop-color="#92A29C"/>
<stop offset="1" stop-color="#A8876C"/>
</linearGradient>
<linearGradient id="paint13_linear_25_20" x1="603.53" y1="29.3924" x2="758.947" y2="29.3924" gradientUnits="userSpaceOnUse">
<stop stop-color="#92A29C"/>
<stop offset="1" stop-color="#A8876C"/>
</linearGradient>
<linearGradient id="paint14_linear_25_20" x1="603.53" y1="13.2788" x2="758.948" y2="13.2788" gradientUnits="userSpaceOnUse">
<stop stop-color="#92A29C"/>
<stop offset="1" stop-color="#A8876C"/>
</linearGradient>
<linearGradient id="paint15_linear_25_20" x1="603.53" y1="242.505" x2="758.947" y2="242.505" gradientUnits="userSpaceOnUse">
<stop stop-color="#92A29C"/>
<stop offset="1" stop-color="#A8876C"/>
</linearGradient>
<linearGradient id="paint16_linear_25_20" x1="603.53" y1="227.959" x2="758.948" y2="227.959" gradientUnits="userSpaceOnUse">
<stop stop-color="#92A29C"/>
<stop offset="1" stop-color="#A8876C"/>
</linearGradient>
<linearGradient id="paint17_linear_25_20" x1="603.53" y1="213.382" x2="758.946" y2="213.382" gradientUnits="userSpaceOnUse">
<stop stop-color="#92A29C"/>
<stop offset="1" stop-color="#A8876C"/>
</linearGradient>
<linearGradient id="paint18_linear_25_20" x1="603.53" y1="198.814" x2="758.948" y2="198.814" gradientUnits="userSpaceOnUse">
<stop stop-color="#92A29C"/>
<stop offset="1" stop-color="#A8876C"/>
</linearGradient>
<linearGradient id="paint19_linear_25_20" x1="603.53" y1="184.247" x2="758.947" y2="184.247" gradientUnits="userSpaceOnUse">
<stop stop-color="#92A29C"/>
<stop offset="1" stop-color="#A8876C"/>
</linearGradient>
<linearGradient id="paint20_linear_25_20" x1="603.53" y1="169.669" x2="758.947" y2="169.669" gradientUnits="userSpaceOnUse">
<stop stop-color="#92A29C"/>
<stop offset="1" stop-color="#A8876C"/>
</linearGradient>
<linearGradient id="paint21_linear_25_20" x1="603.531" y1="155.101" x2="758.948" y2="155.101" gradientUnits="userSpaceOnUse">
<stop stop-color="#92A29C"/>
<stop offset="1" stop-color="#A8876C"/>
</linearGradient>
<linearGradient id="paint22_linear_25_20" x1="603.53" y1="140.535" x2="758.948" y2="140.535" gradientUnits="userSpaceOnUse">
<stop stop-color="#92A29C"/>
<stop offset="1" stop-color="#A8876C"/>
</linearGradient>
<linearGradient id="paint23_linear_25_20" x1="603.53" y1="126.095" x2="758.948" y2="126.095" gradientUnits="userSpaceOnUse">
<stop stop-color="#92A29C"/>
<stop offset="1" stop-color="#A8876C"/>
</linearGradient>
<linearGradient id="paint24_linear_25_20" x1="603.53" y1="111.464" x2="758.948" y2="111.464" gradientUnits="userSpaceOnUse">
<stop stop-color="#92A29C"/>
<stop offset="1" stop-color="#A8876C"/>
</linearGradient>
<linearGradient id="paint25_linear_25_20" x1="603.53" y1="96.6829" x2="758.947" y2="96.6829" gradientUnits="userSpaceOnUse">
<stop stop-color="#92A29C"/>
<stop offset="1" stop-color="#A8876C"/>
</linearGradient>
<linearGradient id="paint26_linear_25_20" x1="603.53" y1="81.913" x2="758.947" y2="81.913" gradientUnits="userSpaceOnUse">
<stop stop-color="#92A29C"/>
<stop offset="1" stop-color="#A8876C"/>
</linearGradient>
<linearGradient id="paint27_linear_25_20" x1="603.53" y1="67.1326" x2="758.947" y2="67.1326" gradientUnits="userSpaceOnUse">
<stop stop-color="#92A29C"/>
<stop offset="1" stop-color="#A8876C"/>
</linearGradient>
<linearGradient id="paint28_linear_25_20" x1="603.53" y1="52.3631" x2="758.948" y2="52.3631" gradientUnits="userSpaceOnUse">
<stop stop-color="#92A29C"/>
<stop offset="1" stop-color="#A8876C"/>
</linearGradient>
<linearGradient id="paint29_linear_25_20" x1="603.53" y1="37.5929" x2="758.947" y2="37.5929" gradientUnits="userSpaceOnUse">
<stop stop-color="#92A29C"/>
<stop offset="1" stop-color="#A8876C"/>
</linearGradient>
<linearGradient id="paint30_linear_25_20" x1="603.53" y1="22.8123" x2="758.947" y2="22.8123" gradientUnits="userSpaceOnUse">
<stop stop-color="#92A29C"/>
<stop offset="1" stop-color="#A8876C"/>
</linearGradient>
<linearGradient id="paint31_linear_25_20" x1="603.531" y1="8.06408" x2="758.948" y2="8.06408" gradientUnits="userSpaceOnUse">
<stop stop-color="#92A29C"/>
<stop offset="1" stop-color="#A8876C"/>
</linearGradient>
<linearGradient id="paint32_linear_25_20" x1="603.53" y1="195.349" x2="758.948" y2="195.349" gradientUnits="userSpaceOnUse">
<stop stop-color="#92A29C"/>
<stop offset="1" stop-color="#A8876C"/>
</linearGradient>
<linearGradient id="paint33_linear_25_20" x1="603.53" y1="181.474" x2="758.947" y2="181.474" gradientUnits="userSpaceOnUse">
<stop stop-color="#92A29C"/>
<stop offset="1" stop-color="#A8876C"/>
</linearGradient>
<linearGradient id="paint34_linear_25_20" x1="603.53" y1="167.567" x2="758.947" y2="167.567" gradientUnits="userSpaceOnUse">
<stop stop-color="#92A29C"/>
<stop offset="1" stop-color="#A8876C"/>
</linearGradient>
<linearGradient id="paint35_linear_25_20" x1="603.53" y1="153.673" x2="758.947" y2="153.673" gradientUnits="userSpaceOnUse">
<stop stop-color="#92A29C"/>
<stop offset="1" stop-color="#A8876C"/>
</linearGradient>
<linearGradient id="paint36_linear_25_20" x1="603.53" y1="139.766" x2="758.947" y2="139.766" gradientUnits="userSpaceOnUse">
<stop stop-color="#92A29C"/>
<stop offset="1" stop-color="#A8876C"/>
</linearGradient>
<linearGradient id="paint37_linear_25_20" x1="603.53" y1="112.296" x2="758.947" y2="112.296" gradientUnits="userSpaceOnUse">
<stop stop-color="#92A29C"/>
<stop offset="1" stop-color="#A8876C"/>
</linearGradient>
<linearGradient id="paint38_linear_25_20" x1="603.53" y1="126.053" x2="758.948" y2="126.053" gradientUnits="userSpaceOnUse">
<stop stop-color="#92A29C"/>
<stop offset="1" stop-color="#A8876C"/>
</linearGradient>
<linearGradient id="paint39_linear_25_20" x1="603.531" y1="98.2505" x2="758.948" y2="98.2505" gradientUnits="userSpaceOnUse">
<stop stop-color="#92A29C"/>
<stop offset="1" stop-color="#A8876C"/>
</linearGradient>
<linearGradient id="paint40_linear_25_20" x1="603.531" y1="84.2171" x2="758.948" y2="84.2171" gradientUnits="userSpaceOnUse">
<stop stop-color="#92A29C"/>
<stop offset="1" stop-color="#A8876C"/>
</linearGradient>
<linearGradient id="paint41_linear_25_20" x1="603.53" y1="70.1721" x2="758.947" y2="70.1721" gradientUnits="userSpaceOnUse">
<stop stop-color="#92A29C"/>
<stop offset="1" stop-color="#A8876C"/>
</linearGradient>
<linearGradient id="paint42_linear_25_20" x1="603.531" y1="56.1594" x2="758.948" y2="56.1594" gradientUnits="userSpaceOnUse">
<stop stop-color="#92A29C"/>
<stop offset="1" stop-color="#A8876C"/>
</linearGradient>
<clipPath id="clip0_25_20">
<rect width="755.434" height="262" fill="white" transform="translate(0.847656)"/>
</clipPath>
</defs>
</svg>
