<?xml version="1.0" encoding="UTF-8"?>
<svg width="400" height="300" viewBox="0 0 400 300" fill="none" xmlns="http://www.w3.org/2000/svg">
  <defs>
    <linearGradient id="bg" x1="0" y1="0" x2="400" y2="300" gradientUnits="userSpaceOnUse">
      <stop offset="0%" stop-color="#f5f3ff"/>
      <stop offset="100%" stop-color="#ede9fe"/>
    </linearGradient>
    <linearGradient id="glow" x1="200" y1="50" x2="200" y2="250" gradientUnits="userSpaceOnUse">
      <stop offset="0%" stop-color="#8b5cf6" stop-opacity="0.1"/>
      <stop offset="100%" stop-color="#8b5cf6" stop-opacity="0"/>
    </linearGradient>
  </defs>

  <!-- Background -->
  <rect width="400" height="300" fill="url(#bg)"/>
  <rect width="400" height="300" fill="url(#glow)"/>

  <!-- Code Editor -->
  <rect x="40" y="40" width="320" height="220" rx="8" fill="white" stroke="#e5e7eb" stroke-width="2"/>
  
  <!-- Editor Header -->
  <rect x="40" y="40" width="320" height="30" rx="8" fill="#f3f4f6"/>
  <circle cx="60" cy="55" r="6" fill="#ef4444"/>
  <circle cx="80" cy="55" r="6" fill="#f59e0b"/>
  <circle cx="100" cy="55" r="6" fill="#10b981"/>

  <!-- Code Lines -->
  <rect x="60" y="90" width="280" height="8" rx="4" fill="#6366f1" fill-opacity="0.7"/>
  <rect x="80" y="110" width="240" height="8" rx="4" fill="#6366f1" fill-opacity="0.7"/>
  <rect x="80" y="130" width="200" height="8" rx="4" fill="#6366f1" fill-opacity="0.7"/>
  
  <!-- AI Suggestion -->
  <rect x="80" y="160" width="260" height="40" rx="4" fill="#8b5cf6" fill-opacity="0.1"/>
  <rect x="100" y="176" width="200" height="8" rx="4" fill="#8b5cf6"/>
  
  <!-- More Code -->
  <rect x="80" y="220" width="180" height="8" rx="4" fill="#6366f1" fill-opacity="0.7"/>

  <!-- AI Assistant -->
  <circle cx="340" cy="180" r="12" fill="#8b5cf6" fill-opacity="0.2"/>
  <path d="M334 180 L346 180 M340 174 L340 186" stroke="#8b5cf6" stroke-width="2"/>
</svg> 